%TF.GenerationSoftware,Altium Limited,Altium Designer,22.6.1 (34)*%
G04 Layer_Color=65535*
%FSLAX26Y26*%
%MOIN*%
%TF.SameCoordinates,2B337168-DF0E-4336-AB3C-9C7F5D13073F*%
%TF.FilePolarity,Positive*%
%TF.FileFunction,Legend,Top*%
%TF.Part,Single*%
G01*
G75*
%TA.AperFunction,NonConductor*%
%ADD40C,0.009842*%
%ADD41C,0.011024*%
%ADD42C,0.007874*%
%ADD43C,0.005000*%
%ADD44C,0.010000*%
D40*
X2393622Y1444803D02*
G03*
X2393622Y1444803I-4921J0D01*
G01*
D41*
X3129961Y1345000D02*
G03*
X3129961Y1345000I-5512J0D01*
G01*
X3127835Y2301220D02*
G03*
X3127835Y2301220I-5512J0D01*
G01*
D42*
X2787520Y2252953D02*
G03*
X2787520Y2252953I-3937J0D01*
G01*
X1906614Y2244409D02*
G03*
X1906614Y2244409I-3937J0D01*
G01*
X1545276Y2139882D02*
G03*
X1545276Y2139882I-3937J0D01*
G01*
X1420236Y2324606D02*
G03*
X1420236Y2324606I-1968J0D01*
G01*
X1302450Y1455000D02*
Y1555000D01*
X1102450Y1455000D02*
X1302450D01*
X1102450D02*
Y1555000D01*
X1302450D01*
X2414291Y1289291D02*
X2432008D01*
X2414291D02*
Y1307008D01*
X2557992Y1289291D02*
X2575709D01*
Y1307008D01*
Y1432992D02*
Y1450709D01*
X2557992D02*
X2575709D01*
X2414291D02*
X2432008D01*
X2414291Y1432992D02*
Y1450709D01*
X1586937Y1300431D02*
Y1355549D01*
X1689299Y1300431D02*
Y1355549D01*
X1770000Y2645000D02*
Y2745000D01*
X2370000Y2645000D02*
Y2745000D01*
X1770000Y2645000D02*
X2370000D01*
X1770000Y2745000D02*
X2370000D01*
X1300000Y2050000D02*
Y2150000D01*
X1100000Y2050000D02*
X1300000D01*
X1100000D02*
Y2150000D01*
X1300000D01*
Y2350000D02*
Y2450000D01*
X1100000Y2350000D02*
X1300000D01*
X1100000D02*
Y2450000D01*
X1300000D01*
D43*
X3285866Y1270197D02*
Y1309567D01*
Y1380433D02*
Y1419803D01*
X3139803Y1270197D02*
Y1309567D01*
Y1380433D02*
Y1419803D01*
X2754055Y2275197D02*
Y2277559D01*
X2680039Y2359055D02*
X2709961D01*
X2754055Y2322441D02*
Y2324803D01*
X2635945Y2275197D02*
Y2277559D01*
Y2322441D02*
Y2324803D01*
X2680039Y2240945D02*
X2684370D01*
X1795394Y2223937D02*
X1844606D01*
X1795394Y2316063D02*
X1844606D01*
X1442913Y2032008D02*
Y2057992D01*
X1486811Y2013504D02*
X1513189D01*
X1557087Y2032008D02*
Y2057992D01*
X3283740Y2226417D02*
Y2265787D01*
Y2336654D02*
Y2376024D01*
X3137677Y2226417D02*
Y2265787D01*
Y2336654D02*
Y2376024D01*
X1648583Y2426772D02*
Y2463583D01*
X1471417D02*
X1648583D01*
X1471417Y2459646D02*
Y2463583D01*
Y2286417D02*
Y2290354D01*
Y2286417D02*
X1648583D01*
Y2323228D01*
D44*
X1225013Y1889990D02*
Y1830010D01*
Y1860000D01*
X1265000D01*
Y1889990D01*
Y1830010D01*
X1284994D02*
X1304987D01*
X1294990D01*
Y1889990D01*
X1284994Y1879994D01*
X2514987Y2024984D02*
X2504990Y2034981D01*
X2484997D01*
X2475000Y2024984D01*
Y2014987D01*
X2484997Y2004990D01*
X2504990D01*
X2514987Y1994994D01*
Y1984997D01*
X2504990Y1975000D01*
X2484997D01*
X2475000Y1984997D01*
X2534981Y1975000D02*
X2554974D01*
X2544977D01*
Y2034981D01*
X2534981D01*
X2584964Y1975000D02*
X2604958D01*
X2594961D01*
Y2014987D01*
X2584964D01*
X2634948Y1975000D02*
Y2014987D01*
X2644945D01*
X2654942Y2004990D01*
Y1975000D01*
Y2004990D01*
X2664939Y2014987D01*
X2674935Y2004990D01*
Y1975000D01*
X2694929Y2034981D02*
Y1975000D01*
X2714922Y1994994D01*
X2734916Y1975000D01*
Y2034981D01*
X2754909Y1975000D02*
X2774903D01*
X2764906D01*
Y2014987D01*
X2754909D01*
X2844880Y2034981D02*
X2804893D01*
Y2004990D01*
X2824887D01*
X2804893D01*
Y1975000D01*
X2864874D02*
X2884867D01*
X2874871D01*
Y2014987D01*
X2864874D01*
X2974838Y2034981D02*
Y1994994D01*
X2994832Y1975000D01*
X3014825Y1994994D01*
Y2034981D01*
X3064809Y1975000D02*
X3044816D01*
X3034819Y1984997D01*
Y2004990D01*
X3044816Y2014987D01*
X3064809D01*
X3074806Y2004990D01*
Y1994994D01*
X3034819D01*
X3094799Y2014987D02*
Y1975000D01*
Y1994994D01*
X3104796Y2004990D01*
X3114793Y2014987D01*
X3124790D01*
X3154780Y1975000D02*
Y1984997D01*
X3164777D01*
Y1975000D01*
X3154780D01*
X3204764Y2034981D02*
Y1975000D01*
X3234754D01*
X3244751Y1984997D01*
Y1994994D01*
X3234754Y2004990D01*
X3204764D01*
X3234754D01*
X3244751Y2014987D01*
Y2024984D01*
X3234754Y2034981D01*
X3204764D01*
X1890023Y2400000D02*
X1950003D01*
Y2429990D01*
X1940006Y2439987D01*
X1900019D01*
X1890023Y2429990D01*
Y2400000D01*
X1960000Y2459981D02*
Y2499968D01*
X1890023Y2559948D02*
Y2519961D01*
X1950003D01*
Y2559948D01*
X1920013Y2519961D02*
Y2539955D01*
X1950003Y2579942D02*
X1890023D01*
X1950003Y2619929D01*
X1890023D01*
X2000016Y2559987D02*
X1990019Y2549990D01*
Y2529997D01*
X2000016Y2520000D01*
X2010013D01*
X2020010Y2529997D01*
Y2549990D01*
X2030006Y2559987D01*
X2040003D01*
X2050000Y2549990D01*
Y2529997D01*
X2040003Y2520000D01*
X1990019Y2579981D02*
X2050000D01*
X2030006Y2599974D01*
X2050000Y2619968D01*
X1990019D01*
X2205016Y2499987D02*
X2195019Y2489990D01*
Y2469997D01*
X2205016Y2460000D01*
X2245003D01*
X2255000Y2469997D01*
Y2489990D01*
X2245003Y2499987D01*
X2225010D01*
Y2479994D01*
X2255000Y2519981D02*
X2195019D01*
X2255000Y2559968D01*
X2195019D01*
Y2579961D02*
X2255000D01*
Y2609952D01*
X2245003Y2619948D01*
X2205016D01*
X2195019Y2609952D01*
Y2579961D01*
X2310016Y2460000D02*
X2300019Y2469997D01*
Y2489990D01*
X2310016Y2499987D01*
X2320013D01*
X2330010Y2489990D01*
Y2479994D01*
Y2489990D01*
X2340006Y2499987D01*
X2350003D01*
X2360000Y2489990D01*
Y2469997D01*
X2350003Y2460000D01*
X2300019Y2519981D02*
X2340006D01*
X2360000Y2539974D01*
X2340006Y2559968D01*
X2300019D01*
X2310016Y2579961D02*
X2300019Y2589958D01*
Y2609952D01*
X2310016Y2619948D01*
X2320013D01*
X2330010Y2609952D01*
Y2599955D01*
Y2609952D01*
X2340006Y2619948D01*
X2350003D01*
X2360000Y2609952D01*
Y2589958D01*
X2350003Y2579961D01*
X1045000Y1704977D02*
Y1664990D01*
X1064994Y1644997D01*
X1084987Y1664990D01*
Y1704977D01*
X1104981Y1635000D02*
X1144968D01*
X1194951Y1704977D02*
X1174958D01*
X1164961Y1694981D01*
Y1654994D01*
X1174958Y1644997D01*
X1194951D01*
X1204948Y1654994D01*
Y1694981D01*
X1194951Y1704977D01*
X1264929Y1694981D02*
X1254932Y1704977D01*
X1234939D01*
X1224942Y1694981D01*
Y1684984D01*
X1234939Y1674987D01*
X1254932D01*
X1264929Y1664990D01*
Y1654994D01*
X1254932Y1644997D01*
X1234939D01*
X1224942Y1654994D01*
X1324909Y1694981D02*
X1314913Y1704977D01*
X1294919D01*
X1284922Y1694981D01*
Y1654994D01*
X1294919Y1644997D01*
X1314913D01*
X1324909Y1654994D01*
X2090019Y2460000D02*
X2150000D01*
Y2499987D01*
X2090019Y2519981D02*
X2150000D01*
Y2549971D01*
X2140003Y2559968D01*
X2100016D01*
X2090019Y2549971D01*
Y2519981D01*
Y2609952D02*
Y2589958D01*
X2100016Y2579961D01*
X2140003D01*
X2150000Y2589958D01*
Y2609952D01*
X2140003Y2619948D01*
X2100016D01*
X2090019Y2609952D01*
X1790019Y2499990D02*
Y2479997D01*
X1800016Y2470000D01*
X1840003D01*
X1850000Y2479997D01*
Y2499990D01*
X1840003Y2509987D01*
X1800016D01*
X1790019Y2499990D01*
Y2529981D02*
X1840003D01*
X1850000Y2539977D01*
Y2559971D01*
X1840003Y2569968D01*
X1790019D01*
Y2589961D02*
Y2629948D01*
Y2609955D01*
X1850000D01*
X1164987Y2229984D02*
X1154990Y2239981D01*
X1134997D01*
X1125000Y2229984D01*
Y2189997D01*
X1134997Y2180000D01*
X1154990D01*
X1164987Y2189997D01*
Y2209990D01*
X1144994D01*
X1184981Y2180000D02*
Y2239981D01*
X1224968Y2180000D01*
Y2239981D01*
X1244961D02*
Y2180000D01*
X1274951D01*
X1284948Y2189997D01*
Y2229984D01*
X1274951Y2239981D01*
X1244961D01*
X1120000Y2524984D02*
X1129997Y2534981D01*
X1149990D01*
X1159987Y2524984D01*
Y2514987D01*
X1149990Y2504990D01*
X1139994D01*
X1149990D01*
X1159987Y2494994D01*
Y2484997D01*
X1149990Y2475000D01*
X1129997D01*
X1120000Y2484997D01*
X1179981Y2534981D02*
Y2494994D01*
X1199974Y2475000D01*
X1219968Y2494994D01*
Y2534981D01*
X1239961Y2524984D02*
X1249958Y2534981D01*
X1269951D01*
X1279948Y2524984D01*
Y2514987D01*
X1269951Y2504990D01*
X1259955D01*
X1269951D01*
X1279948Y2494994D01*
Y2484997D01*
X1269951Y2475000D01*
X1249958D01*
X1239961Y2484997D01*
X2140024Y1505010D02*
Y1564990D01*
X2170015D01*
X2180011Y1554994D01*
Y1535000D01*
X2170015Y1525003D01*
X2140024D01*
X2160018D02*
X2180011Y1505010D01*
X2200005D02*
X2219998D01*
X2210002D01*
Y1564990D01*
X2200005Y1554994D01*
X2249989D02*
X2259985Y1564990D01*
X2279979D01*
X2289976Y1554994D01*
Y1515006D01*
X2279979Y1505010D01*
X2259985D01*
X2249989Y1515006D01*
Y1554994D01*
X2605016Y1125010D02*
Y1184990D01*
X2635006D01*
X2645003Y1174994D01*
Y1155000D01*
X2635006Y1145003D01*
X2605016D01*
X2625010D02*
X2645003Y1125010D01*
X2664997Y1135006D02*
X2674994Y1125010D01*
X2694987D01*
X2704984Y1135006D01*
Y1174994D01*
X2694987Y1184990D01*
X2674994D01*
X2664997Y1174994D01*
Y1164997D01*
X2674994Y1155000D01*
X2704984D01*
X2631000Y2463981D02*
Y2413997D01*
X2640997Y2404000D01*
X2660990D01*
X2670987Y2413997D01*
Y2463981D01*
X2730968D02*
X2690981D01*
Y2433990D01*
X2710974Y2443987D01*
X2720971D01*
X2730968Y2433990D01*
Y2413997D01*
X2720971Y2404000D01*
X2700977D01*
X2690981Y2413997D01*
X2540006Y2150011D02*
X2530010Y2140015D01*
Y2120021D01*
X2540006Y2110024D01*
X2579993D01*
X2589990Y2120021D01*
Y2140015D01*
X2579993Y2150011D01*
X2589990Y2170005D02*
Y2189998D01*
Y2180002D01*
X2530010D01*
X2540006Y2170005D01*
X2530010Y2259976D02*
X2540006Y2239982D01*
X2560000Y2219989D01*
X2579993D01*
X2589990Y2229985D01*
Y2249979D01*
X2579993Y2259976D01*
X2569997D01*
X2560000Y2249979D01*
Y2219989D01*
X1355016Y2220010D02*
Y2279990D01*
X1385006D01*
X1395003Y2269994D01*
Y2250000D01*
X1385006Y2240003D01*
X1355016D01*
X1375010D02*
X1395003Y2220010D01*
X1414997Y2269994D02*
X1424994Y2279990D01*
X1444987D01*
X1454984Y2269994D01*
Y2259997D01*
X1444987Y2250000D01*
X1454984Y2240003D01*
Y2230006D01*
X1444987Y2220010D01*
X1424994D01*
X1414997Y2230006D01*
Y2240003D01*
X1424994Y2250000D01*
X1414997Y2259997D01*
Y2269994D01*
X1424994Y2250000D02*
X1444987D01*
X2030016Y2060010D02*
Y2119990D01*
X2060006D01*
X2070003Y2109994D01*
Y2090000D01*
X2060006Y2080003D01*
X2030016D01*
X2050010D02*
X2070003Y2060010D01*
X2089997Y2119990D02*
X2129984D01*
Y2109994D01*
X2089997Y2070006D01*
Y2060010D01*
X1770016Y2404990D02*
Y2355006D01*
X1780013Y2345010D01*
X1800006D01*
X1810003Y2355006D01*
Y2404990D01*
X1829997Y2394994D02*
X1839994Y2404990D01*
X1859987D01*
X1869984Y2394994D01*
Y2384997D01*
X1859987Y2375000D01*
X1849990D01*
X1859987D01*
X1869984Y2365003D01*
Y2355006D01*
X1859987Y2345010D01*
X1839994D01*
X1829997Y2355006D01*
X2150013Y2384990D02*
Y2335006D01*
X2160010Y2325010D01*
X2180003D01*
X2190000Y2335006D01*
Y2384990D01*
X2209994Y2325010D02*
X2229987D01*
X2219990D01*
Y2384990D01*
X2209994Y2374994D01*
X1422000Y2563981D02*
Y2523994D01*
X1441994Y2504000D01*
X1461987Y2523994D01*
Y2563981D01*
X1481981Y2504000D02*
Y2563981D01*
X1511971D01*
X1521968Y2553984D01*
Y2533990D01*
X1511971Y2523994D01*
X1481981D01*
X1501974D02*
X1521968Y2504000D01*
X1541961D02*
X1561955D01*
X1551958D01*
Y2563981D01*
X1541961Y2553984D01*
X1649990Y2069984D02*
X1600006D01*
X1590010Y2059987D01*
Y2039994D01*
X1600006Y2029997D01*
X1649990D01*
X1590010Y1980013D02*
X1649990D01*
X1620000Y2010003D01*
Y1970016D01*
X2420010Y2204984D02*
X2479990D01*
Y2174993D01*
X2469994Y2164997D01*
X2450000D01*
X2440003Y2174993D01*
Y2204984D01*
Y2184990D02*
X2420010Y2164997D01*
X2479990Y2105016D02*
X2469994Y2125010D01*
X2450000Y2145003D01*
X2430007D01*
X2420010Y2135006D01*
Y2115013D01*
X2430007Y2105016D01*
X2440003D01*
X2450000Y2115013D01*
Y2145003D01*
X2012575Y2290010D02*
Y2349990D01*
X2042565D01*
X2052562Y2339993D01*
Y2320000D01*
X2042565Y2310003D01*
X2012575D01*
X2032569D02*
X2052562Y2290010D01*
X2112543Y2349990D02*
X2072556D01*
Y2320000D01*
X2092549Y2329997D01*
X2102546D01*
X2112543Y2320000D01*
Y2300006D01*
X2102546Y2290010D01*
X2082553D01*
X2072556Y2300006D01*
X3160987Y2590981D02*
X3140994D01*
X3150990D01*
Y2540997D01*
X3140994Y2531000D01*
X3130997D01*
X3121000Y2540997D01*
X3220968Y2531000D02*
X3180981D01*
X3220968Y2570987D01*
Y2580984D01*
X3210971Y2590981D01*
X3190977D01*
X3180981Y2580984D01*
X1769994Y2084988D02*
X1779990Y2094985D01*
Y2114979D01*
X1769994Y2124976D01*
X1730007D01*
X1720010Y2114979D01*
Y2094985D01*
X1730007Y2084988D01*
X1720010Y2064995D02*
Y2045002D01*
Y2054998D01*
X1779990D01*
X1769994Y2064995D01*
X1779990Y1975024D02*
Y2015011D01*
X1750000D01*
X1759997Y1995018D01*
Y1985021D01*
X1750000Y1975024D01*
X1730007D01*
X1720010Y1985021D01*
Y2005014D01*
X1730007Y2015011D01*
X1680011Y1784994D02*
X1670015Y1794990D01*
X1650021D01*
X1640024Y1784994D01*
Y1745006D01*
X1650021Y1735010D01*
X1670015D01*
X1680011Y1745006D01*
X1700005Y1735010D02*
X1719998D01*
X1710002D01*
Y1794990D01*
X1700005Y1784994D01*
X1779979Y1735010D02*
Y1794990D01*
X1749989Y1765000D01*
X1789976D01*
X1915006Y2095011D02*
X1905010Y2085015D01*
Y2065021D01*
X1915006Y2055024D01*
X1954994D01*
X1964990Y2065021D01*
Y2085015D01*
X1954994Y2095011D01*
X1964990Y2115005D02*
Y2134998D01*
Y2125002D01*
X1905010D01*
X1915006Y2115005D01*
Y2164989D02*
X1905010Y2174985D01*
Y2194979D01*
X1915006Y2204976D01*
X1925003D01*
X1935000Y2194979D01*
Y2184982D01*
Y2194979D01*
X1944997Y2204976D01*
X1954994D01*
X1964990Y2194979D01*
Y2174985D01*
X1954994Y2164989D01*
X2310011Y2394994D02*
X2300015Y2404990D01*
X2280021D01*
X2270024Y2394994D01*
Y2355006D01*
X2280021Y2345010D01*
X2300015D01*
X2310011Y2355006D01*
X2330005Y2345010D02*
X2349998D01*
X2340002D01*
Y2404990D01*
X2330005Y2394994D01*
X2419976Y2345010D02*
X2379989D01*
X2419976Y2384997D01*
Y2394994D01*
X2409979Y2404990D01*
X2389985D01*
X2379989Y2394994D01*
X2330006Y1985008D02*
X2320010Y1975011D01*
Y1955018D01*
X2330006Y1945021D01*
X2369993D01*
X2379990Y1955018D01*
Y1975011D01*
X2369993Y1985008D01*
X2379990Y2005002D02*
Y2024995D01*
Y2014998D01*
X2320010D01*
X2330006Y2005002D01*
X2379990Y2054985D02*
Y2074979D01*
Y2064982D01*
X2320010D01*
X2330006Y2054985D01*
X2225006Y1967452D02*
X2215010Y1957455D01*
Y1937462D01*
X2225006Y1927465D01*
X2264994D01*
X2274990Y1937462D01*
Y1957455D01*
X2264994Y1967452D01*
X2274990Y1987446D02*
Y2007439D01*
Y1997443D01*
X2215010D01*
X2225006Y1987446D01*
Y2037429D02*
X2215010Y2047426D01*
Y2067420D01*
X2225006Y2077417D01*
X2264994D01*
X2274990Y2067420D01*
Y2047426D01*
X2264994Y2037429D01*
X2225006D01*
X1440006Y1630003D02*
X1430010Y1620006D01*
Y1600013D01*
X1440006Y1590016D01*
X1479994D01*
X1489990Y1600013D01*
Y1620006D01*
X1479994Y1630003D01*
Y1649997D02*
X1489990Y1659994D01*
Y1679987D01*
X1479994Y1689984D01*
X1440006D01*
X1430010Y1679987D01*
Y1659994D01*
X1440006Y1649997D01*
X1450003D01*
X1460000Y1659994D01*
Y1689984D01*
X2435016Y1115010D02*
Y1174990D01*
X2465006D01*
X2475003Y1164994D01*
Y1145000D01*
X2465006Y1135003D01*
X2435016D01*
X2455010D02*
X2475003Y1115010D01*
X2524987D02*
Y1174990D01*
X2494997Y1145000D01*
X2534984D01*
X1942559Y1449994D02*
X1932562Y1459990D01*
X1912569D01*
X1902572Y1449994D01*
Y1410007D01*
X1912569Y1400010D01*
X1932562D01*
X1942559Y1410007D01*
X1962553Y1400010D02*
X1982546D01*
X1972550D01*
Y1459990D01*
X1962553Y1449994D01*
X1435006Y1260003D02*
X1425010Y1250006D01*
Y1230013D01*
X1435006Y1220016D01*
X1474994D01*
X1484990Y1230013D01*
Y1250006D01*
X1474994Y1260003D01*
X1435006Y1279997D02*
X1425010Y1289994D01*
Y1309987D01*
X1435006Y1319984D01*
X1445003D01*
X1455000Y1309987D01*
X1464997Y1319984D01*
X1474994D01*
X1484990Y1309987D01*
Y1289994D01*
X1474994Y1279997D01*
X1464997D01*
X1455000Y1289994D01*
X1445003Y1279997D01*
X1435006D01*
X1455000Y1289994D02*
Y1309987D01*
X1500016Y1030010D02*
Y1089990D01*
X1530006D01*
X1540003Y1079994D01*
Y1060000D01*
X1530006Y1050003D01*
X1500016D01*
X1520010D02*
X1540003Y1030010D01*
X1599984D02*
X1559997D01*
X1599984Y1069997D01*
Y1079994D01*
X1589987Y1089990D01*
X1569994D01*
X1559997Y1079994D01*
X1420013Y1375010D02*
Y1434990D01*
X1450003D01*
X1460000Y1424994D01*
Y1405000D01*
X1450003Y1395003D01*
X1420013D01*
X1440006D02*
X1460000Y1375010D01*
X1479994D02*
X1499987D01*
X1489990D01*
Y1434990D01*
X1479994Y1424994D01*
X2090016Y1474990D02*
Y1415010D01*
X2130003D01*
X2179987D02*
Y1474990D01*
X2149997Y1445000D01*
X2189984D01*
X1495016Y1189990D02*
Y1130010D01*
X1535003D01*
X1554997Y1179994D02*
X1564994Y1189990D01*
X1584987D01*
X1594984Y1179994D01*
Y1169997D01*
X1584987Y1160000D01*
X1574990D01*
X1584987D01*
X1594984Y1150003D01*
Y1140006D01*
X1584987Y1130010D01*
X1564994D01*
X1554997Y1140006D01*
X1805010Y1400016D02*
X1864990D01*
Y1440003D01*
Y1499984D02*
Y1459997D01*
X1825003Y1499984D01*
X1815006D01*
X1805010Y1489987D01*
Y1469994D01*
X1815006Y1459997D01*
X1590010Y1500013D02*
X1649990D01*
Y1540000D01*
Y1559994D02*
Y1579987D01*
Y1569990D01*
X1590010D01*
X1600006Y1559994D01*
X2235006Y1200003D02*
X2225010Y1190006D01*
Y1170013D01*
X2235006Y1160016D01*
X2274994D01*
X2284990Y1170013D01*
Y1190006D01*
X2274994Y1200003D01*
X2225010Y1219997D02*
Y1259984D01*
X2235006D01*
X2274994Y1219997D01*
X2284990D01*
X2035006Y1200003D02*
X2025010Y1190006D01*
Y1170013D01*
X2035006Y1160016D01*
X2074994D01*
X2084990Y1170013D01*
Y1190006D01*
X2074994Y1200003D01*
X2025010Y1259984D02*
X2035006Y1239990D01*
X2055000Y1219997D01*
X2074994D01*
X2084990Y1229994D01*
Y1249987D01*
X2074994Y1259984D01*
X2064997D01*
X2055000Y1249987D01*
Y1219997D01*
X1880006Y1195003D02*
X1870010Y1185006D01*
Y1165013D01*
X1880006Y1155016D01*
X1919994D01*
X1929990Y1165013D01*
Y1185006D01*
X1919994Y1195003D01*
X1870010Y1254984D02*
Y1214997D01*
X1900000D01*
X1890003Y1234990D01*
Y1244987D01*
X1900000Y1254984D01*
X1919994D01*
X1929990Y1244987D01*
Y1224994D01*
X1919994Y1214997D01*
X1725006Y1080003D02*
X1715010Y1070006D01*
Y1050013D01*
X1725006Y1040016D01*
X1764994D01*
X1774990Y1050013D01*
Y1070006D01*
X1764994Y1080003D01*
X1774990Y1129987D02*
X1715010D01*
X1745000Y1099997D01*
Y1139984D01*
X2410003Y1599994D02*
X2400006Y1609990D01*
X2380013D01*
X2370016Y1599994D01*
Y1560006D01*
X2380013Y1550010D01*
X2400006D01*
X2410003Y1560006D01*
X2429997Y1599994D02*
X2439994Y1609990D01*
X2459987D01*
X2469984Y1599994D01*
Y1589997D01*
X2459987Y1580000D01*
X2449990D01*
X2459987D01*
X2469984Y1570003D01*
Y1560006D01*
X2459987Y1550010D01*
X2439994D01*
X2429997Y1560006D01*
X1735006Y1440003D02*
X1725010Y1430006D01*
Y1410013D01*
X1735006Y1400016D01*
X1774994D01*
X1784990Y1410013D01*
Y1430006D01*
X1774994Y1440003D01*
X1784990Y1499984D02*
Y1459997D01*
X1745003Y1499984D01*
X1735006D01*
X1725010Y1489987D01*
Y1469994D01*
X1735006Y1459997D01*
X2485016Y1539990D02*
Y1490006D01*
X2495013Y1480010D01*
X2515006D01*
X2525003Y1490006D01*
Y1539990D01*
X2584984Y1480010D02*
X2544997D01*
X2584984Y1519997D01*
Y1529994D01*
X2574987Y1539990D01*
X2554994D01*
X2544997Y1529994D01*
X1629994Y1435000D02*
X1590006D01*
X1580010Y1425003D01*
Y1405010D01*
X1590006Y1395013D01*
X1629994D01*
X1639990Y1405010D01*
Y1425003D01*
X1619997Y1415006D02*
X1639990Y1435000D01*
Y1425003D02*
X1629994Y1435000D01*
X1639990Y1454994D02*
Y1474987D01*
Y1464990D01*
X1580010D01*
X1590006Y1454994D01*
X1575016Y1620010D02*
Y1679990D01*
X1605006D01*
X1615003Y1669994D01*
Y1650000D01*
X1605006Y1640003D01*
X1575016D01*
X1595010D02*
X1615003Y1620010D01*
X1634997Y1669994D02*
X1644994Y1679990D01*
X1664987D01*
X1674984Y1669994D01*
Y1659997D01*
X1664987Y1650000D01*
X1654990D01*
X1664987D01*
X1674984Y1640003D01*
Y1630006D01*
X1664987Y1620010D01*
X1644994D01*
X1634997Y1630006D01*
X3162987Y1633981D02*
X3142994D01*
X3152990D01*
Y1583997D01*
X3142994Y1574000D01*
X3132997D01*
X3123000Y1583997D01*
X3182981Y1574000D02*
X3202974D01*
X3192977D01*
Y1633981D01*
X3182981Y1623984D01*
%TF.MD5,b3e2bd8b5aae1198a0964bd8cec2b4ad*%
M02*
