%TF.GenerationSoftware,Altium Limited,Altium Designer,22.6.1 (34)*%
G04 Layer_Color=255*
%FSLAX26Y26*%
%MOIN*%
%TF.SameCoordinates,2B337168-DF0E-4336-AB3C-9C7F5D13073F*%
%TF.FilePolarity,Positive*%
%TF.FileFunction,Pads,Top*%
%TF.Part,Single*%
G01*
G75*
%TA.AperFunction,SMDPad,CuDef*%
%ADD10R,0.118110X0.039370*%
%ADD11R,0.039370X0.120079*%
%ADD12R,0.039370X0.129921*%
%ADD13R,0.039370X0.106299*%
%ADD14R,0.129921X0.039370*%
%ADD15R,0.094488X0.094488*%
G04:AMPARAMS|DCode=16|XSize=16.535mil|YSize=25.591mil|CornerRadius=4.134mil|HoleSize=0mil|Usage=FLASHONLY|Rotation=0.000|XOffset=0mil|YOffset=0mil|HoleType=Round|Shape=RoundedRectangle|*
%AMROUNDEDRECTD16*
21,1,0.016535,0.017323,0,0,0.0*
21,1,0.008268,0.025591,0,0,0.0*
1,1,0.008268,0.004134,-0.008662*
1,1,0.008268,-0.004134,-0.008662*
1,1,0.008268,-0.004134,0.008662*
1,1,0.008268,0.004134,0.008662*
%
%ADD16ROUNDEDRECTD16*%
G04:AMPARAMS|DCode=17|XSize=16.535mil|YSize=25.591mil|CornerRadius=4.134mil|HoleSize=0mil|Usage=FLASHONLY|Rotation=90.000|XOffset=0mil|YOffset=0mil|HoleType=Round|Shape=RoundedRectangle|*
%AMROUNDEDRECTD17*
21,1,0.016535,0.017323,0,0,90.0*
21,1,0.008268,0.025591,0,0,90.0*
1,1,0.008268,0.008662,0.004134*
1,1,0.008268,0.008662,-0.004134*
1,1,0.008268,-0.008662,-0.004134*
1,1,0.008268,-0.008662,0.004134*
%
%ADD17ROUNDEDRECTD17*%
%TA.AperFunction,ConnectorPad*%
%ADD18R,0.141732X0.050000*%
%ADD19R,0.165354X0.053150*%
%TA.AperFunction,SMDPad,CuDef*%
%ADD20R,0.035433X0.031496*%
%ADD21R,0.031496X0.035433*%
%ADD22R,0.023622X0.031496*%
%ADD23R,0.066929X0.031890*%
%ADD24R,0.041339X0.031890*%
G04:AMPARAMS|DCode=25|XSize=46.85mil|YSize=15.748mil|CornerRadius=1.968mil|HoleSize=0mil|Usage=FLASHONLY|Rotation=180.000|XOffset=0mil|YOffset=0mil|HoleType=Round|Shape=RoundedRectangle|*
%AMROUNDEDRECTD25*
21,1,0.046850,0.011811,0,0,180.0*
21,1,0.042913,0.015748,0,0,180.0*
1,1,0.003937,-0.021457,0.005906*
1,1,0.003937,0.021457,0.005906*
1,1,0.003937,0.021457,-0.005906*
1,1,0.003937,-0.021457,-0.005906*
%
%ADD25ROUNDEDRECTD25*%
%ADD26R,0.046110X0.013811*%
%ADD27R,0.055118X0.043307*%
G04:AMPARAMS|DCode=28|XSize=47.638mil|YSize=23.228mil|CornerRadius=5.807mil|HoleSize=0mil|Usage=FLASHONLY|Rotation=270.000|XOffset=0mil|YOffset=0mil|HoleType=Round|Shape=RoundedRectangle|*
%AMROUNDEDRECTD28*
21,1,0.047638,0.011614,0,0,270.0*
21,1,0.036024,0.023228,0,0,270.0*
1,1,0.011614,-0.005807,-0.018012*
1,1,0.011614,-0.005807,0.018012*
1,1,0.011614,0.005807,0.018012*
1,1,0.011614,0.005807,-0.018012*
%
%ADD28ROUNDEDRECTD28*%
%ADD29R,0.078740X0.051181*%
%ADD30R,0.078740X0.078740*%
%TA.AperFunction,ComponentPad*%
%ADD36R,0.059055X0.059055*%
%ADD37C,0.059055*%
%TA.AperFunction,WasherPad*%
%ADD38C,0.120000*%
D10*
X2830315Y887874D02*
D03*
Y1880000D02*
D03*
X1424803D02*
D03*
Y887874D02*
D03*
D11*
X2871654Y928228D02*
D03*
Y1839646D02*
D03*
X1379528D02*
D03*
Y928228D02*
D03*
D12*
X2871654Y1159528D02*
D03*
Y1395748D02*
D03*
X1379528D02*
D03*
Y1159528D02*
D03*
D13*
X2871654Y1620158D02*
D03*
X1379528D02*
D03*
D14*
X2600000Y1880000D02*
D03*
X2363780D02*
D03*
X2127559D02*
D03*
X1891339D02*
D03*
X1655118D02*
D03*
Y887874D02*
D03*
X1891339D02*
D03*
X2127559D02*
D03*
X2363780D02*
D03*
X2600000D02*
D03*
D15*
X2495000Y1370000D02*
D03*
D16*
X2456614Y1437913D02*
D03*
X2482205D02*
D03*
X2507795D02*
D03*
X2533386D02*
D03*
Y1302087D02*
D03*
X2507795D02*
D03*
X2482205D02*
D03*
X2456614D02*
D03*
D17*
X2562913Y1408386D02*
D03*
Y1382795D02*
D03*
Y1357205D02*
D03*
Y1331614D02*
D03*
X2427087D02*
D03*
Y1357205D02*
D03*
Y1382795D02*
D03*
Y1408386D02*
D03*
D18*
X3215000Y1345000D02*
D03*
X3212874Y2301220D02*
D03*
D19*
X3207126Y1233780D02*
D03*
Y1456220D02*
D03*
X3205000Y2190000D02*
D03*
Y2412441D02*
D03*
D20*
X1655000Y1235000D02*
D03*
Y1179882D02*
D03*
X1540000Y1292559D02*
D03*
Y1237441D02*
D03*
Y1432559D02*
D03*
Y1377441D02*
D03*
X1655000Y1110118D02*
D03*
Y1055000D02*
D03*
X1535000Y1622441D02*
D03*
Y1677559D02*
D03*
X1657803Y1296494D02*
D03*
X1685000Y1475000D02*
D03*
Y1419882D02*
D03*
X1745000Y1235000D02*
D03*
Y1179882D02*
D03*
X1745000Y1357559D02*
D03*
Y1302441D02*
D03*
X1825000Y1357559D02*
D03*
Y1302441D02*
D03*
X2255000Y1357559D02*
D03*
Y1302441D02*
D03*
X2635000Y1232441D02*
D03*
Y1287559D02*
D03*
X1825000Y1235118D02*
D03*
Y1180000D02*
D03*
X2055000Y1357559D02*
D03*
Y1302441D02*
D03*
X1940000Y2300000D02*
D03*
Y2244882D02*
D03*
X2255000Y2129882D02*
D03*
Y2185000D02*
D03*
X2435000Y2242441D02*
D03*
Y2297559D02*
D03*
D21*
X1530000Y1550000D02*
D03*
X1474882D02*
D03*
X1537441Y1760000D02*
D03*
X1592559D02*
D03*
X1915000Y1360000D02*
D03*
X1970118D02*
D03*
X2307559Y1455000D02*
D03*
X2252441D02*
D03*
X2512559Y1220000D02*
D03*
X2457441D02*
D03*
X2379882Y1500000D02*
D03*
X2435000D02*
D03*
X2177559Y1360000D02*
D03*
X2122441D02*
D03*
X2567559Y2300000D02*
D03*
X2512441D02*
D03*
X2027441Y2165000D02*
D03*
X2082559D02*
D03*
X2082559Y2240000D02*
D03*
X2027441D02*
D03*
X1492559Y2180000D02*
D03*
X1437441D02*
D03*
X2360118Y2300000D02*
D03*
X2305000D02*
D03*
X1665118Y2110000D02*
D03*
X1610000D02*
D03*
D22*
X1612527Y1359486D02*
D03*
X1663709D02*
D03*
X1612527Y1296494D02*
D03*
D23*
X2724528Y2252953D02*
D03*
D24*
X2737323Y2300000D02*
D03*
Y2347047D02*
D03*
X2652677D02*
D03*
Y2300000D02*
D03*
Y2252953D02*
D03*
D25*
X1857795Y2244409D02*
D03*
Y2270000D02*
D03*
Y2295591D02*
D03*
X1782205D02*
D03*
Y2244409D02*
D03*
D26*
X2156811Y2290591D02*
D03*
Y2265000D02*
D03*
Y2239409D02*
D03*
X2233189D02*
D03*
Y2265000D02*
D03*
Y2290591D02*
D03*
D27*
X2340000Y2184528D02*
D03*
Y2125472D02*
D03*
D28*
X1537402Y1995591D02*
D03*
X1462598D02*
D03*
Y2094409D02*
D03*
X1500000D02*
D03*
X1537402D02*
D03*
D29*
X1481260Y2329724D02*
D03*
Y2420276D02*
D03*
D30*
X1638740Y2375000D02*
D03*
D36*
X1152450Y1505000D02*
D03*
X2320000Y2695000D02*
D03*
X1150000Y2100000D02*
D03*
Y2400000D02*
D03*
D37*
X1252450Y1505000D02*
D03*
X2220000Y2695000D02*
D03*
X2120000D02*
D03*
X2020000D02*
D03*
X1920000D02*
D03*
X1820000D02*
D03*
X1250000Y2100000D02*
D03*
Y2400000D02*
D03*
D38*
X1100000Y2700000D02*
D03*
Y900000D02*
D03*
X3200000D02*
D03*
Y2700000D02*
D03*
%TF.MD5,97272593ae1459afa9a343a8de2c563b*%
M02*
