%TF.GenerationSoftware,Altium Limited,Altium Designer,22.6.1 (34)*%
G04 Layer_Color=2752767*
%FSLAX26Y26*%
%MOIN*%
%TF.SameCoordinates,2B337168-DF0E-4336-AB3C-9C7F5D13073F*%
%TF.FilePolarity,Positive*%
%TF.FileFunction,Drawing*%
%TF.Part,Single*%
G01*
G75*
%TA.AperFunction,NonConductor*%
%ADD43C,0.005000*%
%ADD80C,0.006667*%
D43*
X1132450Y1485000D02*
Y1525000D01*
X1172450D01*
Y1485000D01*
X1132450D01*
X1232450D02*
Y1525000D01*
X1272450D01*
Y1485000D01*
X1232450D01*
X2300000Y2675000D02*
Y2715000D01*
X2340000D01*
Y2675000D01*
X2300000D01*
X2200000D02*
Y2715000D01*
X2240000D01*
Y2675000D01*
X2200000D01*
X2100000D02*
Y2715000D01*
X2140000D01*
Y2675000D01*
X2100000D01*
X2000000D02*
Y2715000D01*
X2040000D01*
Y2675000D01*
X2000000D01*
X1900000D02*
Y2715000D01*
X1940000D01*
Y2675000D01*
X1900000D01*
X1800000D02*
Y2715000D01*
X1840000D01*
Y2675000D01*
X1800000D01*
X1130000Y2080000D02*
Y2120000D01*
X1170000D01*
Y2080000D01*
X1130000D01*
X1230000D02*
Y2120000D01*
X1270000D01*
Y2080000D01*
X1230000D01*
X1130000Y2380000D02*
Y2420000D01*
X1170000D01*
Y2380000D01*
X1130000D01*
X1230000D02*
Y2420000D01*
X1270000D01*
Y2380000D01*
X1230000D01*
X2585000Y1915000D02*
X2595000Y1935000D01*
X2585000Y1955000D01*
X2605000Y1945000D01*
X2625000Y1955000D01*
X2615000Y1935000D01*
X2625000Y1915000D01*
X2605000Y1925000D01*
X2585000Y1915000D01*
X2340000D02*
X2350000Y1935000D01*
X2340000Y1955000D01*
X2360000Y1945000D01*
X2380000Y1955000D01*
X2370000Y1935000D01*
X2380000Y1915000D01*
X2360000Y1925000D01*
X2340000Y1915000D01*
X2105000Y1910000D02*
X2115000Y1930000D01*
X2105000Y1950000D01*
X2125000Y1940000D01*
X2145000Y1950000D01*
X2135000Y1930000D01*
X2145000Y1910000D01*
X2125000Y1920000D01*
X2105000Y1910000D01*
X1870000Y1915000D02*
X1880000Y1935000D01*
X1870000Y1955000D01*
X1890000Y1945000D01*
X1910000Y1955000D01*
X1900000Y1935000D01*
X1910000Y1915000D01*
X1890000Y1925000D01*
X1870000Y1915000D01*
X1620000Y1910000D02*
X1630000Y1930000D01*
X1620000Y1950000D01*
X1640000Y1940000D01*
X1660000Y1950000D01*
X1650000Y1930000D01*
X1660000Y1910000D01*
X1640000Y1920000D01*
X1620000Y1910000D01*
X1410000Y1920000D02*
X1420000Y1940000D01*
X1410000Y1960000D01*
X1430000Y1950000D01*
X1450000Y1960000D01*
X1440000Y1940000D01*
X1450000Y1920000D01*
X1430000Y1930000D01*
X1410000Y1920000D01*
X1305000Y1810000D02*
X1315000Y1830000D01*
X1305000Y1850000D01*
X1325000Y1840000D01*
X1345000Y1850000D01*
X1335000Y1830000D01*
X1345000Y1810000D01*
X1325000Y1820000D01*
X1305000Y1810000D01*
X1300000Y1600000D02*
X1310000Y1620000D01*
X1300000Y1640000D01*
X1320000Y1630000D01*
X1340000Y1640000D01*
X1330000Y1620000D01*
X1340000Y1600000D01*
X1320000Y1610000D01*
X1300000Y1600000D01*
X1305000Y1375000D02*
X1315000Y1395000D01*
X1305000Y1415000D01*
X1325000Y1405000D01*
X1345000Y1415000D01*
X1335000Y1395000D01*
X1345000Y1375000D01*
X1325000Y1385000D01*
X1305000Y1375000D01*
X1295000Y1140000D02*
X1305000Y1160000D01*
X1295000Y1180000D01*
X1315000Y1170000D01*
X1335000Y1180000D01*
X1325000Y1160000D01*
X1335000Y1140000D01*
X1315000Y1150000D01*
X1295000Y1140000D01*
Y925000D02*
X1305000Y945000D01*
X1295000Y965000D01*
X1315000Y955000D01*
X1335000Y965000D01*
X1325000Y945000D01*
X1335000Y925000D01*
X1315000Y935000D01*
X1295000Y925000D01*
X1420000Y815000D02*
X1430000Y835000D01*
X1420000Y855000D01*
X1440000Y845000D01*
X1460000Y855000D01*
X1450000Y835000D01*
X1460000Y815000D01*
X1440000Y825000D01*
X1420000Y815000D01*
X1625000Y810000D02*
X1635000Y830000D01*
X1625000Y850000D01*
X1645000Y840000D01*
X1665000Y850000D01*
X1655000Y830000D01*
X1665000Y810000D01*
X1645000Y820000D01*
X1625000Y810000D01*
X1870000D02*
X1880000Y830000D01*
X1870000Y850000D01*
X1890000Y840000D01*
X1910000Y850000D01*
X1900000Y830000D01*
X1910000Y810000D01*
X1890000Y820000D01*
X1870000Y810000D01*
X2110000D02*
X2120000Y830000D01*
X2110000Y850000D01*
X2130000Y840000D01*
X2150000Y850000D01*
X2140000Y830000D01*
X2150000Y810000D01*
X2130000Y820000D01*
X2110000Y810000D01*
X2345000Y815000D02*
X2355000Y835000D01*
X2345000Y855000D01*
X2365000Y845000D01*
X2385000Y855000D01*
X2375000Y835000D01*
X2385000Y815000D01*
X2365000Y825000D01*
X2345000Y815000D01*
X2580000D02*
X2590000Y835000D01*
X2580000Y855000D01*
X2600000Y845000D01*
X2620000Y855000D01*
X2610000Y835000D01*
X2620000Y815000D01*
X2600000Y825000D01*
X2580000Y815000D01*
X2810000Y810000D02*
X2820000Y830000D01*
X2810000Y850000D01*
X2830000Y840000D01*
X2850000Y850000D01*
X2840000Y830000D01*
X2850000Y810000D01*
X2830000Y820000D01*
X2810000Y810000D01*
X2925000Y855000D02*
X2935000Y875000D01*
X2925000Y895000D01*
X2945000Y885000D01*
X2965000Y895000D01*
X2955000Y875000D01*
X2965000Y855000D01*
X2945000Y865000D01*
X2925000Y855000D01*
Y915000D02*
X2935000Y935000D01*
X2925000Y955000D01*
X2945000Y945000D01*
X2965000Y955000D01*
X2955000Y935000D01*
X2965000Y915000D01*
X2945000Y925000D01*
X2925000Y915000D01*
X2910000Y1135000D02*
X2920000Y1155000D01*
X2910000Y1175000D01*
X2930000Y1165000D01*
X2950000Y1175000D01*
X2940000Y1155000D01*
X2950000Y1135000D01*
X2930000Y1145000D01*
X2910000Y1135000D01*
Y1380000D02*
X2920000Y1400000D01*
X2910000Y1420000D01*
X2930000Y1410000D01*
X2950000Y1420000D01*
X2940000Y1400000D01*
X2950000Y1380000D01*
X2930000Y1390000D01*
X2910000Y1380000D01*
X2920000Y1595000D02*
X2930000Y1615000D01*
X2920000Y1635000D01*
X2940000Y1625000D01*
X2960000Y1635000D01*
X2950000Y1615000D01*
X2960000Y1595000D01*
X2940000Y1605000D01*
X2920000Y1595000D01*
Y1820000D02*
X2930000Y1840000D01*
X2920000Y1860000D01*
X2940000Y1850000D01*
X2960000Y1860000D01*
X2950000Y1840000D01*
X2960000Y1820000D01*
X2940000Y1830000D01*
X2920000Y1820000D01*
X2820000Y1920000D02*
X2830000Y1940000D01*
X2820000Y1960000D01*
X2840000Y1950000D01*
X2860000Y1960000D01*
X2850000Y1940000D01*
X2860000Y1920000D01*
X2840000Y1930000D01*
X2820000Y1920000D01*
X2580000Y925000D02*
X2590000Y945000D01*
X2580000Y965000D01*
X2600000Y955000D01*
X2620000Y965000D01*
X2610000Y945000D01*
X2620000Y925000D01*
X2600000Y935000D01*
X2580000Y925000D01*
X2345000D02*
X2355000Y945000D01*
X2345000Y965000D01*
X2365000Y955000D01*
X2385000Y965000D01*
X2375000Y945000D01*
X2385000Y925000D01*
X2365000Y935000D01*
X2345000Y925000D01*
X2110000Y930000D02*
X2120000Y950000D01*
X2110000Y970000D01*
X2130000Y960000D01*
X2150000Y970000D01*
X2140000Y950000D01*
X2150000Y930000D01*
X2130000Y940000D01*
X2110000Y930000D01*
X1870000D02*
X1880000Y950000D01*
X1870000Y970000D01*
X1890000Y960000D01*
X1910000Y970000D01*
X1900000Y950000D01*
X1910000Y930000D01*
X1890000Y940000D01*
X1870000Y930000D01*
X1630000D02*
X1640000Y950000D01*
X1630000Y970000D01*
X1650000Y960000D01*
X1670000Y970000D01*
X1660000Y950000D01*
X1670000Y930000D01*
X1650000Y940000D01*
X1630000Y930000D01*
X1425000Y935000D02*
X1435000Y955000D01*
X1425000Y975000D01*
X1445000Y965000D01*
X1465000Y975000D01*
X1455000Y955000D01*
X1465000Y935000D01*
X1445000Y945000D01*
X1425000Y935000D01*
X1415000Y1145000D02*
X1425000Y1165000D01*
X1415000Y1185000D01*
X1435000Y1175000D01*
X1455000Y1185000D01*
X1445000Y1165000D01*
X1455000Y1145000D01*
X1435000Y1155000D01*
X1415000Y1145000D01*
X1420000Y1375000D02*
X1430000Y1395000D01*
X1420000Y1415000D01*
X1440000Y1405000D01*
X1460000Y1415000D01*
X1450000Y1395000D01*
X1460000Y1375000D01*
X1440000Y1385000D01*
X1420000Y1375000D01*
X1430000Y1605000D02*
X1440000Y1625000D01*
X1430000Y1645000D01*
X1450000Y1635000D01*
X1470000Y1645000D01*
X1460000Y1625000D01*
X1470000Y1605000D01*
X1450000Y1615000D01*
X1430000Y1605000D01*
X1435000Y1800000D02*
X1445000Y1820000D01*
X1435000Y1840000D01*
X1455000Y1830000D01*
X1475000Y1840000D01*
X1465000Y1820000D01*
X1475000Y1800000D01*
X1455000Y1810000D01*
X1435000Y1800000D01*
X1630000Y1805000D02*
X1640000Y1825000D01*
X1630000Y1845000D01*
X1650000Y1835000D01*
X1670000Y1845000D01*
X1660000Y1825000D01*
X1670000Y1805000D01*
X1650000Y1815000D01*
X1630000Y1805000D01*
X1870000Y1795000D02*
X1880000Y1815000D01*
X1870000Y1835000D01*
X1890000Y1825000D01*
X1910000Y1835000D01*
X1900000Y1815000D01*
X1910000Y1795000D01*
X1890000Y1805000D01*
X1870000Y1795000D01*
X2110000D02*
X2120000Y1815000D01*
X2110000Y1835000D01*
X2130000Y1825000D01*
X2150000Y1835000D01*
X2140000Y1815000D01*
X2150000Y1795000D01*
X2130000Y1805000D01*
X2110000Y1795000D01*
X2345000D02*
X2355000Y1815000D01*
X2345000Y1835000D01*
X2365000Y1825000D01*
X2385000Y1835000D01*
X2375000Y1815000D01*
X2385000Y1795000D01*
X2365000Y1805000D01*
X2345000Y1795000D01*
X2575000D02*
X2585000Y1815000D01*
X2575000Y1835000D01*
X2595000Y1825000D01*
X2615000Y1835000D01*
X2605000Y1815000D01*
X2615000Y1795000D01*
X2595000Y1805000D01*
X2575000Y1795000D01*
X2790000Y1600000D02*
X2800000Y1620000D01*
X2790000Y1640000D01*
X2810000Y1630000D01*
X2830000Y1640000D01*
X2820000Y1620000D01*
X2830000Y1600000D01*
X2810000Y1610000D01*
X2790000Y1600000D01*
Y1410000D02*
X2800000Y1430000D01*
X2790000Y1450000D01*
X2810000Y1440000D01*
X2830000Y1450000D01*
X2820000Y1430000D01*
X2830000Y1410000D01*
X2810000Y1420000D01*
X2790000Y1410000D01*
X2785000Y1135000D02*
X2795000Y1155000D01*
X2785000Y1175000D01*
X2805000Y1165000D01*
X2825000Y1175000D01*
X2815000Y1155000D01*
X2825000Y1135000D01*
X2805000Y1145000D01*
X2785000Y1135000D01*
Y925000D02*
X2795000Y945000D01*
X2785000Y965000D01*
X2805000Y955000D01*
X2825000Y965000D01*
X2815000Y945000D01*
X2825000Y925000D01*
X2805000Y935000D01*
X2785000Y925000D01*
Y1790000D02*
X2795000Y1810000D01*
X2785000Y1830000D01*
X2805000Y1820000D01*
X2825000Y1830000D01*
X2815000Y1810000D01*
X2825000Y1790000D01*
X2805000Y1800000D01*
X2785000Y1790000D01*
X2555000Y1210000D02*
X2565000Y1230000D01*
X2555000Y1250000D01*
X2575000Y1240000D01*
X2595000Y1250000D01*
X2585000Y1230000D01*
X2595000Y1210000D01*
X2575000Y1220000D01*
X2555000Y1210000D01*
X2675000D02*
X2685000Y1230000D01*
X2675000Y1250000D01*
X2695000Y1240000D01*
X2715000Y1250000D01*
X2705000Y1230000D01*
X2715000Y1210000D01*
X2695000Y1220000D01*
X2675000Y1210000D01*
X2615000Y1160000D02*
X2625000Y1180000D01*
X2615000Y1200000D01*
X2635000Y1190000D01*
X2655000Y1200000D01*
X2645000Y1180000D01*
X2655000Y1160000D01*
X2635000Y1170000D01*
X2615000Y1160000D01*
X1481892Y1349761D02*
X1491892Y1369761D01*
X1481892Y1389761D01*
X1501892Y1379761D01*
X1521892Y1389761D01*
X1511892Y1369761D01*
X1521892Y1349761D01*
X1501892Y1359761D01*
X1481892Y1349761D01*
X1482785Y1309771D02*
X1492785Y1329771D01*
X1482785Y1349771D01*
X1502785Y1339771D01*
X1522785Y1349771D01*
X1512785Y1329771D01*
X1522785Y1309771D01*
X1502785Y1319771D01*
X1482785Y1309771D01*
X1481892Y1269781D02*
X1491892Y1289781D01*
X1481892Y1309781D01*
X1501892Y1299781D01*
X1521892Y1309781D01*
X1511892Y1289781D01*
X1521892Y1269781D01*
X1501892Y1279781D01*
X1481892Y1269781D01*
X1583958Y1236096D02*
X1593958Y1256096D01*
X1583958Y1276096D01*
X1603958Y1266096D01*
X1623958Y1276096D01*
X1613958Y1256096D01*
X1623958Y1236096D01*
X1603958Y1246096D01*
X1583958Y1236096D01*
X1562502Y1363973D02*
X1572502Y1383973D01*
X1562502Y1403973D01*
X1582502Y1393973D01*
X1602502Y1403973D01*
X1592502Y1383973D01*
X1602502Y1363973D01*
X1582502Y1373973D01*
X1562502Y1363973D01*
X1560325Y1324033D02*
X1570325Y1344033D01*
X1560325Y1364033D01*
X1580325Y1354033D01*
X1600325Y1364033D01*
X1590325Y1344033D01*
X1600325Y1324033D01*
X1580325Y1334033D01*
X1560325Y1324033D01*
X1690458Y1177785D02*
X1700458Y1197785D01*
X1690458Y1217785D01*
X1710458Y1207785D01*
X1730458Y1217785D01*
X1720458Y1197785D01*
X1730458Y1177785D01*
X1710458Y1187785D01*
X1690458Y1177785D01*
X1763108Y1201569D02*
X1773108Y1221569D01*
X1763108Y1241569D01*
X1783108Y1231569D01*
X1803108Y1241569D01*
X1793108Y1221569D01*
X1803108Y1201569D01*
X1783108Y1211569D01*
X1763108Y1201569D01*
X1759641Y1241418D02*
X1769641Y1261418D01*
X1759641Y1281418D01*
X1779641Y1271418D01*
X1799641Y1281418D01*
X1789641Y1261418D01*
X1799641Y1241418D01*
X1779641Y1251418D01*
X1759641Y1241418D01*
X1612142Y1374074D02*
X1622142Y1394074D01*
X1612142Y1414074D01*
X1632142Y1404074D01*
X1652142Y1414074D01*
X1642142Y1394074D01*
X1652142Y1374074D01*
X1632142Y1384074D01*
X1612142Y1374074D01*
X1626568Y1396061D02*
X1636568Y1416061D01*
X1626568Y1436061D01*
X1646568Y1426061D01*
X1666568Y1436061D01*
X1656568Y1416061D01*
X1666568Y1396061D01*
X1646568Y1406061D01*
X1626568Y1396061D01*
X1768933Y1300344D02*
X1778933Y1320344D01*
X1768933Y1340344D01*
X1788933Y1330344D01*
X1808933Y1340344D01*
X1798933Y1320344D01*
X1808933Y1300344D01*
X1788933Y1310344D01*
X1768933Y1300344D01*
X1848933D02*
X1858933Y1320344D01*
X1848933Y1340344D01*
X1868933Y1330344D01*
X1888933Y1340344D01*
X1878933Y1320344D01*
X1888933Y1300344D01*
X1868933Y1310344D01*
X1848933Y1300344D01*
X1888933D02*
X1898933Y1320344D01*
X1888933Y1340344D01*
X1908933Y1330344D01*
X1928933Y1340344D01*
X1918933Y1320344D01*
X1928933Y1300344D01*
X1908933Y1310344D01*
X1888933Y1300344D01*
X1901668Y1378108D02*
X1911668Y1398108D01*
X1901668Y1418108D01*
X1921668Y1408108D01*
X1941668Y1418108D01*
X1931668Y1398108D01*
X1941668Y1378108D01*
X1921668Y1388108D01*
X1901668Y1378108D01*
X1861807Y1374774D02*
X1871807Y1394774D01*
X1861807Y1414774D01*
X1881807Y1404774D01*
X1901807Y1414774D01*
X1891807Y1394774D01*
X1901807Y1374774D01*
X1881807Y1384774D01*
X1861807Y1374774D01*
X1821807D02*
X1831807Y1394774D01*
X1821807Y1414774D01*
X1841807Y1404774D01*
X1861807Y1414774D01*
X1851807Y1394774D01*
X1861807Y1374774D01*
X1841807Y1384774D01*
X1821807Y1374774D01*
X1781807D02*
X1791807Y1394774D01*
X1781807Y1414774D01*
X1801807Y1404774D01*
X1821807Y1414774D01*
X1811807Y1394774D01*
X1821807Y1374774D01*
X1801807Y1384774D01*
X1781807Y1374774D01*
X1741807D02*
X1751807Y1394774D01*
X1741807Y1414774D01*
X1761807Y1404774D01*
X1781807Y1414774D01*
X1771807Y1394774D01*
X1781807Y1374774D01*
X1761807Y1384774D01*
X1741807Y1374774D01*
X1701975Y1378435D02*
X1711975Y1398435D01*
X1701975Y1418435D01*
X1721975Y1408435D01*
X1741975Y1418435D01*
X1731975Y1398435D01*
X1741975Y1378435D01*
X1721975Y1388435D01*
X1701975Y1378435D01*
X1702551Y1418431D02*
X1712551Y1438431D01*
X1702551Y1458431D01*
X1722551Y1448431D01*
X1742551Y1458431D01*
X1732551Y1438431D01*
X1742551Y1418431D01*
X1722551Y1428431D01*
X1702551Y1418431D01*
X2056288Y1377215D02*
X2066288Y1397215D01*
X2056288Y1417215D01*
X2076288Y1407215D01*
X2096288Y1417215D01*
X2086288Y1397215D01*
X2096288Y1377215D01*
X2076288Y1387215D01*
X2056288Y1377215D01*
X2016288Y1377215D02*
X2026288Y1397215D01*
X2016288Y1417215D01*
X2036288Y1407215D01*
X2056288Y1417215D01*
X2046288Y1397215D01*
X2056288Y1377215D01*
X2036288Y1387215D01*
X2016288Y1377215D01*
X1976288D02*
X1986288Y1397215D01*
X1976288Y1417215D01*
X1996288Y1407215D01*
X2016288Y1417215D01*
X2006288Y1397215D01*
X2016288Y1377215D01*
X1996288Y1387215D01*
X1976288Y1377215D01*
X1936298Y1378108D02*
X1946298Y1398108D01*
X1936298Y1418108D01*
X1956298Y1408108D01*
X1976298Y1418108D01*
X1966298Y1398108D01*
X1976298Y1378108D01*
X1956298Y1388108D01*
X1936298Y1378108D01*
X1922424Y1306212D02*
X1932424Y1326212D01*
X1922424Y1346212D01*
X1942424Y1336212D01*
X1962424Y1346212D01*
X1952424Y1326212D01*
X1962424Y1306212D01*
X1942424Y1316212D01*
X1922424Y1306212D01*
X1962190Y1301892D02*
X1972190Y1321892D01*
X1962190Y1341892D01*
X1982190Y1331892D01*
X2002190Y1341892D01*
X1992190Y1321892D01*
X2002190Y1301892D01*
X1982190Y1311892D01*
X1962190Y1301892D01*
X2002180Y1302785D02*
X2012180Y1322785D01*
X2002180Y1342785D01*
X2022180Y1332785D01*
X2042180Y1342785D01*
X2032180Y1322785D01*
X2042180Y1302785D01*
X2022180Y1312785D01*
X2002180Y1302785D01*
X2082133Y1302785D02*
X2092133Y1322785D01*
X2082133Y1342785D01*
X2102133Y1332785D01*
X2122133Y1342785D01*
X2112133Y1322785D01*
X2122133Y1302785D01*
X2102133Y1312785D01*
X2082133Y1302785D01*
X2105000Y1385000D02*
X2115000Y1405000D01*
X2105000Y1425000D01*
X2125000Y1415000D01*
X2145000Y1425000D01*
X2135000Y1405000D01*
X2145000Y1385000D01*
X2125000Y1395000D01*
X2105000Y1385000D01*
X2130981Y1305466D02*
X2140981Y1325466D01*
X2130981Y1345466D01*
X2150981Y1335466D01*
X2170981Y1345466D01*
X2160981Y1325466D01*
X2170981Y1305466D01*
X2150981Y1315466D01*
X2130981Y1305466D01*
X2170820Y1301892D02*
X2180820Y1321892D01*
X2170820Y1341892D01*
X2190820Y1331892D01*
X2210820Y1341892D01*
X2200820Y1321892D01*
X2210820Y1301892D01*
X2190820Y1311892D01*
X2170820Y1301892D01*
X2290742Y1300344D02*
X2300742Y1320344D01*
X2290742Y1340344D01*
X2310742Y1330344D01*
X2330742Y1340344D01*
X2320742Y1320344D01*
X2330742Y1300344D01*
X2310742Y1310344D01*
X2290742Y1300344D01*
X2330742D02*
X2340742Y1320344D01*
X2330742Y1340344D01*
X2350742Y1330344D01*
X2370742Y1340344D01*
X2360742Y1320344D01*
X2370742Y1300344D01*
X2350742Y1310344D01*
X2330742Y1300344D01*
X2370742D02*
X2380742Y1320344D01*
X2370742Y1340344D01*
X2390742Y1330344D01*
X2410742Y1340344D01*
X2400742Y1320344D01*
X2410742Y1300344D01*
X2390742Y1310344D01*
X2370742Y1300344D01*
X2337723Y1374774D02*
X2347723Y1394774D01*
X2337723Y1414774D01*
X2357723Y1404774D01*
X2377723Y1414774D01*
X2367723Y1394774D01*
X2377723Y1374774D01*
X2357723Y1384774D01*
X2337723Y1374774D01*
X2297723D02*
X2307723Y1394774D01*
X2297723Y1414774D01*
X2317723Y1404774D01*
X2337723Y1414774D01*
X2327723Y1394774D01*
X2337723Y1374774D01*
X2317723Y1384774D01*
X2297723Y1374774D01*
X2257723D02*
X2267723Y1394774D01*
X2257723Y1414774D01*
X2277723Y1404774D01*
X2297723Y1414774D01*
X2287723Y1394774D01*
X2297723Y1374774D01*
X2277723Y1384774D01*
X2257723Y1374774D01*
X2217798Y1377215D02*
X2227798Y1397215D01*
X2217798Y1417215D01*
X2237798Y1407215D01*
X2257798Y1417215D01*
X2247798Y1397215D01*
X2257798Y1377215D01*
X2237798Y1387215D01*
X2217798Y1377215D01*
X2140000Y1385000D02*
X2150000Y1405000D01*
X2140000Y1425000D01*
X2160000Y1415000D01*
X2180000Y1425000D01*
X2170000Y1405000D01*
X2180000Y1385000D01*
X2160000Y1395000D01*
X2140000Y1385000D01*
X2629407Y1427215D02*
X2639407Y1447215D01*
X2629407Y1467215D01*
X2649407Y1457215D01*
X2669407Y1467215D01*
X2659407Y1447215D01*
X2669407Y1427215D01*
X2649407Y1437215D01*
X2629407Y1427215D01*
X2589407D02*
X2599407Y1447215D01*
X2589407Y1467215D01*
X2609407Y1457215D01*
X2629407Y1467215D01*
X2619407Y1447215D01*
X2629407Y1427215D01*
X2609407Y1437215D01*
X2589407Y1427215D01*
X2549647Y1422840D02*
X2559647Y1442840D01*
X2549647Y1462840D01*
X2569647Y1452840D01*
X2589647Y1462840D01*
X2579647Y1442840D01*
X2589647Y1422840D01*
X2569647Y1432840D01*
X2549647Y1422840D01*
X2636363Y1352785D02*
X2646363Y1372785D01*
X2636363Y1392785D01*
X2656363Y1382785D01*
X2676363Y1392785D01*
X2666363Y1372785D01*
X2676363Y1352785D01*
X2656363Y1362785D01*
X2636363Y1352785D01*
X2673164Y1337111D02*
X2683164Y1357111D01*
X2673164Y1377111D01*
X2693164Y1367111D01*
X2713164Y1377111D01*
X2703164Y1357111D01*
X2713164Y1337111D01*
X2693164Y1347111D01*
X2673164Y1337111D01*
X2701448Y1308827D02*
X2711448Y1328827D01*
X2701448Y1348827D01*
X2721448Y1338827D01*
X2741448Y1348827D01*
X2731448Y1328827D01*
X2741448Y1308827D01*
X2721448Y1318827D01*
X2701448Y1308827D01*
X2729733Y1280543D02*
X2739733Y1300543D01*
X2729733Y1320543D01*
X2749733Y1310543D01*
X2769733Y1320543D01*
X2759733Y1300543D01*
X2769733Y1280543D01*
X2749733Y1290543D01*
X2729733Y1280543D01*
X2758017Y1252259D02*
X2768017Y1272259D01*
X2758017Y1292259D01*
X2778017Y1282259D01*
X2798017Y1292259D01*
X2788017Y1272259D01*
X2798017Y1252259D01*
X2778017Y1262259D01*
X2758017Y1252259D01*
X2786947Y1224635D02*
X2796947Y1244635D01*
X2786947Y1264635D01*
X2806947Y1254635D01*
X2826947Y1264635D01*
X2816947Y1244635D01*
X2826947Y1224635D01*
X2806947Y1234635D01*
X2786947Y1224635D01*
X2906356Y1217785D02*
X2916356Y1237785D01*
X2906356Y1257785D01*
X2926356Y1247785D01*
X2946356Y1257785D01*
X2936356Y1237785D01*
X2946356Y1217785D01*
X2926356Y1227785D01*
X2906356Y1217785D01*
X2946356Y1217897D02*
X2956356Y1237897D01*
X2946356Y1257897D01*
X2966356Y1247897D01*
X2986356Y1257897D01*
X2976356Y1237897D01*
X2986356Y1217897D01*
X2966356Y1227897D01*
X2946356Y1217897D01*
X2981115Y1237691D02*
X2991115Y1257691D01*
X2981115Y1277691D01*
X3001115Y1267691D01*
X3021115Y1277691D01*
X3011115Y1257691D01*
X3021115Y1237691D01*
X3001115Y1247691D01*
X2981115Y1237691D01*
X3009399Y1265975D02*
X3019399Y1285975D01*
X3009399Y1305975D01*
X3029399Y1295975D01*
X3049399Y1305975D01*
X3039399Y1285975D01*
X3049399Y1265975D01*
X3029399Y1275975D01*
X3009399Y1265975D01*
X3042930Y1287785D02*
X3052930Y1307785D01*
X3042930Y1327785D01*
X3062930Y1317785D01*
X3082930Y1327785D01*
X3072930Y1307785D01*
X3082930Y1287785D01*
X3062930Y1297785D01*
X3042930Y1287785D01*
X3082930D02*
X3092930Y1307785D01*
X3082930Y1327785D01*
X3102930Y1317785D01*
X3122930Y1327785D01*
X3112930Y1307785D01*
X3122930Y1287785D01*
X3102930Y1297785D01*
X3082930Y1287785D01*
X3122165Y1280000D02*
X3132165Y1300000D01*
X3122165Y1320000D01*
X3142165Y1310000D01*
X3162165Y1320000D01*
X3152165Y1300000D01*
X3162165Y1280000D01*
X3142165Y1290000D01*
X3122165Y1280000D01*
X3162163Y1279608D02*
X3172163Y1299608D01*
X3162163Y1319608D01*
X3182163Y1309608D01*
X3202163Y1319608D01*
X3192163Y1299608D01*
X3202163Y1279608D01*
X3182163Y1289608D01*
X3162163Y1279608D01*
X3202163D02*
X3212163Y1299608D01*
X3202163Y1319608D01*
X3222163Y1309608D01*
X3242163Y1319608D01*
X3232163Y1299608D01*
X3242163Y1279608D01*
X3222163Y1289608D01*
X3202163Y1279608D01*
X3242163D02*
X3252163Y1299608D01*
X3242163Y1319608D01*
X3262163Y1309608D01*
X3282163Y1319608D01*
X3272163Y1299608D01*
X3282163Y1279608D01*
X3262163Y1289608D01*
X3242163Y1279608D01*
X3238030Y1370392D02*
X3248030Y1390392D01*
X3238030Y1410392D01*
X3258030Y1400392D01*
X3278030Y1410392D01*
X3268030Y1390392D01*
X3278030Y1370392D01*
X3258030Y1380392D01*
X3238030Y1370392D01*
X3198030D02*
X3208030Y1390392D01*
X3198030Y1410392D01*
X3218030Y1400392D01*
X3238030Y1410392D01*
X3228030Y1390392D01*
X3238030Y1370392D01*
X3218030Y1380392D01*
X3198030Y1370392D01*
X3158030D02*
X3168030Y1390392D01*
X3158030Y1410392D01*
X3178030Y1400392D01*
X3198030Y1410392D01*
X3188030Y1390392D01*
X3198030Y1370392D01*
X3178030Y1380392D01*
X3158030Y1370392D01*
X3118049Y1369181D02*
X3128049Y1389181D01*
X3118049Y1409181D01*
X3138049Y1399181D01*
X3158049Y1409181D01*
X3148049Y1389181D01*
X3158049Y1369181D01*
X3138049Y1379181D01*
X3118049Y1369181D01*
X3078660Y1362215D02*
X3088660Y1382215D01*
X3078660Y1402215D01*
X3098660Y1392215D01*
X3118660Y1402215D01*
X3108660Y1382215D01*
X3118660Y1362215D01*
X3098660Y1372215D01*
X3078660Y1362215D01*
X3038660D02*
X3048660Y1382215D01*
X3038660Y1402215D01*
X3058660Y1392215D01*
X3078660Y1402215D01*
X3068660Y1382215D01*
X3078660Y1362215D01*
X3058660Y1372215D01*
X3038660Y1362215D01*
X2998898Y1357859D02*
X3008898Y1377859D01*
X2998898Y1397859D01*
X3018898Y1387859D01*
X3038898Y1397859D01*
X3028898Y1377859D01*
X3038898Y1357859D01*
X3018898Y1367859D01*
X2998898Y1357859D01*
X2969212Y1331049D02*
X2979212Y1351049D01*
X2969212Y1371049D01*
X2989212Y1361049D01*
X3009212Y1371049D01*
X2999212Y1351049D01*
X3009212Y1331049D01*
X2989212Y1341049D01*
X2969212Y1331049D01*
X2940928Y1302765D02*
X2950928Y1322765D01*
X2940928Y1342765D01*
X2960928Y1332765D01*
X2980928Y1342765D01*
X2970928Y1322765D01*
X2980928Y1302765D01*
X2960928Y1312765D01*
X2940928Y1302765D01*
X2902344Y1292215D02*
X2912344Y1312215D01*
X2902344Y1332215D01*
X2922344Y1322215D01*
X2942344Y1332215D01*
X2932344Y1312215D01*
X2942344Y1292215D01*
X2922344Y1302215D01*
X2902344Y1292215D01*
X2862344D02*
X2872344Y1312215D01*
X2862344Y1332215D01*
X2882344Y1322215D01*
X2902344Y1332215D01*
X2892344Y1312215D01*
X2902344Y1292215D01*
X2882344Y1302215D01*
X2862344Y1292215D01*
X2822356Y1293180D02*
X2832356Y1313180D01*
X2822356Y1333180D01*
X2842356Y1323180D01*
X2862356Y1333180D01*
X2852356Y1313180D01*
X2862356Y1293180D01*
X2842356Y1303180D01*
X2822356Y1293180D01*
X2794072Y1321464D02*
X2804072Y1341464D01*
X2794072Y1361464D01*
X2814072Y1351464D01*
X2834072Y1361464D01*
X2824072Y1341464D01*
X2834072Y1321464D01*
X2814072Y1331464D01*
X2794072Y1321464D01*
X2765787Y1349748D02*
X2775787Y1369748D01*
X2765787Y1389748D01*
X2785787Y1379748D01*
X2805787Y1389748D01*
X2795787Y1369748D01*
X2805787Y1349748D01*
X2785787Y1359748D01*
X2765787Y1349748D01*
X2737503Y1378033D02*
X2747503Y1398033D01*
X2737503Y1418033D01*
X2757503Y1408033D01*
X2777503Y1418033D01*
X2767503Y1398033D01*
X2777503Y1378033D01*
X2757503Y1388033D01*
X2737503Y1378033D01*
X2709219Y1406317D02*
X2719219Y1426317D01*
X2709219Y1446317D01*
X2729219Y1436317D01*
X2749219Y1446317D01*
X2739219Y1426317D01*
X2749219Y1406317D01*
X2729219Y1416317D01*
X2709219Y1406317D01*
X2674875Y1426823D02*
X2684875Y1446823D01*
X2674875Y1466823D01*
X2694875Y1456823D01*
X2714875Y1466823D01*
X2704875Y1446823D01*
X2714875Y1426823D01*
X2694875Y1436823D01*
X2674875Y1426823D01*
X3222734Y2326612D02*
X3232734Y2346612D01*
X3222734Y2366612D01*
X3242734Y2356612D01*
X3262734Y2366612D01*
X3252734Y2346612D01*
X3262734Y2326612D01*
X3242734Y2336612D01*
X3222734Y2326612D01*
X3182734D02*
X3192734Y2346612D01*
X3182734Y2366612D01*
X3202734Y2356612D01*
X3222734Y2366612D01*
X3212734Y2346612D01*
X3222734Y2326612D01*
X3202734Y2336612D01*
X3182734Y2326612D01*
X3142734D02*
X3152734Y2346612D01*
X3142734Y2366612D01*
X3162734Y2356612D01*
X3182734Y2366612D01*
X3172734Y2346612D01*
X3182734Y2326612D01*
X3162734Y2336612D01*
X3142734Y2326612D01*
X3103853Y2317215D02*
X3113853Y2337215D01*
X3103853Y2357215D01*
X3123853Y2347215D01*
X3143853Y2357215D01*
X3133853Y2337215D01*
X3143853Y2317215D01*
X3123853Y2327215D01*
X3103853Y2317215D01*
X3063853D02*
X3073853Y2337215D01*
X3063853Y2357215D01*
X3083853Y2347215D01*
X3103853Y2357215D01*
X3093853Y2337215D01*
X3103853Y2317215D01*
X3083853Y2327215D01*
X3063853Y2317215D01*
X3023853D02*
X3033853Y2337215D01*
X3023853Y2357215D01*
X3043853Y2347215D01*
X3063853Y2357215D01*
X3053853Y2337215D01*
X3063853Y2317215D01*
X3043853Y2327215D01*
X3023853Y2317215D01*
X2983853D02*
X2993853Y2337215D01*
X2983853Y2357215D01*
X3003853Y2347215D01*
X3023853Y2357215D01*
X3013853Y2337215D01*
X3023853Y2317215D01*
X3003853Y2327215D01*
X2983853Y2317215D01*
X2943853D02*
X2953853Y2337215D01*
X2943853Y2357215D01*
X2963853Y2347215D01*
X2983853Y2357215D01*
X2973853Y2337215D01*
X2983853Y2317215D01*
X2963853Y2327215D01*
X2943853Y2317215D01*
X2903853D02*
X2913853Y2337215D01*
X2903853Y2357215D01*
X2923853Y2347215D01*
X2943853Y2357215D01*
X2933853Y2337215D01*
X2943853Y2317215D01*
X2923853Y2327215D01*
X2903853Y2317215D01*
X2863853D02*
X2873853Y2337215D01*
X2863853Y2357215D01*
X2883853Y2347215D01*
X2903853Y2357215D01*
X2893853Y2337215D01*
X2903853Y2317215D01*
X2883853Y2327215D01*
X2863853Y2317215D01*
X2823853D02*
X2833853Y2337215D01*
X2823853Y2357215D01*
X2843853Y2347215D01*
X2863853Y2357215D01*
X2853853Y2337215D01*
X2863853Y2317215D01*
X2843853Y2327215D01*
X2823853Y2317215D01*
X2783853D02*
X2793853Y2337215D01*
X2783853Y2357215D01*
X2803853Y2347215D01*
X2823853Y2357215D01*
X2813853Y2337215D01*
X2823853Y2317215D01*
X2803853Y2327215D01*
X2783853Y2317215D01*
X2763992Y2242785D02*
X2773992Y2262785D01*
X2763992Y2282785D01*
X2783992Y2272785D01*
X2803992Y2282785D01*
X2793992Y2262785D01*
X2803992Y2242785D01*
X2783992Y2252785D01*
X2763992Y2242785D01*
X2803992D02*
X2813992Y2262785D01*
X2803992Y2282785D01*
X2823992Y2272785D01*
X2843992Y2282785D01*
X2833992Y2262785D01*
X2843992Y2242785D01*
X2823992Y2252785D01*
X2803992Y2242785D01*
X2843992D02*
X2853992Y2262785D01*
X2843992Y2282785D01*
X2863992Y2272785D01*
X2883992Y2282785D01*
X2873992Y2262785D01*
X2883992Y2242785D01*
X2863992Y2252785D01*
X2843992Y2242785D01*
X2883992D02*
X2893992Y2262785D01*
X2883992Y2282785D01*
X2903992Y2272785D01*
X2923992Y2282785D01*
X2913992Y2262785D01*
X2923992Y2242785D01*
X2903992Y2252785D01*
X2883992Y2242785D01*
X2923992D02*
X2933992Y2262785D01*
X2923992Y2282785D01*
X2943992Y2272785D01*
X2963992Y2282785D01*
X2953992Y2262785D01*
X2963992Y2242785D01*
X2943992Y2252785D01*
X2923992Y2242785D01*
X2963992D02*
X2973992Y2262785D01*
X2963992Y2282785D01*
X2983992Y2272785D01*
X3003992Y2282785D01*
X2993992Y2262785D01*
X3003992Y2242785D01*
X2983992Y2252785D01*
X2963992Y2242785D01*
X3003992D02*
X3013992Y2262785D01*
X3003992Y2282785D01*
X3023992Y2272785D01*
X3043992Y2282785D01*
X3033992Y2262785D01*
X3043992Y2242785D01*
X3023992Y2252785D01*
X3003992Y2242785D01*
X3043992D02*
X3053992Y2262785D01*
X3043992Y2282785D01*
X3063992Y2272785D01*
X3083992Y2282785D01*
X3073992Y2262785D01*
X3083992Y2242785D01*
X3063992Y2252785D01*
X3043992Y2242785D01*
X3083992D02*
X3093992Y2262785D01*
X3083992Y2282785D01*
X3103992Y2272785D01*
X3123992Y2282785D01*
X3113992Y2262785D01*
X3123992Y2242785D01*
X3103992Y2252785D01*
X3083992Y2242785D01*
X3123382Y2235829D02*
X3133382Y2255829D01*
X3123382Y2275829D01*
X3143382Y2265829D01*
X3163382Y2275829D01*
X3153382Y2255829D01*
X3163382Y2235829D01*
X3143382Y2245829D01*
X3123382Y2235829D01*
X3163382D02*
X3173382Y2255829D01*
X3163382Y2275829D01*
X3183382Y2265829D01*
X3203382Y2275829D01*
X3193382Y2255829D01*
X3203382Y2235829D01*
X3183382Y2245829D01*
X3163382Y2235829D01*
X3203382D02*
X3213382Y2255829D01*
X3203382Y2275829D01*
X3223382Y2265829D01*
X3243382Y2275829D01*
X3233382Y2255829D01*
X3243382Y2235829D01*
X3223382Y2245829D01*
X3203382Y2235829D01*
X3243382D02*
X3253382Y2255829D01*
X3243382Y2275829D01*
X3263382Y2265829D01*
X3283382Y2275829D01*
X3273382Y2255829D01*
X3283382Y2235829D01*
X3263382Y2245829D01*
X3243382Y2235829D01*
X1685000Y1040000D02*
X1695000Y1060000D01*
X1685000Y1080000D01*
X1705000Y1070000D01*
X1725000Y1080000D01*
X1715000Y1060000D01*
X1725000Y1040000D01*
X1705000Y1050000D01*
X1685000Y1040000D01*
X1510000Y1175000D02*
X1520000Y1195000D01*
X1510000Y1215000D01*
X1530000Y1205000D01*
X1550000Y1215000D01*
X1540000Y1195000D01*
X1550000Y1175000D01*
X1530000Y1185000D01*
X1510000Y1175000D01*
X1580000Y1215000D02*
X1590000Y1235000D01*
X1580000Y1255000D01*
X1600000Y1245000D01*
X1620000Y1255000D01*
X1610000Y1235000D01*
X1620000Y1215000D01*
X1600000Y1225000D01*
X1580000Y1215000D01*
X1585000Y995000D02*
X1595000Y1015000D01*
X1585000Y1035000D01*
X1605000Y1025000D01*
X1625000Y1035000D01*
X1615000Y1015000D01*
X1625000Y995000D01*
X1605000Y1005000D01*
X1585000Y995000D01*
Y1040000D02*
X1595000Y1060000D01*
X1585000Y1080000D01*
X1605000Y1070000D01*
X1625000Y1080000D01*
X1615000Y1060000D01*
X1625000Y1040000D01*
X1605000Y1050000D01*
X1585000Y1040000D01*
X1635000Y990000D02*
X1645000Y1010000D01*
X1635000Y1030000D01*
X1655000Y1020000D01*
X1675000Y1030000D01*
X1665000Y1010000D01*
X1675000Y990000D01*
X1655000Y1000000D01*
X1635000Y990000D01*
X1685000D02*
X1695000Y1010000D01*
X1685000Y1030000D01*
X1705000Y1020000D01*
X1725000Y1030000D01*
X1715000Y1010000D01*
X1725000Y990000D01*
X1705000Y1000000D01*
X1685000Y990000D01*
X1735000Y1060000D02*
X1745000Y1080000D01*
X1735000Y1100000D01*
X1755000Y1090000D01*
X1775000Y1100000D01*
X1765000Y1080000D01*
X1775000Y1060000D01*
X1755000Y1070000D01*
X1735000Y1060000D01*
X1800000D02*
X1810000Y1080000D01*
X1800000Y1100000D01*
X1820000Y1090000D01*
X1840000Y1100000D01*
X1830000Y1080000D01*
X1840000Y1060000D01*
X1820000Y1070000D01*
X1800000Y1060000D01*
X1715000Y1100000D02*
X1725000Y1120000D01*
X1715000Y1140000D01*
X1735000Y1130000D01*
X1755000Y1140000D01*
X1745000Y1120000D01*
X1755000Y1100000D01*
X1735000Y1110000D01*
X1715000Y1100000D01*
X1830000D02*
X1840000Y1120000D01*
X1830000Y1140000D01*
X1850000Y1130000D01*
X1870000Y1140000D01*
X1860000Y1120000D01*
X1870000Y1100000D01*
X1850000Y1110000D01*
X1830000Y1100000D01*
X1770000D02*
X1780000Y1120000D01*
X1770000Y1140000D01*
X1790000Y1130000D01*
X1810000Y1140000D01*
X1800000Y1120000D01*
X1810000Y1100000D01*
X1790000Y1110000D01*
X1770000Y1100000D01*
X1865000Y1160000D02*
X1875000Y1180000D01*
X1865000Y1200000D01*
X1885000Y1190000D01*
X1905000Y1200000D01*
X1895000Y1180000D01*
X1905000Y1160000D01*
X1885000Y1170000D01*
X1865000Y1160000D01*
X2035000Y1230000D02*
X2045000Y1250000D01*
X2035000Y1270000D01*
X2055000Y1260000D01*
X2075000Y1270000D01*
X2065000Y1250000D01*
X2075000Y1230000D01*
X2055000Y1240000D01*
X2035000Y1230000D01*
X2230000D02*
X2240000Y1250000D01*
X2230000Y1270000D01*
X2250000Y1260000D01*
X2270000Y1270000D01*
X2260000Y1250000D01*
X2270000Y1230000D01*
X2250000Y1240000D01*
X2230000Y1230000D01*
X1980000Y1275000D02*
X1990000Y1295000D01*
X1980000Y1315000D01*
X2000000Y1305000D01*
X2020000Y1315000D01*
X2010000Y1295000D01*
X2020000Y1275000D01*
X2000000Y1285000D01*
X1980000Y1275000D01*
X2100000D02*
X2110000Y1295000D01*
X2100000Y1315000D01*
X2120000Y1305000D01*
X2140000Y1315000D01*
X2130000Y1295000D01*
X2140000Y1275000D01*
X2120000Y1285000D01*
X2100000Y1275000D01*
X2165000D02*
X2175000Y1295000D01*
X2165000Y1315000D01*
X2185000Y1305000D01*
X2205000Y1315000D01*
X2195000Y1295000D01*
X2205000Y1275000D01*
X2185000Y1285000D01*
X2165000Y1275000D01*
X1640000Y1740000D02*
X1650000Y1760000D01*
X1640000Y1780000D01*
X1660000Y1770000D01*
X1680000Y1780000D01*
X1670000Y1760000D01*
X1680000Y1740000D01*
X1660000Y1750000D01*
X1640000Y1740000D01*
X2310000Y1210000D02*
X2320000Y1230000D01*
X2310000Y1250000D01*
X2330000Y1240000D01*
X2350000Y1250000D01*
X2340000Y1230000D01*
X2350000Y1210000D01*
X2330000Y1220000D01*
X2310000Y1210000D01*
X2359882Y1431653D02*
X2369882Y1451653D01*
X2359882Y1471653D01*
X2379882Y1461653D01*
X2399882Y1471653D01*
X2389882Y1451653D01*
X2399882Y1431653D01*
X2379882Y1441653D01*
X2359882Y1431653D01*
X2370000Y1245000D02*
X2380000Y1265000D01*
X2370000Y1285000D01*
X2390000Y1275000D01*
X2410000Y1285000D01*
X2400000Y1265000D01*
X2410000Y1245000D01*
X2390000Y1255000D01*
X2370000Y1245000D01*
X2496653Y1328347D02*
X2506653Y1348347D01*
X2496653Y1368347D01*
X2516653Y1358347D01*
X2536653Y1368347D01*
X2526653Y1348347D01*
X2536653Y1328347D01*
X2516653Y1338347D01*
X2496653Y1328347D01*
X2453346D02*
X2463346Y1348347D01*
X2453346Y1368347D01*
X2473346Y1358347D01*
X2493346Y1368347D01*
X2483346Y1348347D01*
X2493346Y1328347D01*
X2473346Y1338347D01*
X2453346Y1328347D01*
X2496653Y1371654D02*
X2506653Y1391654D01*
X2496653Y1411654D01*
X2516653Y1401654D01*
X2536653Y1411654D01*
X2526653Y1391654D01*
X2536653Y1371654D01*
X2516653Y1381654D01*
X2496653Y1371654D01*
X2453346D02*
X2463346Y1391654D01*
X2453346Y1411654D01*
X2473346Y1401654D01*
X2493346Y1411654D01*
X2483346Y1391654D01*
X2493346Y1371654D01*
X2473346Y1381654D01*
X2453346Y1371654D01*
X2490000Y1235000D02*
X2500000Y1255000D01*
X2490000Y1275000D01*
X2510000Y1265000D01*
X2530000Y1275000D01*
X2520000Y1255000D01*
X2530000Y1235000D01*
X2510000Y1245000D01*
X2490000Y1235000D01*
X2495000Y1455000D02*
X2505000Y1475000D01*
X2495000Y1495000D01*
X2515000Y1485000D01*
X2535000Y1495000D01*
X2525000Y1475000D01*
X2535000Y1455000D01*
X2515000Y1465000D01*
X2495000Y1455000D01*
X3185000Y1150000D02*
X3195000Y1170000D01*
X3185000Y1190000D01*
X3205000Y1180000D01*
X3225000Y1190000D01*
X3215000Y1170000D01*
X3225000Y1150000D01*
X3205000Y1160000D01*
X3185000Y1150000D01*
X3125000D02*
X3135000Y1170000D01*
X3125000Y1190000D01*
X3145000Y1180000D01*
X3165000Y1190000D01*
X3155000Y1170000D01*
X3165000Y1150000D01*
X3145000Y1160000D01*
X3125000Y1150000D01*
X3250000D02*
X3260000Y1170000D01*
X3250000Y1190000D01*
X3270000Y1180000D01*
X3290000Y1190000D01*
X3280000Y1170000D01*
X3290000Y1150000D01*
X3270000Y1160000D01*
X3250000Y1150000D01*
X3075000Y1170000D02*
X3085000Y1190000D01*
X3075000Y1210000D01*
X3095000Y1200000D01*
X3115000Y1210000D01*
X3105000Y1190000D01*
X3115000Y1170000D01*
X3095000Y1180000D01*
X3075000Y1170000D01*
X3070000Y1225000D02*
X3080000Y1245000D01*
X3070000Y1265000D01*
X3090000Y1255000D01*
X3110000Y1265000D01*
X3100000Y1245000D01*
X3110000Y1225000D01*
X3090000Y1235000D01*
X3070000Y1225000D01*
X2590000Y1340000D02*
X2600000Y1360000D01*
X2590000Y1380000D01*
X2610000Y1370000D01*
X2630000Y1380000D01*
X2620000Y1360000D01*
X2630000Y1340000D01*
X2610000Y1350000D01*
X2590000Y1340000D01*
X3070000Y1410000D02*
X3080000Y1430000D01*
X3070000Y1450000D01*
X3090000Y1440000D01*
X3110000Y1450000D01*
X3100000Y1430000D01*
X3110000Y1410000D01*
X3090000Y1420000D01*
X3070000Y1410000D01*
Y1450000D02*
X3080000Y1470000D01*
X3070000Y1490000D01*
X3090000Y1480000D01*
X3110000Y1490000D01*
X3100000Y1470000D01*
X3110000Y1450000D01*
X3090000Y1460000D01*
X3070000Y1450000D01*
X2570028Y1487956D02*
X2580028Y1507956D01*
X2570028Y1527956D01*
X2590028Y1517956D01*
X2610028Y1527956D01*
X2600028Y1507956D01*
X2610028Y1487956D01*
X2590028Y1497956D01*
X2570028Y1487956D01*
X3125000Y1500000D02*
X3135000Y1520000D01*
X3125000Y1540000D01*
X3145000Y1530000D01*
X3165000Y1540000D01*
X3155000Y1520000D01*
X3165000Y1500000D01*
X3145000Y1510000D01*
X3125000Y1500000D01*
X3185000D02*
X3195000Y1520000D01*
X3185000Y1540000D01*
X3205000Y1530000D01*
X3225000Y1540000D01*
X3215000Y1520000D01*
X3225000Y1500000D01*
X3205000Y1510000D01*
X3185000Y1500000D01*
X3245000D02*
X3255000Y1520000D01*
X3245000Y1540000D01*
X3265000Y1530000D01*
X3285000Y1540000D01*
X3275000Y1520000D01*
X3285000Y1500000D01*
X3265000Y1510000D01*
X3245000Y1500000D01*
X1760000Y2315000D02*
X1770000Y2335000D01*
X1760000Y2355000D01*
X1780000Y2345000D01*
X1800000Y2355000D01*
X1790000Y2335000D01*
X1800000Y2315000D01*
X1780000Y2325000D01*
X1760000Y2315000D01*
X1975000Y2275000D02*
X1985000Y2295000D01*
X1975000Y2315000D01*
X1995000Y2305000D01*
X2015000Y2315000D01*
X2005000Y2295000D01*
X2015000Y2275000D01*
X1995000Y2285000D01*
X1975000Y2275000D01*
X1925000Y2160000D02*
X1935000Y2180000D01*
X1925000Y2200000D01*
X1945000Y2190000D01*
X1965000Y2200000D01*
X1955000Y2180000D01*
X1965000Y2160000D01*
X1945000Y2170000D01*
X1925000Y2160000D01*
X1875000Y2325000D02*
X1885000Y2345000D01*
X1875000Y2365000D01*
X1895000Y2355000D01*
X1915000Y2365000D01*
X1905000Y2345000D01*
X1915000Y2325000D01*
X1895000Y2335000D01*
X1875000Y2325000D01*
X1540000Y2400000D02*
X1550000Y2420000D01*
X1540000Y2440000D01*
X1560000Y2430000D01*
X1580000Y2440000D01*
X1570000Y2420000D01*
X1580000Y2400000D01*
X1560000Y2410000D01*
X1540000Y2400000D01*
X1477729Y1970692D02*
X1487729Y1990692D01*
X1477729Y2010692D01*
X1497729Y2000692D01*
X1517729Y2010692D01*
X1507729Y1990692D01*
X1517729Y1970692D01*
X1497729Y1980692D01*
X1477729Y1970692D01*
X1577729Y1940692D02*
X1587729Y1960692D01*
X1577729Y1980692D01*
X1597729Y1970692D01*
X1617729Y1980692D01*
X1607729Y1960692D01*
X1617729Y1940692D01*
X1597729Y1950692D01*
X1577729Y1940692D01*
X1402729Y2025692D02*
X1412729Y2045692D01*
X1402729Y2065692D01*
X1422729Y2055692D01*
X1442729Y2065692D01*
X1432729Y2045692D01*
X1442729Y2025692D01*
X1422729Y2035692D01*
X1402729Y2025692D01*
X1457729Y2120692D02*
X1467729Y2140692D01*
X1457729Y2160692D01*
X1477729Y2150692D01*
X1497729Y2160692D01*
X1487729Y2140692D01*
X1497729Y2120692D01*
X1477729Y2130692D01*
X1457729Y2120692D01*
Y2025692D02*
X1467729Y2045692D01*
X1457729Y2065692D01*
X1477729Y2055692D01*
X1497729Y2065692D01*
X1487729Y2045692D01*
X1497729Y2025692D01*
X1477729Y2035692D01*
X1457729Y2025692D01*
X1502729D02*
X1512729Y2045692D01*
X1502729Y2065692D01*
X1522729Y2055692D01*
X1542729Y2065692D01*
X1532729Y2045692D01*
X1542729Y2025692D01*
X1522729Y2035692D01*
X1502729Y2025692D01*
X1785000Y2250000D02*
X1795000Y2270000D01*
X1785000Y2290000D01*
X1805000Y2280000D01*
X1825000Y2290000D01*
X1815000Y2270000D01*
X1825000Y2250000D01*
X1805000Y2260000D01*
X1785000Y2250000D01*
X1880000Y2125000D02*
X1890000Y2145000D01*
X1880000Y2165000D01*
X1900000Y2155000D01*
X1920000Y2165000D01*
X1910000Y2145000D01*
X1920000Y2125000D01*
X1900000Y2135000D01*
X1880000Y2125000D01*
X1930000Y2325000D02*
X1940000Y2345000D01*
X1930000Y2365000D01*
X1950000Y2355000D01*
X1970000Y2365000D01*
X1960000Y2345000D01*
X1970000Y2325000D01*
X1950000Y2335000D01*
X1930000Y2325000D01*
X1645000Y1940000D02*
X1655000Y1960000D01*
X1645000Y1980000D01*
X1665000Y1970000D01*
X1685000Y1980000D01*
X1675000Y1960000D01*
X1685000Y1940000D01*
X1665000Y1950000D01*
X1645000Y1940000D01*
X1615000Y2035000D02*
X1625000Y2055000D01*
X1615000Y2075000D01*
X1635000Y2065000D01*
X1655000Y2075000D01*
X1645000Y2055000D01*
X1655000Y2035000D01*
X1635000Y2045000D01*
X1615000Y2035000D01*
X3060000Y2400000D02*
X3070000Y2420000D01*
X3060000Y2440000D01*
X3080000Y2430000D01*
X3100000Y2440000D01*
X3090000Y2420000D01*
X3100000Y2400000D01*
X3080000Y2410000D01*
X3060000Y2400000D01*
Y2170000D02*
X3070000Y2190000D01*
X3060000Y2210000D01*
X3080000Y2200000D01*
X3100000Y2210000D01*
X3090000Y2190000D01*
X3100000Y2170000D01*
X3080000Y2180000D01*
X3060000Y2170000D01*
X3080000Y2100000D02*
X3090000Y2120000D01*
X3080000Y2140000D01*
X3100000Y2130000D01*
X3120000Y2140000D01*
X3110000Y2120000D01*
X3120000Y2100000D01*
X3100000Y2110000D01*
X3080000Y2100000D01*
X3135000D02*
X3145000Y2120000D01*
X3135000Y2140000D01*
X3155000Y2130000D01*
X3175000Y2140000D01*
X3165000Y2120000D01*
X3175000Y2100000D01*
X3155000Y2110000D01*
X3135000Y2100000D01*
X3185000D02*
X3195000Y2120000D01*
X3185000Y2140000D01*
X3205000Y2130000D01*
X3225000Y2140000D01*
X3215000Y2120000D01*
X3225000Y2100000D01*
X3205000Y2110000D01*
X3185000Y2100000D01*
X3235000D02*
X3245000Y2120000D01*
X3235000Y2140000D01*
X3255000Y2130000D01*
X3275000Y2140000D01*
X3265000Y2120000D01*
X3275000Y2100000D01*
X3255000Y2110000D01*
X3235000Y2100000D01*
X3135000Y2450000D02*
X3145000Y2470000D01*
X3135000Y2490000D01*
X3155000Y2480000D01*
X3175000Y2490000D01*
X3165000Y2470000D01*
X3175000Y2450000D01*
X3155000Y2460000D01*
X3135000Y2450000D01*
X3225000D02*
X3235000Y2470000D01*
X3225000Y2490000D01*
X3245000Y2480000D01*
X3265000Y2490000D01*
X3255000Y2470000D01*
X3265000Y2450000D01*
X3245000Y2460000D01*
X3225000Y2450000D01*
X3175000D02*
X3185000Y2470000D01*
X3175000Y2490000D01*
X3195000Y2480000D01*
X3215000Y2490000D01*
X3205000Y2470000D01*
X3215000Y2450000D01*
X3195000Y2460000D01*
X3175000Y2450000D01*
X3095000D02*
X3105000Y2470000D01*
X3095000Y2490000D01*
X3115000Y2480000D01*
X3135000Y2490000D01*
X3125000Y2470000D01*
X3135000Y2450000D01*
X3115000Y2460000D01*
X3095000Y2450000D01*
X2710000Y2390000D02*
X2720000Y2410000D01*
X2710000Y2430000D01*
X2730000Y2420000D01*
X2750000Y2430000D01*
X2740000Y2410000D01*
X2750000Y2390000D01*
X2730000Y2400000D01*
X2710000Y2390000D01*
X2630000D02*
X2640000Y2410000D01*
X2630000Y2430000D01*
X2650000Y2420000D01*
X2670000Y2430000D01*
X2660000Y2410000D01*
X2670000Y2390000D01*
X2650000Y2400000D01*
X2630000Y2390000D01*
X2625000Y2175000D02*
X2635000Y2195000D01*
X2625000Y2215000D01*
X2645000Y2205000D01*
X2665000Y2215000D01*
X2655000Y2195000D01*
X2665000Y2175000D01*
X2645000Y2185000D01*
X2625000Y2175000D01*
X2725000D02*
X2735000Y2195000D01*
X2725000Y2215000D01*
X2745000Y2205000D01*
X2765000Y2215000D01*
X2755000Y2195000D01*
X2765000Y2175000D01*
X2745000Y2185000D01*
X2725000Y2175000D01*
X2215000Y2015000D02*
X2225000Y2035000D01*
X2215000Y2055000D01*
X2235000Y2045000D01*
X2255000Y2055000D01*
X2245000Y2035000D01*
X2255000Y2015000D01*
X2235000Y2025000D01*
X2215000Y2015000D01*
X2280000D02*
X2290000Y2035000D01*
X2280000Y2055000D01*
X2300000Y2045000D01*
X2320000Y2055000D01*
X2310000Y2035000D01*
X2320000Y2015000D01*
X2300000Y2025000D01*
X2280000Y2015000D01*
X2335000Y2010000D02*
X2345000Y2030000D01*
X2335000Y2050000D01*
X2355000Y2040000D01*
X2375000Y2050000D01*
X2365000Y2030000D01*
X2375000Y2010000D01*
X2355000Y2020000D01*
X2335000Y2010000D01*
Y2050000D02*
X2345000Y2070000D01*
X2335000Y2090000D01*
X2355000Y2080000D01*
X2375000Y2090000D01*
X2365000Y2070000D01*
X2375000Y2050000D01*
X2355000Y2060000D01*
X2335000Y2050000D01*
X2275000D02*
X2285000Y2070000D01*
X2275000Y2090000D01*
X2295000Y2080000D01*
X2315000Y2090000D01*
X2305000Y2070000D01*
X2315000Y2050000D01*
X2295000Y2060000D01*
X2275000Y2050000D01*
X2215000D02*
X2225000Y2070000D01*
X2215000Y2090000D01*
X2235000Y2080000D01*
X2255000Y2090000D01*
X2245000Y2070000D01*
X2255000Y2050000D01*
X2235000Y2060000D01*
X2215000Y2050000D01*
X1660000Y2035000D02*
X1670000Y2055000D01*
X1660000Y2075000D01*
X1680000Y2065000D01*
X1700000Y2075000D01*
X1690000Y2055000D01*
X1700000Y2035000D01*
X1680000Y2045000D01*
X1660000Y2035000D01*
X2238149Y2317215D02*
X2248149Y2337215D01*
X2238149Y2357215D01*
X2258149Y2347215D01*
X2278149Y2357215D01*
X2268149Y2337215D01*
X2278149Y2317215D01*
X2258149Y2327215D01*
X2238149Y2317215D01*
X2198771Y2310185D02*
X2208771Y2330185D01*
X2198771Y2350185D01*
X2218771Y2340185D01*
X2238771Y2350185D01*
X2228771Y2330185D01*
X2238771Y2310185D01*
X2218771Y2320185D01*
X2198771Y2310185D01*
X2264692Y2242785D02*
X2274692Y2262785D01*
X2264692Y2282785D01*
X2284692Y2272785D01*
X2304692Y2282785D01*
X2294692Y2262785D01*
X2304692Y2242785D01*
X2284692Y2252785D01*
X2264692Y2242785D01*
X2304692Y2242676D02*
X2314692Y2262676D01*
X2304692Y2282676D01*
X2324692Y2272676D01*
X2344692Y2282676D01*
X2334692Y2262676D01*
X2344692Y2242676D01*
X2324692Y2252676D01*
X2304692Y2242676D01*
X2305000Y2325000D02*
X2315000Y2345000D01*
X2305000Y2365000D01*
X2325000Y2355000D01*
X2345000Y2365000D01*
X2335000Y2345000D01*
X2345000Y2325000D01*
X2325000Y2335000D01*
X2305000Y2325000D01*
X2544223Y2241892D02*
X2554223Y2261892D01*
X2544223Y2281892D01*
X2564223Y2271892D01*
X2584223Y2281892D01*
X2574223Y2261892D01*
X2584223Y2241892D01*
X2564223Y2251892D01*
X2544223Y2241892D01*
X2584213Y2242785D02*
X2594213Y2262785D01*
X2584213Y2282785D01*
X2604213Y2272785D01*
X2624213Y2282785D01*
X2614213Y2262785D01*
X2624213Y2242785D01*
X2604213Y2252785D01*
X2584213Y2242785D01*
X2673738Y2285897D02*
X2683738Y2305897D01*
X2673738Y2325897D01*
X2693738Y2315897D01*
X2713738Y2325897D01*
X2703738Y2305897D01*
X2713738Y2285897D01*
X2693738Y2295897D01*
X2673738Y2285897D01*
X2567798Y2317215D02*
X2577798Y2337215D01*
X2567798Y2357215D01*
X2587798Y2347215D01*
X2607798Y2357215D01*
X2597798Y2337215D01*
X2607798Y2317215D01*
X2587798Y2327215D01*
X2567798Y2317215D01*
X2346359Y2241892D02*
X2356359Y2261892D01*
X2346359Y2281892D01*
X2366359Y2271892D01*
X2386359Y2281892D01*
X2376359Y2261892D01*
X2386359Y2241892D01*
X2366359Y2251892D01*
X2346359Y2241892D01*
X2466303Y2242785D02*
X2476303Y2262785D01*
X2466303Y2282785D01*
X2486303Y2272785D01*
X2506303Y2282785D01*
X2496303Y2262785D01*
X2506303Y2242785D01*
X2486303Y2252785D01*
X2466303Y2242785D01*
X2506293Y2241892D02*
X2516293Y2261892D01*
X2506293Y2281892D01*
X2526293Y2271892D01*
X2546293Y2281892D01*
X2536293Y2261892D01*
X2546293Y2241892D01*
X2526293Y2251892D01*
X2506293Y2241892D01*
X2520115Y2313802D02*
X2530115Y2333802D01*
X2520115Y2353802D01*
X2540115Y2343802D01*
X2560115Y2353802D01*
X2550115Y2333802D01*
X2560115Y2313802D01*
X2540115Y2323802D01*
X2520115Y2313802D01*
X2480347Y2318108D02*
X2490347Y2338108D01*
X2480347Y2358108D01*
X2500347Y2348108D01*
X2520347Y2358108D01*
X2510347Y2338108D01*
X2520347Y2318108D01*
X2500347Y2328108D01*
X2480347Y2318108D01*
X2440357Y2317215D02*
X2450357Y2337215D01*
X2440357Y2357215D01*
X2460357Y2347215D01*
X2480357Y2357215D01*
X2470357Y2337215D01*
X2480357Y2317215D01*
X2460357Y2327215D01*
X2440357Y2317215D01*
X2400357D02*
X2410357Y2337215D01*
X2400357Y2357215D01*
X2420357Y2347215D01*
X2440357Y2357215D01*
X2430357Y2337215D01*
X2440357Y2317215D01*
X2420357Y2327215D01*
X2400357Y2317215D01*
X2360357D02*
X2370357Y2337215D01*
X2360357Y2357215D01*
X2380357Y2347215D01*
X2400357Y2357215D01*
X2390357Y2337215D01*
X2400357Y2317215D01*
X2380357Y2327215D01*
X2360357Y2317215D01*
X2090000Y2270000D02*
X2100000Y2290000D01*
X2090000Y2310000D01*
X2110000Y2300000D01*
X2130000Y2310000D01*
X2120000Y2290000D01*
X2130000Y2270000D01*
X2110000Y2280000D01*
X2090000Y2270000D01*
X2120000Y2180000D02*
X2130000Y2200000D01*
X2120000Y2220000D01*
X2140000Y2210000D01*
X2160000Y2220000D01*
X2150000Y2200000D01*
X2160000Y2180000D01*
X2140000Y2190000D01*
X2120000Y2180000D01*
X1340000Y2225000D02*
X1350000Y2245000D01*
X1340000Y2265000D01*
X1360000Y2255000D01*
X1380000Y2265000D01*
X1370000Y2245000D01*
X1380000Y2225000D01*
X1360000Y2235000D01*
X1340000Y2225000D01*
D80*
X1120000Y2700000D02*
G03*
X1120000Y2700000I-20000J0D01*
G01*
Y900000D02*
G03*
X1120000Y900000I-20000J0D01*
G01*
X3220000D02*
G03*
X3220000Y900000I-20000J0D01*
G01*
Y2700000D02*
G03*
X3220000Y2700000I-20000J0D01*
G01*
%TF.MD5,1d42f75dfcb1a960af14ebeafc9b858a*%
M02*
