%TF.GenerationSoftware,Altium Limited,Altium Designer,22.6.1 (34)*%
G04 Layer_Color=0*
%FSLAX26Y26*%
%MOIN*%
%TF.SameCoordinates,2B337168-DF0E-4336-AB3C-9C7F5D13073F*%
%TF.FilePolarity,Positive*%
%TF.FileFunction,Plated,1,2,PTH,Drill*%
%TF.Part,Single*%
G01*
G75*
%TA.AperFunction,ComponentDrill*%
%ADD77C,0.035433*%
%TA.AperFunction,ViaDrill,NotFilled*%
%ADD78C,0.010000*%
D77*
X1152450Y1505000D02*
D03*
X1252450D02*
D03*
X2320000Y2695000D02*
D03*
X2220000D02*
D03*
X2120000D02*
D03*
X2020000D02*
D03*
X1920000D02*
D03*
X1820000D02*
D03*
X1150000Y2100000D02*
D03*
X1250000D02*
D03*
X1150000Y2400000D02*
D03*
X1250000D02*
D03*
D78*
X2605000Y1935000D02*
D03*
X2360000D02*
D03*
X2125000Y1930000D02*
D03*
X1890000Y1935000D02*
D03*
X1640000Y1930000D02*
D03*
X1430000Y1940000D02*
D03*
X1325000Y1830000D02*
D03*
X1320000Y1620000D02*
D03*
X1325000Y1395000D02*
D03*
X1315000Y1160000D02*
D03*
Y945000D02*
D03*
X1440000Y835000D02*
D03*
X1645000Y830000D02*
D03*
X1890000D02*
D03*
X2130000D02*
D03*
X2365000Y835000D02*
D03*
X2600000D02*
D03*
X2830000Y830000D02*
D03*
X2945000Y875000D02*
D03*
Y935000D02*
D03*
X2930000Y1155000D02*
D03*
Y1400000D02*
D03*
X2940000Y1615000D02*
D03*
Y1840000D02*
D03*
X2840000Y1940000D02*
D03*
X2600000Y945000D02*
D03*
X2365000D02*
D03*
X2130000Y950000D02*
D03*
X1890000D02*
D03*
X1650000D02*
D03*
X1445000Y955000D02*
D03*
X1435000Y1165000D02*
D03*
X1440000Y1395000D02*
D03*
X1450000Y1625000D02*
D03*
X1455000Y1820000D02*
D03*
X1650000Y1825000D02*
D03*
X1890000Y1815000D02*
D03*
X2130000D02*
D03*
X2365000D02*
D03*
X2595000D02*
D03*
X2810000Y1620000D02*
D03*
Y1430000D02*
D03*
X2805000Y1155000D02*
D03*
Y945000D02*
D03*
Y1810000D02*
D03*
X2575000Y1230000D02*
D03*
X2695000D02*
D03*
X2635000Y1180000D02*
D03*
X1501892Y1369761D02*
D03*
X1502785Y1329771D02*
D03*
X1501892Y1289781D02*
D03*
X1603958Y1256096D02*
D03*
X1582502Y1383973D02*
D03*
X1580325Y1344033D02*
D03*
X1710458Y1197785D02*
D03*
X1783108Y1221569D02*
D03*
X1779641Y1261418D02*
D03*
X1632142Y1394074D02*
D03*
X1646568Y1416061D02*
D03*
X1788933Y1320344D02*
D03*
X1868933D02*
D03*
X1908933D02*
D03*
X1921668Y1398108D02*
D03*
X1881807Y1394774D02*
D03*
X1841807D02*
D03*
X1801807D02*
D03*
X1761807D02*
D03*
X1721975Y1398435D02*
D03*
X1722551Y1438431D02*
D03*
X2076288Y1397215D02*
D03*
X2036288Y1397215D02*
D03*
X1996288D02*
D03*
X1956298Y1398108D02*
D03*
X1942424Y1326212D02*
D03*
X1982190Y1321892D02*
D03*
X2022180Y1322785D02*
D03*
X2102133Y1322785D02*
D03*
X2125000Y1405000D02*
D03*
X2150981Y1325466D02*
D03*
X2190820Y1321892D02*
D03*
X2310742Y1320344D02*
D03*
X2350742D02*
D03*
X2390742D02*
D03*
X2357723Y1394774D02*
D03*
X2317723D02*
D03*
X2277723D02*
D03*
X2237798Y1397215D02*
D03*
X2160000Y1405000D02*
D03*
X2649407Y1447215D02*
D03*
X2609407D02*
D03*
X2569647Y1442840D02*
D03*
X2656363Y1372785D02*
D03*
X2693164Y1357111D02*
D03*
X2721448Y1328827D02*
D03*
X2749733Y1300543D02*
D03*
X2778017Y1272259D02*
D03*
X2806947Y1244635D02*
D03*
X2926356Y1237785D02*
D03*
X2966356Y1237897D02*
D03*
X3001115Y1257691D02*
D03*
X3029399Y1285975D02*
D03*
X3062930Y1307785D02*
D03*
X3102930D02*
D03*
X3142165Y1300000D02*
D03*
X3182163Y1299608D02*
D03*
X3222163D02*
D03*
X3262163D02*
D03*
X3258030Y1390392D02*
D03*
X3218030D02*
D03*
X3178030D02*
D03*
X3138049Y1389181D02*
D03*
X3098660Y1382215D02*
D03*
X3058660D02*
D03*
X3018898Y1377859D02*
D03*
X2989212Y1351049D02*
D03*
X2960928Y1322765D02*
D03*
X2922344Y1312215D02*
D03*
X2882344D02*
D03*
X2842356Y1313180D02*
D03*
X2814072Y1341464D02*
D03*
X2785787Y1369748D02*
D03*
X2757503Y1398033D02*
D03*
X2729219Y1426317D02*
D03*
X2694875Y1446823D02*
D03*
X3242734Y2346612D02*
D03*
X3202734D02*
D03*
X3162734D02*
D03*
X3123853Y2337215D02*
D03*
X3083853D02*
D03*
X3043853D02*
D03*
X3003853D02*
D03*
X2963853D02*
D03*
X2923853D02*
D03*
X2883853D02*
D03*
X2843853D02*
D03*
X2803853D02*
D03*
X2783992Y2262785D02*
D03*
X2823992D02*
D03*
X2863992D02*
D03*
X2903992D02*
D03*
X2943992D02*
D03*
X2983992D02*
D03*
X3023992D02*
D03*
X3063992D02*
D03*
X3103992D02*
D03*
X3143382Y2255829D02*
D03*
X3183382D02*
D03*
X3223382D02*
D03*
X3263382D02*
D03*
X1705000Y1060000D02*
D03*
X1530000Y1195000D02*
D03*
X1600000Y1235000D02*
D03*
X1605000Y1015000D02*
D03*
Y1060000D02*
D03*
X1655000Y1010000D02*
D03*
X1705000D02*
D03*
X1755000Y1080000D02*
D03*
X1820000D02*
D03*
X1735000Y1120000D02*
D03*
X1850000D02*
D03*
X1790000D02*
D03*
X1885000Y1180000D02*
D03*
X2055000Y1250000D02*
D03*
X2250000D02*
D03*
X2000000Y1295000D02*
D03*
X2120000D02*
D03*
X2185000D02*
D03*
X1660000Y1760000D02*
D03*
X2330000Y1230000D02*
D03*
X2379882Y1451653D02*
D03*
X2390000Y1265000D02*
D03*
X2516653Y1348347D02*
D03*
X2473346D02*
D03*
X2516653Y1391654D02*
D03*
X2473346D02*
D03*
X2510000Y1255000D02*
D03*
X2515000Y1475000D02*
D03*
X3205000Y1170000D02*
D03*
X3145000D02*
D03*
X3270000D02*
D03*
X3095000Y1190000D02*
D03*
X3090000Y1245000D02*
D03*
X2610000Y1360000D02*
D03*
X3090000Y1430000D02*
D03*
Y1470000D02*
D03*
X2590028Y1507956D02*
D03*
X3145000Y1520000D02*
D03*
X3205000D02*
D03*
X3265000D02*
D03*
X1780000Y2335000D02*
D03*
X1995000Y2295000D02*
D03*
X1945000Y2180000D02*
D03*
X1895000Y2345000D02*
D03*
X1560000Y2420000D02*
D03*
X1497729Y1990692D02*
D03*
X1597729Y1960692D02*
D03*
X1422729Y2045692D02*
D03*
X1477729Y2140692D02*
D03*
Y2045692D02*
D03*
X1522729D02*
D03*
X1805000Y2270000D02*
D03*
X1900000Y2145000D02*
D03*
X1950000Y2345000D02*
D03*
X1665000Y1960000D02*
D03*
X1635000Y2055000D02*
D03*
X3080000Y2420000D02*
D03*
Y2190000D02*
D03*
X3100000Y2120000D02*
D03*
X3155000D02*
D03*
X3205000D02*
D03*
X3255000D02*
D03*
X3155000Y2470000D02*
D03*
X3245000D02*
D03*
X3195000D02*
D03*
X3115000D02*
D03*
X2730000Y2410000D02*
D03*
X2650000D02*
D03*
X2645000Y2195000D02*
D03*
X2745000D02*
D03*
X2235000Y2035000D02*
D03*
X2300000D02*
D03*
X2355000Y2030000D02*
D03*
Y2070000D02*
D03*
X2295000D02*
D03*
X2235000D02*
D03*
X1680000Y2055000D02*
D03*
X2258149Y2337215D02*
D03*
X2218771Y2330185D02*
D03*
X2284692Y2262785D02*
D03*
X2324692Y2262676D02*
D03*
X2325000Y2345000D02*
D03*
X2564223Y2261892D02*
D03*
X2604213Y2262785D02*
D03*
X2693738Y2305897D02*
D03*
X2587798Y2337215D02*
D03*
X2366359Y2261892D02*
D03*
X2486303Y2262785D02*
D03*
X2526293Y2261892D02*
D03*
X2540115Y2333802D02*
D03*
X2500347Y2338108D02*
D03*
X2460357Y2337215D02*
D03*
X2420357D02*
D03*
X2380357D02*
D03*
X2110000Y2290000D02*
D03*
X2140000Y2200000D02*
D03*
X1360000Y2245000D02*
D03*
%TF.MD5,2661305c82e81179f3616feba5382dd0*%
M02*
