%TF.GenerationSoftware,Altium Limited,Altium Designer,22.6.1 (34)*%
G04 Layer_Color=16711935*
%FSLAX26Y26*%
%MOIN*%
%TF.SameCoordinates,2B337168-DF0E-4336-AB3C-9C7F5D13073F*%
%TF.FilePolarity,Positive*%
%TF.FileFunction,Other,Mechanical_13*%
%TF.Part,Single*%
G01*
G75*
%TA.AperFunction,NonConductor*%
%ADD42C,0.007874*%
%ADD43C,0.005000*%
%ADD69C,0.003937*%
%ADD70C,0.006000*%
D42*
X2738307Y2252953D02*
G03*
X2738307Y2252953I-3937J0D01*
G01*
X1906614Y2244409D02*
G03*
X1906614Y2244409I-3937J0D01*
G01*
X1545276Y2139882D02*
G03*
X1545276Y2139882I-3937J0D01*
G01*
X1420236Y2324606D02*
G03*
X1420236Y2324606I-1968J0D01*
G01*
D43*
X2871654Y887992D02*
Y1880000D01*
X1379528D02*
X2871654D01*
X1379528Y887874D02*
Y1880000D01*
Y887874D02*
X2871575D01*
X3289803Y1470000D02*
X3664606Y1469606D01*
Y1220394D02*
Y1469606D01*
X3289803Y1220000D02*
X3664606Y1220394D01*
X3289803Y1148150D02*
Y1220000D01*
Y1470000D01*
Y1541850D01*
X3139803Y1220000D02*
X3289803D01*
X3139803D02*
Y1470000D01*
X3289803D01*
X3664606Y1469606D01*
Y1220394D02*
Y1469606D01*
X3289803Y1220000D02*
X3664606Y1220394D01*
X3289803Y1148150D02*
Y1220000D01*
Y1470000D01*
Y1541850D01*
X3139803Y1220000D02*
X3289803D01*
X3139803D02*
Y1470000D01*
X3289803D01*
X2635945Y2240945D02*
X2754055D01*
X2635945D02*
Y2359055D01*
X2754055D01*
Y2240945D02*
Y2359055D01*
X1844606Y2230630D02*
Y2309370D01*
X1795394Y2230630D02*
X1844606D01*
X1795394D02*
Y2309370D01*
X1844606D01*
X1442913Y2013504D02*
Y2076496D01*
X1557087Y2013504D02*
Y2076496D01*
X1442913Y2013504D02*
X1557087D01*
X1442913Y2076496D02*
X1557087D01*
X3287677Y2426220D02*
X3662480Y2425827D01*
Y2176614D02*
Y2425827D01*
X3287677Y2176220D02*
X3662480Y2176614D01*
X3287677Y2104370D02*
Y2176220D01*
Y2426220D01*
Y2498071D01*
X3137677Y2176220D02*
X3287677D01*
X3137677D02*
Y2426220D01*
X3287677D01*
X3662480Y2425827D01*
Y2176614D02*
Y2425827D01*
X3287677Y2176220D02*
X3662480Y2176614D01*
X3287677Y2104370D02*
Y2176220D01*
Y2426220D01*
Y2498071D01*
X3137677Y2176220D02*
X3287677D01*
X3137677D02*
Y2426220D01*
X3287677D01*
X1648583Y2286417D02*
Y2463583D01*
X1471417Y2286417D02*
X1648583D01*
X1471417D02*
Y2463583D01*
X1648583D01*
D69*
X2469409Y1415276D02*
G03*
X2469409Y1415276I-19685J0D01*
G01*
X2414291Y1289291D02*
X2575709D01*
X2414291Y1450709D02*
X2575709D01*
Y1289291D02*
Y1450709D01*
X2414291Y1289291D02*
Y1450709D01*
X1673701Y1172992D02*
Y1241890D01*
X1636299Y1172992D02*
Y1241890D01*
X1673701D01*
X1636299Y1172992D02*
X1673701D01*
X1467992Y1531299D02*
X1536890D01*
X1467992Y1568701D02*
X1536890D01*
Y1531299D02*
Y1568701D01*
X1467992Y1531299D02*
Y1568701D01*
X1558701Y1230551D02*
Y1299449D01*
X1521299Y1230551D02*
Y1299449D01*
X1558701D01*
X1521299Y1230551D02*
X1558701D01*
Y1370551D02*
Y1439449D01*
X1521299Y1370551D02*
Y1439449D01*
X1558701D01*
X1521299Y1370551D02*
X1558701D01*
X1673701Y1048110D02*
Y1117008D01*
X1636299Y1048110D02*
Y1117008D01*
X1673701D01*
X1636299Y1048110D02*
X1673701D01*
X1516299Y1615551D02*
Y1684449D01*
X1553701Y1615551D02*
Y1684449D01*
X1516299Y1615551D02*
X1553701D01*
X1516299Y1684449D02*
X1553701D01*
X1703701Y1412992D02*
Y1481890D01*
X1666299Y1412992D02*
Y1481890D01*
X1703701D01*
X1666299Y1412992D02*
X1703701D01*
X1763701Y1172992D02*
Y1241890D01*
X1726299Y1172992D02*
Y1241890D01*
X1763701D01*
X1726299Y1172992D02*
X1763701D01*
X1763701Y1295551D02*
Y1364449D01*
X1726299Y1295551D02*
Y1364449D01*
X1763701D01*
X1726299Y1295551D02*
X1763701D01*
X1843701D02*
Y1364449D01*
X1806299Y1295551D02*
Y1364449D01*
X1843701D01*
X1806299Y1295551D02*
X1843701D01*
X1530551Y1778701D02*
X1599449D01*
X1530551Y1741299D02*
X1599449D01*
X1530551D02*
Y1778701D01*
X1599449Y1741299D02*
Y1778701D01*
X2273701Y1295551D02*
Y1364449D01*
X2236299Y1295551D02*
Y1364449D01*
X2273701D01*
X2236299Y1295551D02*
X2273701D01*
X1908110Y1378701D02*
X1977008D01*
X1908110Y1341299D02*
X1977008D01*
X1908110D02*
Y1378701D01*
X1977008Y1341299D02*
Y1378701D01*
X2245551Y1436299D02*
X2314449D01*
X2245551Y1473701D02*
X2314449D01*
Y1436299D02*
Y1473701D01*
X2245551Y1436299D02*
Y1473701D01*
X2519449Y1201299D02*
Y1238701D01*
X2450551Y1201299D02*
Y1238701D01*
Y1201299D02*
X2519449D01*
X2450551Y1238701D02*
X2519449D01*
X2616299Y1225551D02*
Y1294449D01*
X2653701Y1225551D02*
Y1294449D01*
X2616299Y1225551D02*
X2653701D01*
X2616299Y1294449D02*
X2653701D01*
X2372992Y1518701D02*
X2441890D01*
X2372992Y1481299D02*
X2441890D01*
X2372992D02*
Y1518701D01*
X2441890Y1481299D02*
Y1518701D01*
X1843701Y1173110D02*
Y1242008D01*
X1806299Y1173110D02*
Y1242008D01*
X1843701D01*
X1806299Y1173110D02*
X1843701D01*
X2073701Y1295551D02*
Y1364449D01*
X2036299Y1295551D02*
Y1364449D01*
X2073701D01*
X2036299Y1295551D02*
X2073701D01*
X2115551Y1341299D02*
X2184449D01*
X2115551Y1378701D02*
X2184449D01*
Y1341299D02*
Y1378701D01*
X2115551Y1341299D02*
Y1378701D01*
X2574449Y2281299D02*
Y2318701D01*
X2505551Y2281299D02*
Y2318701D01*
Y2281299D02*
X2574449D01*
X2505551Y2318701D02*
X2574449D01*
X2020551Y2146299D02*
Y2183701D01*
X2089449Y2146299D02*
Y2183701D01*
X2020551D02*
X2089449D01*
X2020551Y2146299D02*
X2089449D01*
X2089449Y2221299D02*
Y2258701D01*
X2020551Y2221299D02*
Y2258701D01*
Y2221299D02*
X2089449D01*
X2020551Y2258701D02*
X2089449D01*
X1499449Y2161299D02*
Y2198701D01*
X1430551Y2161299D02*
Y2198701D01*
Y2161299D02*
X1499449D01*
X1430551Y2198701D02*
X1499449D01*
X2367008Y2281299D02*
Y2318701D01*
X2298110Y2281299D02*
Y2318701D01*
Y2281299D02*
X2367008D01*
X2298110Y2318701D02*
X2367008D01*
X1921299Y2306890D02*
X1958701D01*
X1921299Y2237992D02*
X1958701D01*
Y2306890D01*
X1921299Y2237992D02*
Y2306890D01*
X2368543Y2111693D02*
Y2198307D01*
X2311456Y2111693D02*
Y2198307D01*
X2368543D01*
X2311456Y2111693D02*
X2368543D01*
X2236299Y2122992D02*
X2273701D01*
X2236299Y2191890D02*
X2273701D01*
X2236299Y2122992D02*
Y2191890D01*
X2273701Y2122992D02*
Y2191890D01*
X2416299Y2235551D02*
X2453701D01*
X2416299Y2304449D02*
X2453701D01*
X2416299Y2235551D02*
Y2304449D01*
X2453701Y2235551D02*
Y2304449D01*
X1672008Y2091299D02*
Y2128701D01*
X1603110Y2091299D02*
Y2128701D01*
Y2091299D02*
X1672008D01*
X1603110Y2128701D02*
X1672008D01*
D70*
X2183000Y2308000D02*
G03*
X2207000Y2308000I12000J0D01*
G01*
X2168000Y2285000D02*
Y2296000D01*
X2148000D02*
X2168000D01*
X2148000Y2285000D02*
Y2296000D01*
Y2285000D02*
X2168000D01*
Y2259000D02*
Y2271000D01*
X2148000D02*
X2168000D01*
X2148000Y2259000D02*
Y2271000D01*
Y2259000D02*
X2168000D01*
Y2234000D02*
Y2245000D01*
X2148000D02*
X2168000D01*
X2148000Y2234000D02*
Y2245000D01*
Y2234000D02*
X2168000D01*
X2222000D02*
Y2245000D01*
Y2234000D02*
X2242000D01*
Y2245000D01*
X2222000D02*
X2242000D01*
X2222000Y2259000D02*
Y2271000D01*
Y2259000D02*
X2242000D01*
Y2271000D01*
X2222000D02*
X2242000D01*
X2222000Y2285000D02*
Y2296000D01*
Y2285000D02*
X2242000D01*
Y2296000D01*
X2222000D02*
X2242000D01*
X2168000Y2222000D02*
X2222000D01*
Y2308000D01*
X2207000D02*
X2222000D01*
X2183000D02*
X2207000D01*
X2168000D02*
X2183000D01*
X2168000Y2222000D02*
Y2308000D01*
%TF.MD5,6a8ced4258c73cf6cc598a32d15a291e*%
M02*
