%TF.GenerationSoftware,Altium Limited,Altium Designer,22.6.1 (34)*%
G04 Layer_Color=128*
%FSLAX26Y26*%
%MOIN*%
%TF.SameCoordinates,2B337168-DF0E-4336-AB3C-9C7F5D13073F*%
%TF.FilePolarity,Positive*%
%TF.FileFunction,Drillmap*%
%TF.Part,Single*%
G01*
G75*
%TA.AperFunction,NonConductor*%
%ADD43C,0.005000*%
D43*
X1134734Y1505000D02*
X1170167D01*
X1152450Y1487284D02*
Y1522716D01*
X1234734Y1505000D02*
X1270167D01*
X1252450Y1487284D02*
Y1522716D01*
X2302284Y2695000D02*
X2337716D01*
X2320000Y2677284D02*
Y2712716D01*
X2202284Y2695000D02*
X2237716D01*
X2220000Y2677284D02*
Y2712716D01*
X2102284Y2695000D02*
X2137716D01*
X2120000Y2677284D02*
Y2712716D01*
X2002284Y2695000D02*
X2037716D01*
X2020000Y2677284D02*
Y2712716D01*
X1902284Y2695000D02*
X1937716D01*
X1920000Y2677284D02*
Y2712716D01*
X1802284Y2695000D02*
X1837716D01*
X1820000Y2677284D02*
Y2712716D01*
X1132284Y2100000D02*
X1167716D01*
X1150000Y2082284D02*
Y2117716D01*
X1232284Y2100000D02*
X1267716D01*
X1250000Y2082284D02*
Y2117716D01*
X1132284Y2400000D02*
X1167716D01*
X1150000Y2382284D02*
Y2417716D01*
X1232284Y2400000D02*
X1267716D01*
X1250000Y2382284D02*
Y2417716D01*
X1040000Y2700000D02*
X1160000D01*
X1100000Y2640000D02*
Y2760000D01*
X1040000Y900000D02*
X1160000D01*
X1100000Y840000D02*
Y960000D01*
X3140000Y900000D02*
X3260000D01*
X3200000Y840000D02*
Y960000D01*
X3140000Y2700000D02*
X3260000D01*
X3200000Y2640000D02*
Y2760000D01*
X2600000Y1935000D02*
X2610000D01*
X2605000Y1930000D02*
Y1940000D01*
X2355000Y1935000D02*
X2365000D01*
X2360000Y1930000D02*
Y1940000D01*
X2120000Y1930000D02*
X2130000D01*
X2125000Y1925000D02*
Y1935000D01*
X1885000D02*
X1895000D01*
X1890000Y1930000D02*
Y1940000D01*
X1635000Y1930000D02*
X1645000D01*
X1640000Y1925000D02*
Y1935000D01*
X1425000Y1940000D02*
X1435000D01*
X1430000Y1935000D02*
Y1945000D01*
X1320000Y1830000D02*
X1330000D01*
X1325000Y1825000D02*
Y1835000D01*
X1315000Y1620000D02*
X1325000D01*
X1320000Y1615000D02*
Y1625000D01*
Y1395000D02*
X1330000D01*
X1325000Y1390000D02*
Y1400000D01*
X1310000Y1160000D02*
X1320000D01*
X1315000Y1155000D02*
Y1165000D01*
X1310000Y945000D02*
X1320000D01*
X1315000Y940000D02*
Y950000D01*
X1435000Y835000D02*
X1445000D01*
X1440000Y830000D02*
Y840000D01*
X1640000Y830000D02*
X1650000D01*
X1645000Y825000D02*
Y835000D01*
X1885000Y830000D02*
X1895000D01*
X1890000Y825000D02*
Y835000D01*
X2125000Y830000D02*
X2135000D01*
X2130000Y825000D02*
Y835000D01*
X2360000D02*
X2370000D01*
X2365000Y830000D02*
Y840000D01*
X2595000Y835000D02*
X2605000D01*
X2600000Y830000D02*
Y840000D01*
X2825000Y830000D02*
X2835000D01*
X2830000Y825000D02*
Y835000D01*
X2940000Y875000D02*
X2950000D01*
X2945000Y870000D02*
Y880000D01*
X2940000Y935000D02*
X2950000D01*
X2945000Y930000D02*
Y940000D01*
X2925000Y1155000D02*
X2935000D01*
X2930000Y1150000D02*
Y1160000D01*
X2925000Y1400000D02*
X2935000D01*
X2930000Y1395000D02*
Y1405000D01*
X2935000Y1615000D02*
X2945000D01*
X2940000Y1610000D02*
Y1620000D01*
X2935000Y1840000D02*
X2945000D01*
X2940000Y1835000D02*
Y1845000D01*
X2835000Y1940000D02*
X2845000D01*
X2840000Y1935000D02*
Y1945000D01*
X2595000Y945000D02*
X2605000D01*
X2600000Y940000D02*
Y950000D01*
X2360000Y945000D02*
X2370000D01*
X2365000Y940000D02*
Y950000D01*
X2125000D02*
X2135000D01*
X2130000Y945000D02*
Y955000D01*
X1885000Y950000D02*
X1895000D01*
X1890000Y945000D02*
Y955000D01*
X1645000Y950000D02*
X1655000D01*
X1650000Y945000D02*
Y955000D01*
X1440000D02*
X1450000D01*
X1445000Y950000D02*
Y960000D01*
X1430000Y1165000D02*
X1440000D01*
X1435000Y1160000D02*
Y1170000D01*
Y1395000D02*
X1445000D01*
X1440000Y1390000D02*
Y1400000D01*
X1445000Y1625000D02*
X1455000D01*
X1450000Y1620000D02*
Y1630000D01*
Y1820000D02*
X1460000D01*
X1455000Y1815000D02*
Y1825000D01*
X1645000D02*
X1655000D01*
X1650000Y1820000D02*
Y1830000D01*
X1885000Y1815000D02*
X1895000D01*
X1890000Y1810000D02*
Y1820000D01*
X2125000Y1815000D02*
X2135000D01*
X2130000Y1810000D02*
Y1820000D01*
X2360000Y1815000D02*
X2370000D01*
X2365000Y1810000D02*
Y1820000D01*
X2590000Y1815000D02*
X2600000D01*
X2595000Y1810000D02*
Y1820000D01*
X2805000Y1620000D02*
X2815000D01*
X2810000Y1615000D02*
Y1625000D01*
X2805000Y1430000D02*
X2815000D01*
X2810000Y1425000D02*
Y1435000D01*
X2800000Y1155000D02*
X2810000D01*
X2805000Y1150000D02*
Y1160000D01*
X2800000Y945000D02*
X2810000D01*
X2805000Y940000D02*
Y950000D01*
X2800000Y1810000D02*
X2810000D01*
X2805000Y1805000D02*
Y1815000D01*
X2570000Y1230000D02*
X2580000D01*
X2575000Y1225000D02*
Y1235000D01*
X2690000Y1230000D02*
X2700000D01*
X2695000Y1225000D02*
Y1235000D01*
X2630000Y1180000D02*
X2640000D01*
X2635000Y1175000D02*
Y1185000D01*
X1496892Y1369761D02*
X1506892D01*
X1501892Y1364761D02*
Y1374761D01*
X1497785Y1329771D02*
X1507785D01*
X1502785Y1324771D02*
Y1334771D01*
X1496892Y1289781D02*
X1506892D01*
X1501892Y1284781D02*
Y1294781D01*
X1598958Y1256096D02*
X1608958D01*
X1603958Y1251096D02*
Y1261096D01*
X1577502Y1383973D02*
X1587502D01*
X1582502Y1378973D02*
Y1388973D01*
X1575325Y1344033D02*
X1585325D01*
X1580325Y1339033D02*
Y1349033D01*
X1705458Y1197785D02*
X1715458D01*
X1710458Y1192785D02*
Y1202785D01*
X1778108Y1221569D02*
X1788108D01*
X1783108Y1216569D02*
Y1226569D01*
X1774641Y1261418D02*
X1784641D01*
X1779641Y1256418D02*
Y1266418D01*
X1627142Y1394074D02*
X1637142D01*
X1632142Y1389074D02*
Y1399074D01*
X1641568Y1416061D02*
X1651568D01*
X1646568Y1411061D02*
Y1421061D01*
X1783933Y1320344D02*
X1793933D01*
X1788933Y1315344D02*
Y1325344D01*
X1863933Y1320344D02*
X1873933D01*
X1868933Y1315344D02*
Y1325344D01*
X1903933Y1320344D02*
X1913933D01*
X1908933Y1315344D02*
Y1325344D01*
X1916668Y1398108D02*
X1926668D01*
X1921668Y1393108D02*
Y1403108D01*
X1876807Y1394774D02*
X1886807D01*
X1881807Y1389774D02*
Y1399774D01*
X1836807Y1394774D02*
X1846807D01*
X1841807Y1389774D02*
Y1399774D01*
X1796807Y1394774D02*
X1806807D01*
X1801807Y1389774D02*
Y1399774D01*
X1756807Y1394774D02*
X1766807D01*
X1761807Y1389774D02*
Y1399774D01*
X1716975Y1398435D02*
X1726975D01*
X1721975Y1393435D02*
Y1403435D01*
X1717551Y1438431D02*
X1727551D01*
X1722551Y1433431D02*
Y1443431D01*
X2071288Y1397215D02*
X2081288D01*
X2076288Y1392215D02*
Y1402215D01*
X2031288Y1397215D02*
X2041288D01*
X2036288Y1392215D02*
Y1402215D01*
X1991288Y1397215D02*
X2001288D01*
X1996288Y1392215D02*
Y1402215D01*
X1951298Y1398108D02*
X1961298D01*
X1956298Y1393108D02*
Y1403108D01*
X1937424Y1326212D02*
X1947424D01*
X1942424Y1321212D02*
Y1331212D01*
X1977190Y1321892D02*
X1987190D01*
X1982190Y1316892D02*
Y1326892D01*
X2017180Y1322785D02*
X2027180D01*
X2022180Y1317785D02*
Y1327785D01*
X2097133Y1322785D02*
X2107133D01*
X2102133Y1317785D02*
Y1327785D01*
X2120000Y1405000D02*
X2130000D01*
X2125000Y1400000D02*
Y1410000D01*
X2145981Y1325466D02*
X2155981D01*
X2150981Y1320466D02*
Y1330466D01*
X2185820Y1321892D02*
X2195820D01*
X2190820Y1316892D02*
Y1326892D01*
X2305742Y1320344D02*
X2315742D01*
X2310742Y1315344D02*
Y1325344D01*
X2345742Y1320344D02*
X2355742D01*
X2350742Y1315344D02*
Y1325344D01*
X2385742Y1320344D02*
X2395742D01*
X2390742Y1315344D02*
Y1325344D01*
X2352723Y1394774D02*
X2362723D01*
X2357723Y1389774D02*
Y1399774D01*
X2312723Y1394774D02*
X2322723D01*
X2317723Y1389774D02*
Y1399774D01*
X2272723Y1394774D02*
X2282723D01*
X2277723Y1389774D02*
Y1399774D01*
X2232798Y1397215D02*
X2242798D01*
X2237798Y1392215D02*
Y1402215D01*
X2155000Y1405000D02*
X2165000D01*
X2160000Y1400000D02*
Y1410000D01*
X2644407Y1447215D02*
X2654407D01*
X2649407Y1442215D02*
Y1452215D01*
X2604407Y1447215D02*
X2614407D01*
X2609407Y1442215D02*
Y1452215D01*
X2564647Y1442840D02*
X2574647D01*
X2569647Y1437840D02*
Y1447840D01*
X2651363Y1372785D02*
X2661363D01*
X2656363Y1367785D02*
Y1377785D01*
X2688164Y1357111D02*
X2698164D01*
X2693164Y1352111D02*
Y1362111D01*
X2716448Y1328827D02*
X2726448D01*
X2721448Y1323827D02*
Y1333827D01*
X2744733Y1300543D02*
X2754733D01*
X2749733Y1295543D02*
Y1305543D01*
X2773017Y1272259D02*
X2783017D01*
X2778017Y1267259D02*
Y1277259D01*
X2801947Y1244635D02*
X2811947D01*
X2806947Y1239635D02*
Y1249635D01*
X2921356Y1237785D02*
X2931356D01*
X2926356Y1232785D02*
Y1242785D01*
X2961356Y1237897D02*
X2971356D01*
X2966356Y1232897D02*
Y1242897D01*
X2996115Y1257691D02*
X3006115D01*
X3001115Y1252691D02*
Y1262691D01*
X3024399Y1285975D02*
X3034399D01*
X3029399Y1280975D02*
Y1290975D01*
X3057930Y1307785D02*
X3067930D01*
X3062930Y1302785D02*
Y1312785D01*
X3097930Y1307785D02*
X3107930D01*
X3102930Y1302785D02*
Y1312785D01*
X3137165Y1300000D02*
X3147165D01*
X3142165Y1295000D02*
Y1305000D01*
X3177163Y1299608D02*
X3187163D01*
X3182163Y1294608D02*
Y1304608D01*
X3217163Y1299608D02*
X3227163D01*
X3222163Y1294608D02*
Y1304608D01*
X3257163Y1299608D02*
X3267163D01*
X3262163Y1294608D02*
Y1304608D01*
X3253030Y1390392D02*
X3263030D01*
X3258030Y1385392D02*
Y1395392D01*
X3213030Y1390392D02*
X3223030D01*
X3218030Y1385392D02*
Y1395392D01*
X3173030Y1390392D02*
X3183030D01*
X3178030Y1385392D02*
Y1395392D01*
X3133049Y1389181D02*
X3143049D01*
X3138049Y1384181D02*
Y1394181D01*
X3093660Y1382215D02*
X3103660D01*
X3098660Y1377215D02*
Y1387215D01*
X3053660Y1382215D02*
X3063660D01*
X3058660Y1377215D02*
Y1387215D01*
X3013898Y1377859D02*
X3023898D01*
X3018898Y1372859D02*
Y1382859D01*
X2984212Y1351049D02*
X2994212D01*
X2989212Y1346049D02*
Y1356049D01*
X2955928Y1322765D02*
X2965928D01*
X2960928Y1317765D02*
Y1327765D01*
X2917344Y1312215D02*
X2927344D01*
X2922344Y1307215D02*
Y1317215D01*
X2877344Y1312215D02*
X2887344D01*
X2882344Y1307215D02*
Y1317215D01*
X2837356Y1313180D02*
X2847356D01*
X2842356Y1308180D02*
Y1318180D01*
X2809072Y1341464D02*
X2819072D01*
X2814072Y1336464D02*
Y1346464D01*
X2780787Y1369748D02*
X2790787D01*
X2785787Y1364748D02*
Y1374748D01*
X2752503Y1398033D02*
X2762503D01*
X2757503Y1393033D02*
Y1403033D01*
X2724219Y1426317D02*
X2734219D01*
X2729219Y1421317D02*
Y1431317D01*
X2689875Y1446823D02*
X2699875D01*
X2694875Y1441823D02*
Y1451823D01*
X3237734Y2346612D02*
X3247734D01*
X3242734Y2341612D02*
Y2351612D01*
X3197734Y2346612D02*
X3207734D01*
X3202734Y2341612D02*
Y2351612D01*
X3157734Y2346612D02*
X3167734D01*
X3162734Y2341612D02*
Y2351612D01*
X3118853Y2337215D02*
X3128853D01*
X3123853Y2332215D02*
Y2342215D01*
X3078853Y2337215D02*
X3088853D01*
X3083853Y2332215D02*
Y2342215D01*
X3038853Y2337215D02*
X3048853D01*
X3043853Y2332215D02*
Y2342215D01*
X2998853Y2337215D02*
X3008853D01*
X3003853Y2332215D02*
Y2342215D01*
X2958853Y2337215D02*
X2968853D01*
X2963853Y2332215D02*
Y2342215D01*
X2918853Y2337215D02*
X2928853D01*
X2923853Y2332215D02*
Y2342215D01*
X2878853Y2337215D02*
X2888853D01*
X2883853Y2332215D02*
Y2342215D01*
X2838853Y2337215D02*
X2848853D01*
X2843853Y2332215D02*
Y2342215D01*
X2798853Y2337215D02*
X2808853D01*
X2803853Y2332215D02*
Y2342215D01*
X2778992Y2262785D02*
X2788992D01*
X2783992Y2257785D02*
Y2267785D01*
X2818992Y2262785D02*
X2828992D01*
X2823992Y2257785D02*
Y2267785D01*
X2858992Y2262785D02*
X2868992D01*
X2863992Y2257785D02*
Y2267785D01*
X2898992Y2262785D02*
X2908992D01*
X2903992Y2257785D02*
Y2267785D01*
X2938992Y2262785D02*
X2948992D01*
X2943992Y2257785D02*
Y2267785D01*
X2978992Y2262785D02*
X2988992D01*
X2983992Y2257785D02*
Y2267785D01*
X3018992Y2262785D02*
X3028992D01*
X3023992Y2257785D02*
Y2267785D01*
X3058992Y2262785D02*
X3068992D01*
X3063992Y2257785D02*
Y2267785D01*
X3098992Y2262785D02*
X3108992D01*
X3103992Y2257785D02*
Y2267785D01*
X3138382Y2255829D02*
X3148382D01*
X3143382Y2250829D02*
Y2260829D01*
X3178382Y2255829D02*
X3188382D01*
X3183382Y2250829D02*
Y2260829D01*
X3218382Y2255829D02*
X3228382D01*
X3223382Y2250829D02*
Y2260829D01*
X3258382Y2255829D02*
X3268382D01*
X3263382Y2250829D02*
Y2260829D01*
X1700000Y1060000D02*
X1710000D01*
X1705000Y1055000D02*
Y1065000D01*
X1525000Y1195000D02*
X1535000D01*
X1530000Y1190000D02*
Y1200000D01*
X1595000Y1235000D02*
X1605000D01*
X1600000Y1230000D02*
Y1240000D01*
Y1015000D02*
X1610000D01*
X1605000Y1010000D02*
Y1020000D01*
X1600000Y1060000D02*
X1610000D01*
X1605000Y1055000D02*
Y1065000D01*
X1650000Y1010000D02*
X1660000D01*
X1655000Y1005000D02*
Y1015000D01*
X1700000Y1010000D02*
X1710000D01*
X1705000Y1005000D02*
Y1015000D01*
X1750000Y1080000D02*
X1760000D01*
X1755000Y1075000D02*
Y1085000D01*
X1815000Y1080000D02*
X1825000D01*
X1820000Y1075000D02*
Y1085000D01*
X1730000Y1120000D02*
X1740000D01*
X1735000Y1115000D02*
Y1125000D01*
X1845000Y1120000D02*
X1855000D01*
X1850000Y1115000D02*
Y1125000D01*
X1785000Y1120000D02*
X1795000D01*
X1790000Y1115000D02*
Y1125000D01*
X1880000Y1180000D02*
X1890000D01*
X1885000Y1175000D02*
Y1185000D01*
X2050000Y1250000D02*
X2060000D01*
X2055000Y1245000D02*
Y1255000D01*
X2245000Y1250000D02*
X2255000D01*
X2250000Y1245000D02*
Y1255000D01*
X1995000Y1295000D02*
X2005000D01*
X2000000Y1290000D02*
Y1300000D01*
X2115000Y1295000D02*
X2125000D01*
X2120000Y1290000D02*
Y1300000D01*
X2180000Y1295000D02*
X2190000D01*
X2185000Y1290000D02*
Y1300000D01*
X1655000Y1760000D02*
X1665000D01*
X1660000Y1755000D02*
Y1765000D01*
X2325000Y1230000D02*
X2335000D01*
X2330000Y1225000D02*
Y1235000D01*
X2374882Y1451653D02*
X2384882D01*
X2379882Y1446653D02*
Y1456653D01*
X2385000Y1265000D02*
X2395000D01*
X2390000Y1260000D02*
Y1270000D01*
X2511653Y1348347D02*
X2521653D01*
X2516653Y1343347D02*
Y1353347D01*
X2468346Y1348347D02*
X2478346D01*
X2473346Y1343347D02*
Y1353347D01*
X2511653Y1391654D02*
X2521653D01*
X2516653Y1386654D02*
Y1396654D01*
X2468346Y1391654D02*
X2478346D01*
X2473346Y1386654D02*
Y1396654D01*
X2505000Y1255000D02*
X2515000D01*
X2510000Y1250000D02*
Y1260000D01*
Y1475000D02*
X2520000D01*
X2515000Y1470000D02*
Y1480000D01*
X3200000Y1170000D02*
X3210000D01*
X3205000Y1165000D02*
Y1175000D01*
X3140000Y1170000D02*
X3150000D01*
X3145000Y1165000D02*
Y1175000D01*
X3265000Y1170000D02*
X3275000D01*
X3270000Y1165000D02*
Y1175000D01*
X3090000Y1190000D02*
X3100000D01*
X3095000Y1185000D02*
Y1195000D01*
X3085000Y1245000D02*
X3095000D01*
X3090000Y1240000D02*
Y1250000D01*
X2605000Y1360000D02*
X2615000D01*
X2610000Y1355000D02*
Y1365000D01*
X3085000Y1430000D02*
X3095000D01*
X3090000Y1425000D02*
Y1435000D01*
X3085000Y1470000D02*
X3095000D01*
X3090000Y1465000D02*
Y1475000D01*
X2585028Y1507956D02*
X2595028D01*
X2590028Y1502956D02*
Y1512956D01*
X3140000Y1520000D02*
X3150000D01*
X3145000Y1515000D02*
Y1525000D01*
X3200000Y1520000D02*
X3210000D01*
X3205000Y1515000D02*
Y1525000D01*
X3260000Y1520000D02*
X3270000D01*
X3265000Y1515000D02*
Y1525000D01*
X1775000Y2335000D02*
X1785000D01*
X1780000Y2330000D02*
Y2340000D01*
X1990000Y2295000D02*
X2000000D01*
X1995000Y2290000D02*
Y2300000D01*
X1940000Y2180000D02*
X1950000D01*
X1945000Y2175000D02*
Y2185000D01*
X1890000Y2345000D02*
X1900000D01*
X1895000Y2340000D02*
Y2350000D01*
X1555000Y2420000D02*
X1565000D01*
X1560000Y2415000D02*
Y2425000D01*
X1492729Y1990692D02*
X1502729D01*
X1497729Y1985692D02*
Y1995692D01*
X1592729Y1960692D02*
X1602729D01*
X1597729Y1955692D02*
Y1965692D01*
X1417729Y2045692D02*
X1427729D01*
X1422729Y2040692D02*
Y2050692D01*
X1472729Y2140692D02*
X1482729D01*
X1477729Y2135692D02*
Y2145692D01*
X1472729Y2045692D02*
X1482729D01*
X1477729Y2040692D02*
Y2050692D01*
X1517729Y2045692D02*
X1527729D01*
X1522729Y2040692D02*
Y2050692D01*
X1800000Y2270000D02*
X1810000D01*
X1805000Y2265000D02*
Y2275000D01*
X1895000Y2145000D02*
X1905000D01*
X1900000Y2140000D02*
Y2150000D01*
X1945000Y2345000D02*
X1955000D01*
X1950000Y2340000D02*
Y2350000D01*
X1660000Y1960000D02*
X1670000D01*
X1665000Y1955000D02*
Y1965000D01*
X1630000Y2055000D02*
X1640000D01*
X1635000Y2050000D02*
Y2060000D01*
X3075000Y2420000D02*
X3085000D01*
X3080000Y2415000D02*
Y2425000D01*
X3075000Y2190000D02*
X3085000D01*
X3080000Y2185000D02*
Y2195000D01*
X3095000Y2120000D02*
X3105000D01*
X3100000Y2115000D02*
Y2125000D01*
X3150000Y2120000D02*
X3160000D01*
X3155000Y2115000D02*
Y2125000D01*
X3200000Y2120000D02*
X3210000D01*
X3205000Y2115000D02*
Y2125000D01*
X3250000Y2120000D02*
X3260000D01*
X3255000Y2115000D02*
Y2125000D01*
X3150000Y2470000D02*
X3160000D01*
X3155000Y2465000D02*
Y2475000D01*
X3240000Y2470000D02*
X3250000D01*
X3245000Y2465000D02*
Y2475000D01*
X3190000Y2470000D02*
X3200000D01*
X3195000Y2465000D02*
Y2475000D01*
X3110000Y2470000D02*
X3120000D01*
X3115000Y2465000D02*
Y2475000D01*
X2725000Y2410000D02*
X2735000D01*
X2730000Y2405000D02*
Y2415000D01*
X2645000Y2410000D02*
X2655000D01*
X2650000Y2405000D02*
Y2415000D01*
X2640000Y2195000D02*
X2650000D01*
X2645000Y2190000D02*
Y2200000D01*
X2740000Y2195000D02*
X2750000D01*
X2745000Y2190000D02*
Y2200000D01*
X2230000Y2035000D02*
X2240000D01*
X2235000Y2030000D02*
Y2040000D01*
X2295000Y2035000D02*
X2305000D01*
X2300000Y2030000D02*
Y2040000D01*
X2350000Y2030000D02*
X2360000D01*
X2355000Y2025000D02*
Y2035000D01*
X2350000Y2070000D02*
X2360000D01*
X2355000Y2065000D02*
Y2075000D01*
X2290000Y2070000D02*
X2300000D01*
X2295000Y2065000D02*
Y2075000D01*
X2230000Y2070000D02*
X2240000D01*
X2235000Y2065000D02*
Y2075000D01*
X1675000Y2055000D02*
X1685000D01*
X1680000Y2050000D02*
Y2060000D01*
X2253149Y2337215D02*
X2263149D01*
X2258149Y2332215D02*
Y2342215D01*
X2213771Y2330185D02*
X2223771D01*
X2218771Y2325185D02*
Y2335185D01*
X2279692Y2262785D02*
X2289692D01*
X2284692Y2257785D02*
Y2267785D01*
X2319692Y2262676D02*
X2329692D01*
X2324692Y2257676D02*
Y2267676D01*
X2320000Y2345000D02*
X2330000D01*
X2325000Y2340000D02*
Y2350000D01*
X2559223Y2261892D02*
X2569223D01*
X2564223Y2256892D02*
Y2266892D01*
X2599213Y2262785D02*
X2609213D01*
X2604213Y2257785D02*
Y2267785D01*
X2688738Y2305897D02*
X2698738D01*
X2693738Y2300897D02*
Y2310897D01*
X2582798Y2337215D02*
X2592798D01*
X2587798Y2332215D02*
Y2342215D01*
X2361359Y2261892D02*
X2371359D01*
X2366359Y2256892D02*
Y2266892D01*
X2481303Y2262785D02*
X2491303D01*
X2486303Y2257785D02*
Y2267785D01*
X2521293Y2261892D02*
X2531293D01*
X2526293Y2256892D02*
Y2266892D01*
X2535115Y2333802D02*
X2545115D01*
X2540115Y2328802D02*
Y2338802D01*
X2495347Y2338108D02*
X2505347D01*
X2500347Y2333108D02*
Y2343108D01*
X2455357Y2337215D02*
X2465357D01*
X2460357Y2332215D02*
Y2342215D01*
X2415357Y2337215D02*
X2425357D01*
X2420357Y2332215D02*
Y2342215D01*
X2375357Y2337215D02*
X2385357D01*
X2380357Y2332215D02*
Y2342215D01*
X2105000Y2290000D02*
X2115000D01*
X2110000Y2285000D02*
Y2295000D01*
X2135000Y2200000D02*
X2145000D01*
X2140000Y2195000D02*
Y2205000D01*
X1355000Y2245000D02*
X1365000D01*
X1360000Y2240000D02*
Y2250000D01*
%TF.MD5,c7c173dce93a4b895e9b7b8d08a0e776*%
M02*
