%TF.GenerationSoftware,Altium Limited,Altium Designer,22.6.1 (34)*%
G04 Layer_Physical_Order=2*
G04 Layer_Color=16711680*
%FSLAX26Y26*%
%MOIN*%
%TF.SameCoordinates,2B337168-DF0E-4336-AB3C-9C7F5D13073F*%
%TF.FilePolarity,Positive*%
%TF.FileFunction,Copper,L2,Bot,Signal*%
%TF.Part,Single*%
G01*
G75*
%TA.AperFunction,ConnectorPad*%
%ADD19R,0.165354X0.053150*%
%TA.AperFunction,Conductor*%
%ADD33C,0.010000*%
%TA.AperFunction,ComponentPad*%
%ADD36R,0.059055X0.059055*%
%ADD37C,0.059055*%
%TA.AperFunction,WasherPad*%
%ADD38C,0.120000*%
%TA.AperFunction,ViaPad*%
%ADD39C,0.020000*%
G36*
X3289805Y2449016D02*
X3210000D01*
Y2412441D01*
Y2375866D01*
X3289805D01*
Y2226575D01*
X3210000D01*
Y2190000D01*
Y2153425D01*
X3289805D01*
Y1492795D01*
X3212126D01*
Y1456220D01*
Y1419646D01*
X3289805D01*
Y1270354D01*
X3212126D01*
Y1233780D01*
Y1197205D01*
X3289805D01*
Y810195D01*
X1010195D01*
Y2789805D01*
X3289805D01*
Y2449016D01*
D02*
G37*
%LPC*%
G36*
X2045000Y2781216D02*
X2044999Y2781215D01*
X1565001D01*
X1565000Y2781216D01*
X1560708Y2780362D01*
X1557069Y2777931D01*
X1557069Y2777930D01*
X1352069Y2572931D01*
X1349638Y2569292D01*
X1348784Y2565000D01*
X1348784Y2564999D01*
Y2256412D01*
X1346436Y2254063D01*
X1344000Y2248183D01*
Y2241817D01*
X1346436Y2235937D01*
X1350937Y2231436D01*
X1356817Y2229000D01*
X1363183D01*
X1369063Y2231436D01*
X1373564Y2235937D01*
X1376000Y2241817D01*
Y2248183D01*
X1373564Y2254063D01*
X1371216Y2256412D01*
Y2560354D01*
X1569646Y2758785D01*
X2040354D01*
X2088186Y2710952D01*
X2086894Y2708713D01*
X2084472Y2699677D01*
Y2690323D01*
X2086894Y2681287D01*
X2091571Y2673186D01*
X2098186Y2666571D01*
X2106287Y2661894D01*
X2115323Y2659472D01*
X2124677D01*
X2133713Y2661894D01*
X2141814Y2666571D01*
X2148429Y2673186D01*
X2153106Y2681287D01*
X2155528Y2690323D01*
Y2699677D01*
X2153106Y2708713D01*
X2148429Y2716814D01*
X2141814Y2723429D01*
X2133713Y2728106D01*
X2124677Y2730528D01*
X2115323D01*
X2106287Y2728106D01*
X2104048Y2726814D01*
X2052931Y2777931D01*
X2049292Y2780362D01*
X2045000Y2781216D01*
D02*
G37*
G36*
X2225204Y2734528D02*
X2225000D01*
Y2700000D01*
X2259528D01*
Y2700204D01*
X2256834Y2710257D01*
X2251630Y2719271D01*
X2244271Y2726630D01*
X2235257Y2731834D01*
X2225204Y2734528D01*
D02*
G37*
G36*
X2215000D02*
X2214796D01*
X2204743Y2731834D01*
X2195729Y2726630D01*
X2188370Y2719271D01*
X2183166Y2710257D01*
X2180472Y2700204D01*
Y2700000D01*
X2215000D01*
Y2734528D01*
D02*
G37*
G36*
X2355528Y2730528D02*
X2284472D01*
Y2659472D01*
X2355528D01*
Y2730528D01*
D02*
G37*
G36*
X2259528Y2690000D02*
X2225000D01*
Y2655472D01*
X2225204D01*
X2235257Y2658166D01*
X2244271Y2663370D01*
X2251630Y2670729D01*
X2256834Y2679743D01*
X2259528Y2689796D01*
Y2690000D01*
D02*
G37*
G36*
X2215000D02*
X2180472D01*
Y2689796D01*
X2183166Y2679743D01*
X2188370Y2670729D01*
X2195729Y2663370D01*
X2204743Y2658166D01*
X2214796Y2655472D01*
X2215000D01*
Y2690000D01*
D02*
G37*
G36*
X3206500Y2766000D02*
X3193500D01*
X3180749Y2763464D01*
X3168737Y2758488D01*
X3157927Y2751265D01*
X3148735Y2742073D01*
X3141512Y2731263D01*
X3136536Y2719251D01*
X3134000Y2706500D01*
Y2693500D01*
X3136536Y2680749D01*
X3141512Y2668737D01*
X3148735Y2657927D01*
X3157927Y2648735D01*
X3168737Y2641512D01*
X3180749Y2636536D01*
X3193500Y2634000D01*
X3206500D01*
X3219251Y2636536D01*
X3231263Y2641512D01*
X3242073Y2648735D01*
X3251265Y2657927D01*
X3258488Y2668737D01*
X3263464Y2680749D01*
X3266000Y2693500D01*
Y2706500D01*
X3263464Y2719251D01*
X3258488Y2731263D01*
X3251265Y2742073D01*
X3242073Y2751265D01*
X3231263Y2758488D01*
X3219251Y2763464D01*
X3206500Y2766000D01*
D02*
G37*
G36*
X1106500D02*
X1093500D01*
X1080748Y2763464D01*
X1068737Y2758488D01*
X1057928Y2751265D01*
X1048735Y2742073D01*
X1041512Y2731263D01*
X1036536Y2719251D01*
X1034000Y2706500D01*
Y2693500D01*
X1036536Y2680749D01*
X1041512Y2668737D01*
X1048735Y2657927D01*
X1057928Y2648735D01*
X1068737Y2641512D01*
X1080748Y2636536D01*
X1093500Y2634000D01*
X1106500D01*
X1119252Y2636536D01*
X1131263Y2641512D01*
X1142072Y2648735D01*
X1151265Y2657927D01*
X1158488Y2668737D01*
X1163464Y2680749D01*
X1166000Y2693500D01*
Y2706500D01*
X1163464Y2719251D01*
X1158488Y2731263D01*
X1151265Y2742073D01*
X1142072Y2751265D01*
X1131263Y2758488D01*
X1119252Y2763464D01*
X1106500Y2766000D01*
D02*
G37*
G36*
X3200000Y2449016D02*
X3112323D01*
Y2417441D01*
X3200000D01*
Y2449016D01*
D02*
G37*
G36*
Y2407441D02*
X3112323D01*
Y2375866D01*
X3200000D01*
Y2407441D01*
D02*
G37*
G36*
X1254677Y2435528D02*
X1245323D01*
X1236287Y2433106D01*
X1228186Y2428429D01*
X1221571Y2421814D01*
X1216894Y2413713D01*
X1214473Y2404677D01*
Y2395323D01*
X1216894Y2386287D01*
X1221571Y2378186D01*
X1228186Y2371571D01*
X1236287Y2366894D01*
X1245323Y2364472D01*
X1254677D01*
X1263713Y2366894D01*
X1271814Y2371571D01*
X1278429Y2378186D01*
X1283106Y2386287D01*
X1285527Y2395323D01*
Y2404677D01*
X1283106Y2413713D01*
X1278429Y2421814D01*
X1271814Y2428429D01*
X1263713Y2433106D01*
X1254677Y2435528D01*
D02*
G37*
G36*
X1185527D02*
X1114473D01*
Y2364472D01*
X1185527D01*
Y2435528D01*
D02*
G37*
G36*
X1824677Y2730528D02*
X1815323D01*
X1806287Y2728106D01*
X1798186Y2723429D01*
X1791571Y2716814D01*
X1786894Y2708713D01*
X1784473Y2699677D01*
Y2690323D01*
X1786894Y2681287D01*
X1791571Y2673186D01*
X1798186Y2666571D01*
X1806287Y2661894D01*
X1808784Y2661224D01*
Y2379646D01*
X1780139Y2351000D01*
X1776817D01*
X1770937Y2348564D01*
X1766436Y2344063D01*
X1764000Y2338183D01*
Y2331817D01*
X1766436Y2325937D01*
X1770937Y2321436D01*
X1776817Y2319000D01*
X1783183D01*
X1789063Y2321436D01*
X1793564Y2325937D01*
X1796000Y2331817D01*
Y2335139D01*
X1827930Y2367069D01*
X1827931Y2367069D01*
X1830362Y2370708D01*
X1831216Y2375000D01*
Y2661224D01*
X1833713Y2661894D01*
X1841814Y2666571D01*
X1848429Y2673186D01*
X1853106Y2681287D01*
X1855527Y2690323D01*
Y2699677D01*
X1853106Y2708713D01*
X1848429Y2716814D01*
X1841814Y2723429D01*
X1833713Y2728106D01*
X1824677Y2730528D01*
D02*
G37*
G36*
X3200000Y2226575D02*
X3112323D01*
Y2195000D01*
X3200000D01*
Y2226575D01*
D02*
G37*
G36*
X1924677Y2730528D02*
X1915323D01*
X1906287Y2728106D01*
X1898186Y2723429D01*
X1891571Y2716814D01*
X1886894Y2708713D01*
X1884473Y2699677D01*
Y2690323D01*
X1886894Y2681287D01*
X1891571Y2673186D01*
X1898186Y2666571D01*
X1906287Y2661894D01*
X1908784Y2661224D01*
Y2480001D01*
X1908784Y2480000D01*
X1909638Y2475708D01*
X1912069Y2472069D01*
X2090661Y2293478D01*
Y2286522D01*
X2082069Y2277931D01*
X2079638Y2274292D01*
X2078784Y2270000D01*
X2078785Y2269999D01*
Y2240001D01*
X2078784Y2240000D01*
X2079638Y2235708D01*
X2082069Y2232069D01*
X2101113Y2213026D01*
X2104751Y2210595D01*
X2109043Y2209741D01*
X2109044Y2209741D01*
X2114398D01*
X2124000Y2200139D01*
Y2196817D01*
X2126436Y2190937D01*
X2130937Y2186436D01*
X2136817Y2184000D01*
X2143183D01*
X2149063Y2186436D01*
X2153564Y2190937D01*
X2156000Y2196817D01*
Y2203183D01*
X2153564Y2209063D01*
X2149063Y2213564D01*
X2143183Y2216000D01*
X2139861D01*
X2126974Y2228887D01*
X2123335Y2231318D01*
X2119043Y2232172D01*
X2119043Y2232172D01*
X2113689D01*
X2101215Y2244646D01*
Y2265354D01*
X2109861Y2274000D01*
X2113183D01*
X2119063Y2276436D01*
X2123564Y2280937D01*
X2126000Y2286817D01*
Y2293183D01*
X2123564Y2299063D01*
X2119063Y2303564D01*
X2113183Y2306000D01*
X2109861D01*
X1931216Y2484646D01*
Y2661224D01*
X1933713Y2661894D01*
X1941814Y2666571D01*
X1948429Y2673186D01*
X1953106Y2681287D01*
X1955527Y2690323D01*
Y2699677D01*
X1953106Y2708713D01*
X1948429Y2716814D01*
X1941814Y2723429D01*
X1933713Y2728106D01*
X1924677Y2730528D01*
D02*
G37*
G36*
X3200000Y2185000D02*
X3112323D01*
Y2153425D01*
X3200000D01*
Y2185000D01*
D02*
G37*
G36*
X1255204Y2139528D02*
X1255000D01*
Y2105000D01*
X1289527D01*
Y2105204D01*
X1286834Y2115257D01*
X1281630Y2124271D01*
X1274271Y2131630D01*
X1265257Y2136834D01*
X1255204Y2139528D01*
D02*
G37*
G36*
X1245000D02*
X1244796D01*
X1234743Y2136834D01*
X1225729Y2131630D01*
X1218370Y2124271D01*
X1213166Y2115257D01*
X1210473Y2105204D01*
Y2105000D01*
X1245000D01*
Y2139528D01*
D02*
G37*
G36*
X1189527D02*
X1155000D01*
Y2105000D01*
X1189527D01*
Y2139528D01*
D02*
G37*
G36*
X1145000D02*
X1110473D01*
Y2105000D01*
X1145000D01*
Y2139528D01*
D02*
G37*
G36*
X1289527Y2095000D02*
X1255000D01*
Y2060472D01*
X1255204D01*
X1265257Y2063166D01*
X1274271Y2068370D01*
X1281630Y2075729D01*
X1286834Y2084743D01*
X1289527Y2094796D01*
Y2095000D01*
D02*
G37*
G36*
X1245000D02*
X1210473D01*
Y2094796D01*
X1213166Y2084743D01*
X1218370Y2075729D01*
X1225729Y2068370D01*
X1234743Y2063166D01*
X1244796Y2060472D01*
X1245000D01*
Y2095000D01*
D02*
G37*
G36*
X1189527D02*
X1155000D01*
Y2060472D01*
X1189527D01*
Y2095000D01*
D02*
G37*
G36*
X1145000D02*
X1110473D01*
Y2060472D01*
X1145000D01*
Y2095000D01*
D02*
G37*
G36*
X1257128Y1540527D02*
X1247773D01*
X1238737Y1538106D01*
X1230636Y1533429D01*
X1224021Y1526814D01*
X1219344Y1518713D01*
X1216923Y1509677D01*
Y1500323D01*
X1219344Y1491287D01*
X1224021Y1483186D01*
X1230636Y1476571D01*
X1238737Y1471894D01*
X1247773Y1469473D01*
X1257128D01*
X1266163Y1471894D01*
X1274265Y1476571D01*
X1280879Y1483186D01*
X1285557Y1491287D01*
X1287978Y1500323D01*
Y1509677D01*
X1285557Y1518713D01*
X1280879Y1526814D01*
X1274265Y1533429D01*
X1266163Y1538106D01*
X1257128Y1540527D01*
D02*
G37*
G36*
X1187978D02*
X1116923D01*
Y1469473D01*
X1187978D01*
Y1540527D01*
D02*
G37*
G36*
X3202126Y1492795D02*
X3114449D01*
Y1461220D01*
X3202126D01*
Y1492795D01*
D02*
G37*
G36*
Y1451220D02*
X3114449D01*
Y1419646D01*
X3202126D01*
Y1451220D01*
D02*
G37*
G36*
X2024677Y2730528D02*
X2015323D01*
X2006287Y2728106D01*
X1998186Y2723429D01*
X1991571Y2716814D01*
X1986894Y2708713D01*
X1984473Y2699677D01*
Y2690323D01*
X1986894Y2681287D01*
X1991571Y2673186D01*
X1998186Y2666571D01*
X2006287Y2661894D01*
X2015323Y2659472D01*
X2024677D01*
X2033713Y2661894D01*
X2035952Y2663186D01*
X2183785Y2515354D01*
X2183784Y1370000D01*
X2183784Y1370000D01*
X2184638Y1365708D01*
X2187069Y1362069D01*
X2292069Y1257070D01*
X2292069Y1257069D01*
X2295708Y1254638D01*
X2300000Y1253784D01*
X2300000Y1253784D01*
X2378588D01*
X2380937Y1251436D01*
X2386817Y1249000D01*
X2393183D01*
X2399063Y1251436D01*
X2403564Y1255937D01*
X2406000Y1261817D01*
Y1268183D01*
X2403564Y1274063D01*
X2399063Y1278564D01*
X2393183Y1281000D01*
X2386817D01*
X2380937Y1278564D01*
X2378588Y1276216D01*
X2304645D01*
X2206215Y1374646D01*
X2206215Y2519999D01*
X2206216Y2520000D01*
X2205362Y2524292D01*
X2202931Y2527931D01*
X2202930Y2527931D01*
X2051814Y2679048D01*
X2053106Y2681287D01*
X2055528Y2690323D01*
Y2699677D01*
X2053106Y2708713D01*
X2048429Y2716814D01*
X2041814Y2723429D01*
X2033713Y2728106D01*
X2024677Y2730528D01*
D02*
G37*
G36*
X2383064Y1467653D02*
X2376699D01*
X2370819Y1465218D01*
X2366318Y1460717D01*
X2363882Y1454836D01*
Y1448471D01*
X2366318Y1442590D01*
X2368666Y1440242D01*
Y1375119D01*
X2368666Y1375118D01*
X2369520Y1370826D01*
X2371951Y1367188D01*
X2490156Y1248983D01*
X2490156Y1248983D01*
X2493795Y1246552D01*
X2496395Y1246034D01*
X2496436Y1245937D01*
X2500937Y1241436D01*
X2506817Y1239000D01*
X2513183D01*
X2519063Y1241436D01*
X2523564Y1245937D01*
X2526000Y1251817D01*
Y1258183D01*
X2523564Y1264063D01*
X2519063Y1268564D01*
X2513183Y1271000D01*
X2506817D01*
X2501898Y1268963D01*
X2391097Y1379764D01*
Y1440242D01*
X2393446Y1442590D01*
X2395882Y1448471D01*
Y1454836D01*
X2393446Y1460717D01*
X2388945Y1465218D01*
X2383064Y1467653D01*
D02*
G37*
G36*
X3202126Y1270354D02*
X3114449D01*
Y1238780D01*
X3202126D01*
Y1270354D01*
D02*
G37*
G36*
Y1228780D02*
X3114449D01*
Y1197205D01*
X3202126D01*
Y1228780D01*
D02*
G37*
G36*
X3206500Y966000D02*
X3193500D01*
X3180749Y963464D01*
X3168737Y958488D01*
X3157927Y951265D01*
X3148735Y942072D01*
X3141512Y931263D01*
X3136536Y919251D01*
X3134000Y906500D01*
Y893500D01*
X3136536Y880749D01*
X3141512Y868737D01*
X3148735Y857928D01*
X3157927Y848735D01*
X3168737Y841512D01*
X3180749Y836536D01*
X3193500Y834000D01*
X3206500D01*
X3219251Y836536D01*
X3231263Y841512D01*
X3242073Y848735D01*
X3251265Y857928D01*
X3258488Y868737D01*
X3263464Y880749D01*
X3266000Y893500D01*
Y906500D01*
X3263464Y919251D01*
X3258488Y931263D01*
X3251265Y942072D01*
X3242073Y951265D01*
X3231263Y958488D01*
X3219251Y963464D01*
X3206500Y966000D01*
D02*
G37*
G36*
X1106500D02*
X1093500D01*
X1080748Y963464D01*
X1068737Y958488D01*
X1057928Y951265D01*
X1048735Y942072D01*
X1041512Y931263D01*
X1036536Y919251D01*
X1034000Y906500D01*
Y893500D01*
X1036536Y880749D01*
X1041512Y868737D01*
X1048735Y857928D01*
X1057928Y848735D01*
X1068737Y841512D01*
X1080748Y836536D01*
X1093500Y834000D01*
X1106500D01*
X1119252Y836536D01*
X1131263Y841512D01*
X1142072Y848735D01*
X1151265Y857928D01*
X1158488Y868737D01*
X1163464Y880749D01*
X1166000Y893500D01*
Y906500D01*
X1163464Y919251D01*
X1158488Y931263D01*
X1151265Y942072D01*
X1142072Y951265D01*
X1131263Y958488D01*
X1119252Y963464D01*
X1106500Y966000D01*
D02*
G37*
%LPD*%
D19*
X3207126Y1233780D02*
D03*
Y1456220D02*
D03*
X3205000Y2190000D02*
D03*
Y2412441D02*
D03*
D33*
X2300000Y1265000D02*
X2390000D01*
X2195000Y1370000D02*
X2300000Y1265000D01*
X2379882Y1375118D02*
Y1451653D01*
Y1375118D02*
X2498087Y1256913D01*
X2508087D01*
X2510000Y1255000D01*
X2195000Y1370000D02*
X2195000Y2520000D01*
X1780000Y2335000D02*
X1820000Y2375000D01*
Y2695000D01*
X2020000D02*
X2195000Y2520000D01*
X1920000Y2480000D02*
X2110000Y2290000D01*
X1920000Y2480000D02*
Y2695000D01*
X2090000Y2240000D02*
Y2270000D01*
X2119043Y2220957D02*
X2140000Y2200000D01*
X2090000Y2270000D02*
X2110000Y2290000D01*
X2109043Y2220957D02*
X2119043D01*
X2090000Y2240000D02*
X2109043Y2220957D01*
X2045000Y2770000D02*
X2120000Y2695000D01*
X1565000Y2770000D02*
X2045000D01*
X1360000Y2565000D02*
X1565000Y2770000D01*
X1360000Y2245000D02*
Y2565000D01*
D36*
X1152450Y1505000D02*
D03*
X2320000Y2695000D02*
D03*
X1150000Y2100000D02*
D03*
Y2400000D02*
D03*
D37*
X1252450Y1505000D02*
D03*
X2220000Y2695000D02*
D03*
X2120000D02*
D03*
X2020000D02*
D03*
X1920000D02*
D03*
X1820000D02*
D03*
X1250000Y2100000D02*
D03*
Y2400000D02*
D03*
D38*
X1100000Y2700000D02*
D03*
Y900000D02*
D03*
X3200000D02*
D03*
Y2700000D02*
D03*
D39*
X2605000Y1935000D02*
D03*
X2360000D02*
D03*
X2125000Y1930000D02*
D03*
X1890000Y1935000D02*
D03*
X1640000Y1930000D02*
D03*
X1430000Y1940000D02*
D03*
X1325000Y1830000D02*
D03*
X1320000Y1620000D02*
D03*
X1325000Y1395000D02*
D03*
X1315000Y1160000D02*
D03*
Y945000D02*
D03*
X1440000Y835000D02*
D03*
X1645000Y830000D02*
D03*
X1890000D02*
D03*
X2130000D02*
D03*
X2365000Y835000D02*
D03*
X2600000D02*
D03*
X2830000Y830000D02*
D03*
X2945000Y875000D02*
D03*
Y935000D02*
D03*
X2930000Y1155000D02*
D03*
Y1400000D02*
D03*
X2940000Y1615000D02*
D03*
Y1840000D02*
D03*
X2840000Y1940000D02*
D03*
X2600000Y945000D02*
D03*
X2365000D02*
D03*
X2130000Y950000D02*
D03*
X1890000D02*
D03*
X1650000D02*
D03*
X1445000Y955000D02*
D03*
X1435000Y1165000D02*
D03*
X1440000Y1395000D02*
D03*
X1450000Y1625000D02*
D03*
X1455000Y1820000D02*
D03*
X1650000Y1825000D02*
D03*
X1890000Y1815000D02*
D03*
X2130000D02*
D03*
X2365000D02*
D03*
X2595000D02*
D03*
X2810000Y1620000D02*
D03*
Y1430000D02*
D03*
X2805000Y1155000D02*
D03*
Y945000D02*
D03*
Y1810000D02*
D03*
X2575000Y1230000D02*
D03*
X2695000D02*
D03*
X2635000Y1180000D02*
D03*
X1501892Y1369761D02*
D03*
X1502785Y1329771D02*
D03*
X1501892Y1289781D02*
D03*
X1603958Y1256096D02*
D03*
X1582502Y1383973D02*
D03*
X1580325Y1344033D02*
D03*
X1710458Y1197785D02*
D03*
X1783108Y1221569D02*
D03*
X1779641Y1261418D02*
D03*
X1632142Y1394074D02*
D03*
X1646568Y1416061D02*
D03*
X1788933Y1320344D02*
D03*
X1868933D02*
D03*
X1908933D02*
D03*
X1921668Y1398108D02*
D03*
X1881807Y1394774D02*
D03*
X1841807D02*
D03*
X1801807D02*
D03*
X1761807D02*
D03*
X1721975Y1398435D02*
D03*
X1722551Y1438431D02*
D03*
X2076288Y1397215D02*
D03*
X2036288Y1397215D02*
D03*
X1996288D02*
D03*
X1956298Y1398108D02*
D03*
X1942424Y1326212D02*
D03*
X1982190Y1321892D02*
D03*
X2022180Y1322785D02*
D03*
X2102133Y1322785D02*
D03*
X2125000Y1405000D02*
D03*
X2150981Y1325466D02*
D03*
X2190820Y1321892D02*
D03*
X2310742Y1320344D02*
D03*
X2350742D02*
D03*
X2390742D02*
D03*
X2357723Y1394774D02*
D03*
X2317723D02*
D03*
X2277723D02*
D03*
X2237798Y1397215D02*
D03*
X2160000Y1405000D02*
D03*
X2649407Y1447215D02*
D03*
X2609407D02*
D03*
X2569647Y1442840D02*
D03*
X2656363Y1372785D02*
D03*
X2693164Y1357111D02*
D03*
X2721448Y1328827D02*
D03*
X2749733Y1300543D02*
D03*
X2778017Y1272259D02*
D03*
X2806947Y1244635D02*
D03*
X2926356Y1237785D02*
D03*
X2966356Y1237897D02*
D03*
X3001115Y1257691D02*
D03*
X3029399Y1285975D02*
D03*
X3062930Y1307785D02*
D03*
X3102930D02*
D03*
X3142165Y1300000D02*
D03*
X3182163Y1299608D02*
D03*
X3222163D02*
D03*
X3262163D02*
D03*
X3258030Y1390392D02*
D03*
X3218030D02*
D03*
X3178030D02*
D03*
X3138049Y1389181D02*
D03*
X3098660Y1382215D02*
D03*
X3058660D02*
D03*
X3018898Y1377859D02*
D03*
X2989212Y1351049D02*
D03*
X2960928Y1322765D02*
D03*
X2922344Y1312215D02*
D03*
X2882344D02*
D03*
X2842356Y1313180D02*
D03*
X2814072Y1341464D02*
D03*
X2785787Y1369748D02*
D03*
X2757503Y1398033D02*
D03*
X2729219Y1426317D02*
D03*
X2694875Y1446823D02*
D03*
X3242734Y2346612D02*
D03*
X3202734D02*
D03*
X3162734D02*
D03*
X3123853Y2337215D02*
D03*
X3083853D02*
D03*
X3043853D02*
D03*
X3003853D02*
D03*
X2963853D02*
D03*
X2923853D02*
D03*
X2883853D02*
D03*
X2843853D02*
D03*
X2803853D02*
D03*
X2783992Y2262785D02*
D03*
X2823992D02*
D03*
X2863992D02*
D03*
X2903992D02*
D03*
X2943992D02*
D03*
X2983992D02*
D03*
X3023992D02*
D03*
X3063992D02*
D03*
X3103992D02*
D03*
X3143382Y2255829D02*
D03*
X3183382D02*
D03*
X3223382D02*
D03*
X3263382D02*
D03*
X1705000Y1060000D02*
D03*
X1530000Y1195000D02*
D03*
X1600000Y1235000D02*
D03*
X1605000Y1015000D02*
D03*
Y1060000D02*
D03*
X1655000Y1010000D02*
D03*
X1705000D02*
D03*
X1755000Y1080000D02*
D03*
X1820000D02*
D03*
X1735000Y1120000D02*
D03*
X1850000D02*
D03*
X1790000D02*
D03*
X1885000Y1180000D02*
D03*
X2055000Y1250000D02*
D03*
X2250000D02*
D03*
X2000000Y1295000D02*
D03*
X2120000D02*
D03*
X2185000D02*
D03*
X1660000Y1760000D02*
D03*
X2330000Y1230000D02*
D03*
X2379882Y1451653D02*
D03*
X2390000Y1265000D02*
D03*
X2516653Y1348347D02*
D03*
X2473346D02*
D03*
X2516653Y1391654D02*
D03*
X2473346D02*
D03*
X2510000Y1255000D02*
D03*
X2515000Y1475000D02*
D03*
X3205000Y1170000D02*
D03*
X3145000D02*
D03*
X3270000D02*
D03*
X3095000Y1190000D02*
D03*
X3090000Y1245000D02*
D03*
X2610000Y1360000D02*
D03*
X3090000Y1430000D02*
D03*
Y1470000D02*
D03*
X2590028Y1507956D02*
D03*
X3145000Y1520000D02*
D03*
X3205000D02*
D03*
X3265000D02*
D03*
X1780000Y2335000D02*
D03*
X1995000Y2295000D02*
D03*
X1945000Y2180000D02*
D03*
X1895000Y2345000D02*
D03*
X1560000Y2420000D02*
D03*
X1497729Y1990692D02*
D03*
X1597729Y1960692D02*
D03*
X1422729Y2045692D02*
D03*
X1477729Y2140692D02*
D03*
Y2045692D02*
D03*
X1522729D02*
D03*
X1805000Y2270000D02*
D03*
X1900000Y2145000D02*
D03*
X1950000Y2345000D02*
D03*
X1665000Y1960000D02*
D03*
X1635000Y2055000D02*
D03*
X3080000Y2420000D02*
D03*
Y2190000D02*
D03*
X3100000Y2120000D02*
D03*
X3155000D02*
D03*
X3205000D02*
D03*
X3255000D02*
D03*
X3155000Y2470000D02*
D03*
X3245000D02*
D03*
X3195000D02*
D03*
X3115000D02*
D03*
X2730000Y2410000D02*
D03*
X2650000D02*
D03*
X2645000Y2195000D02*
D03*
X2745000D02*
D03*
X2235000Y2035000D02*
D03*
X2300000D02*
D03*
X2355000Y2030000D02*
D03*
Y2070000D02*
D03*
X2295000D02*
D03*
X2235000D02*
D03*
X1680000Y2055000D02*
D03*
X2258149Y2337215D02*
D03*
X2218771Y2330185D02*
D03*
X2284692Y2262785D02*
D03*
X2324692Y2262676D02*
D03*
X2325000Y2345000D02*
D03*
X2564223Y2261892D02*
D03*
X2604213Y2262785D02*
D03*
X2693738Y2305897D02*
D03*
X2587798Y2337215D02*
D03*
X2366359Y2261892D02*
D03*
X2486303Y2262785D02*
D03*
X2526293Y2261892D02*
D03*
X2540115Y2333802D02*
D03*
X2500347Y2338108D02*
D03*
X2460357Y2337215D02*
D03*
X2420357D02*
D03*
X2380357D02*
D03*
X2110000Y2290000D02*
D03*
X2140000Y2200000D02*
D03*
X1360000Y2245000D02*
D03*
%TF.MD5,d76e37eec980bf54e9a08949e5a86c94*%
M02*
