%TF.GenerationSoftware,Altium Limited,Altium Designer,22.6.1 (34)*%
G04 Layer_Physical_Order=1*
G04 Layer_Color=255*
%FSLAX26Y26*%
%MOIN*%
%TF.SameCoordinates,2B337168-DF0E-4336-AB3C-9C7F5D13073F*%
%TF.FilePolarity,Positive*%
%TF.FileFunction,Copper,L1,Top,Signal*%
%TF.Part,Single*%
G01*
G75*
%TA.AperFunction,SMDPad,CuDef*%
%ADD10R,0.118110X0.039370*%
%ADD11R,0.039370X0.120079*%
%ADD12R,0.039370X0.129921*%
%ADD13R,0.039370X0.106299*%
%ADD14R,0.129921X0.039370*%
%ADD15R,0.094488X0.094488*%
G04:AMPARAMS|DCode=16|XSize=16.535mil|YSize=25.591mil|CornerRadius=4.134mil|HoleSize=0mil|Usage=FLASHONLY|Rotation=0.000|XOffset=0mil|YOffset=0mil|HoleType=Round|Shape=RoundedRectangle|*
%AMROUNDEDRECTD16*
21,1,0.016535,0.017323,0,0,0.0*
21,1,0.008268,0.025591,0,0,0.0*
1,1,0.008268,0.004134,-0.008662*
1,1,0.008268,-0.004134,-0.008662*
1,1,0.008268,-0.004134,0.008662*
1,1,0.008268,0.004134,0.008662*
%
%ADD16ROUNDEDRECTD16*%
G04:AMPARAMS|DCode=17|XSize=16.535mil|YSize=25.591mil|CornerRadius=4.134mil|HoleSize=0mil|Usage=FLASHONLY|Rotation=90.000|XOffset=0mil|YOffset=0mil|HoleType=Round|Shape=RoundedRectangle|*
%AMROUNDEDRECTD17*
21,1,0.016535,0.017323,0,0,90.0*
21,1,0.008268,0.025591,0,0,90.0*
1,1,0.008268,0.008662,0.004134*
1,1,0.008268,0.008662,-0.004134*
1,1,0.008268,-0.008662,-0.004134*
1,1,0.008268,-0.008662,0.004134*
%
%ADD17ROUNDEDRECTD17*%
%TA.AperFunction,ConnectorPad*%
%ADD18R,0.141732X0.050000*%
%ADD19R,0.165354X0.053150*%
%TA.AperFunction,SMDPad,CuDef*%
%ADD20R,0.035433X0.031496*%
%ADD21R,0.031496X0.035433*%
%ADD22R,0.023622X0.031496*%
%ADD23R,0.066929X0.031890*%
%ADD24R,0.041339X0.031890*%
G04:AMPARAMS|DCode=25|XSize=46.85mil|YSize=15.748mil|CornerRadius=1.968mil|HoleSize=0mil|Usage=FLASHONLY|Rotation=180.000|XOffset=0mil|YOffset=0mil|HoleType=Round|Shape=RoundedRectangle|*
%AMROUNDEDRECTD25*
21,1,0.046850,0.011811,0,0,180.0*
21,1,0.042913,0.015748,0,0,180.0*
1,1,0.003937,-0.021457,0.005906*
1,1,0.003937,0.021457,0.005906*
1,1,0.003937,0.021457,-0.005906*
1,1,0.003937,-0.021457,-0.005906*
%
%ADD25ROUNDEDRECTD25*%
%ADD26R,0.046110X0.013811*%
%ADD27R,0.055118X0.043307*%
G04:AMPARAMS|DCode=28|XSize=47.638mil|YSize=23.228mil|CornerRadius=5.807mil|HoleSize=0mil|Usage=FLASHONLY|Rotation=270.000|XOffset=0mil|YOffset=0mil|HoleType=Round|Shape=RoundedRectangle|*
%AMROUNDEDRECTD28*
21,1,0.047638,0.011614,0,0,270.0*
21,1,0.036024,0.023228,0,0,270.0*
1,1,0.011614,-0.005807,-0.018012*
1,1,0.011614,-0.005807,0.018012*
1,1,0.011614,0.005807,0.018012*
1,1,0.011614,0.005807,-0.018012*
%
%ADD28ROUNDEDRECTD28*%
%ADD29R,0.078740X0.051181*%
%ADD30R,0.078740X0.078740*%
%TA.AperFunction,Conductor*%
%ADD31C,0.050000*%
%ADD32C,0.033000*%
%ADD33C,0.010000*%
%ADD34C,0.020000*%
%ADD35C,0.006000*%
%TA.AperFunction,ComponentPad*%
%ADD36R,0.059055X0.059055*%
%ADD37C,0.059055*%
%TA.AperFunction,WasherPad*%
%ADD38C,0.120000*%
%TA.AperFunction,ViaPad*%
%ADD39C,0.020000*%
G36*
X3289805Y2449016D02*
X3210000D01*
Y2412441D01*
Y2375866D01*
X3289805D01*
Y2337194D01*
X3289740Y2332221D01*
X3284805Y2332220D01*
X3136008D01*
Y2322941D01*
X2767992D01*
Y2342047D01*
X2737323D01*
X2706653D01*
Y2321102D01*
X2710653D01*
Y2278898D01*
X2679347D01*
Y2321102D01*
X2683347D01*
Y2342047D01*
X2652677D01*
X2622008D01*
Y2322941D01*
X2589307D01*
Y2323716D01*
X2545811D01*
Y2305996D01*
X2544618Y2300000D01*
X2545811Y2294003D01*
Y2276283D01*
X2589307D01*
Y2277059D01*
X2622008D01*
Y2257953D01*
X2652677D01*
Y2252953D01*
X2657677D01*
Y2227008D01*
X2719528D01*
Y2252953D01*
X2724528D01*
Y2257953D01*
X2767992D01*
Y2277059D01*
X3136008D01*
Y2270220D01*
X3284805D01*
X3289740Y2270220D01*
X3289805Y2265247D01*
Y2226575D01*
X3210000D01*
Y2190000D01*
Y2153425D01*
X3289805D01*
Y1492795D01*
X3212126D01*
Y1456220D01*
Y1419646D01*
X3289805D01*
Y1376000D01*
X3138134D01*
Y1367941D01*
X3035793D01*
X3027014Y1366195D01*
X3019572Y1361222D01*
X2956291Y1297941D01*
X2837408D01*
X2709127Y1426222D01*
X2701685Y1431195D01*
X2692906Y1432941D01*
X2586588D01*
X2577808Y1431195D01*
X2570366Y1426222D01*
X2568114Y1422852D01*
X2554252D01*
X2554071Y1423001D01*
X2552244Y1427244D01*
X2551930Y1432091D01*
Y1432913D01*
X2533386D01*
Y1437913D01*
X2528386D01*
Y1460813D01*
X2523737Y1459889D01*
X2520591Y1457786D01*
X2517444Y1459889D01*
X2512795Y1460813D01*
Y1437913D01*
X2502795D01*
Y1460813D01*
X2498147Y1459889D01*
X2495000Y1457786D01*
X2491853Y1459889D01*
X2487205Y1460813D01*
Y1437913D01*
X2477205D01*
Y1460813D01*
X2472556Y1459889D01*
X2469409Y1457786D01*
X2466263Y1459889D01*
X2461614Y1460813D01*
Y1437913D01*
X2456614D01*
Y1432913D01*
X2438070D01*
Y1432091D01*
X2437756Y1427244D01*
D01*
X2435929Y1423001D01*
X2435748Y1422852D01*
X2424544D01*
X2395882Y1451515D01*
Y1454836D01*
X2393446Y1460717D01*
X2391097Y1463065D01*
Y1476284D01*
X2401630D01*
Y1523716D01*
X2387873D01*
X2387079Y1525634D01*
X2382110Y1532109D01*
X2276267Y1637951D01*
Y1924999D01*
X2276268Y1925000D01*
X2275202Y1933093D01*
X2272079Y1940634D01*
X2267110Y1947110D01*
X2267109Y1947110D01*
X2141719Y2072500D01*
X2222284Y2153065D01*
X2227284Y2152120D01*
Y2134882D01*
X2255000D01*
X2282716D01*
Y2153260D01*
X2302441D01*
Y2130472D01*
X2340000D01*
X2377559D01*
Y2157126D01*
X2373559D01*
Y2212181D01*
X2354245D01*
X2348093Y2214730D01*
X2340000Y2215795D01*
X2296267D01*
Y2223010D01*
X2295202Y2231102D01*
X2292078Y2238644D01*
X2287110Y2245119D01*
X2280634Y2250088D01*
X2273093Y2253212D01*
X2266244Y2254113D01*
Y2260000D01*
X2200134D01*
Y2248095D01*
X2204134D01*
Y2226504D01*
X2230668D01*
X2233733Y2223010D01*
Y2216267D01*
X2210001D01*
X2210000Y2216268D01*
X2201907Y2215202D01*
X2194366Y2212079D01*
X2187890Y2207110D01*
X2187890Y2207109D01*
X2067048Y2086267D01*
X2006267D01*
Y2112048D01*
X2029609Y2135390D01*
X2034131Y2141284D01*
X2049189D01*
Y2188717D01*
X2010693D01*
X2007885Y2188717D01*
X2007500Y2188768D01*
X2005693Y2188717D01*
Y2188530D01*
X1999407Y2187702D01*
X1991866Y2184578D01*
X1985390Y2179609D01*
X1952890Y2147110D01*
X1947922Y2140634D01*
X1944798Y2133093D01*
X1943732Y2125000D01*
X1943733Y2124999D01*
Y2086267D01*
X1842951D01*
X1783117Y2146102D01*
X1802110Y2165095D01*
X1807078Y2171571D01*
X1810202Y2179112D01*
X1810735Y2183158D01*
X1811268Y2187205D01*
X1811267Y2187206D01*
Y2225000D01*
X1810202Y2233093D01*
X1809983Y2233622D01*
X1811168Y2235395D01*
X1811786Y2238504D01*
Y2250315D01*
X1811168Y2253424D01*
X1809406Y2256060D01*
X1806771Y2257821D01*
X1803661Y2258439D01*
X1760748D01*
X1757639Y2257821D01*
X1755003Y2256060D01*
X1753242Y2253424D01*
X1752623Y2250315D01*
Y2239914D01*
X1749798Y2233093D01*
X1748733Y2225000D01*
Y2200156D01*
X1738898Y2190321D01*
X1727110Y2202110D01*
X1720634Y2207078D01*
X1713093Y2210202D01*
X1705000Y2211268D01*
X1704999Y2211267D01*
X1586267D01*
Y2255983D01*
X1586268Y2255984D01*
X1585735Y2260030D01*
X1585202Y2264077D01*
X1582078Y2271618D01*
X1577110Y2278094D01*
X1526897Y2328306D01*
Y2329134D01*
X1526630Y2331166D01*
Y2361315D01*
X1435890D01*
Y2360992D01*
X1335677D01*
X1295444Y2401225D01*
X1397951Y2503733D01*
X2254999D01*
X2255000Y2503732D01*
X2263093Y2504798D01*
X2270634Y2507922D01*
X2277110Y2512890D01*
X2342109Y2577890D01*
X2342110Y2577890D01*
X2347079Y2584366D01*
X2350202Y2591907D01*
X2350735Y2595954D01*
X2351268Y2600000D01*
X2351267Y2600001D01*
Y2659472D01*
X2355528D01*
Y2730528D01*
X2284472D01*
Y2659472D01*
X2288733D01*
Y2612951D01*
X2242048Y2566267D01*
X1385000D01*
X1376907Y2565202D01*
X1369366Y2562078D01*
X1362890Y2557110D01*
X1362890Y2557109D01*
X1239839Y2434058D01*
X1236287Y2433106D01*
X1233102Y2431267D01*
X1185527D01*
Y2435528D01*
X1114473D01*
Y2364472D01*
X1185527D01*
Y2368733D01*
X1233102D01*
X1236287Y2366894D01*
X1243186Y2365045D01*
X1300616Y2307615D01*
X1307092Y2302646D01*
X1314633Y2299522D01*
X1322726Y2298457D01*
X1322727Y2298457D01*
X1435890D01*
Y2298134D01*
X1469769D01*
X1473520Y2293245D01*
X1523733Y2243033D01*
Y2191215D01*
X1514307D01*
Y2203716D01*
X1470811D01*
Y2156283D01*
X1514307D01*
Y2168785D01*
X1523733D01*
Y2124771D01*
X1519096Y2122168D01*
X1518099Y2122476D01*
X1517203Y2123818D01*
X1511975Y2127311D01*
X1505807Y2128538D01*
X1505000D01*
Y2094409D01*
Y2060281D01*
X1505807D01*
X1511975Y2061508D01*
X1517203Y2065001D01*
X1518099Y2066342D01*
X1523082Y2067885D01*
X1526988Y2065276D01*
X1531594Y2064359D01*
X1543209D01*
X1547816Y2065276D01*
X1551721Y2067885D01*
X1554331Y2071791D01*
X1555247Y2076398D01*
Y2078733D01*
X1580000D01*
X1588093Y2079798D01*
X1595634Y2082922D01*
X1600015Y2086284D01*
X1631748D01*
Y2133716D01*
X1600015D01*
X1595634Y2137078D01*
X1588093Y2140202D01*
X1586267Y2140442D01*
Y2148733D01*
X1692049D01*
X1712890Y2127890D01*
X1807890Y2032890D01*
X1814366Y2027921D01*
X1821907Y2024798D01*
X1825954Y2024265D01*
X1830000Y2023732D01*
X1830001Y2023733D01*
X2079999D01*
X2080000Y2023732D01*
X2080001Y2023733D01*
X2102048D01*
X2213733Y1912049D01*
Y1625001D01*
X2213732Y1625000D01*
X2214798Y1616907D01*
X2217922Y1609366D01*
X2222890Y1602890D01*
X2337891Y1487890D01*
X2344366Y1482921D01*
X2351907Y1479798D01*
X2358134Y1478978D01*
Y1476284D01*
X2368666D01*
Y1463065D01*
X2366318Y1460717D01*
X2363882Y1454836D01*
Y1448471D01*
X2366318Y1442590D01*
X2370819Y1438089D01*
X2376699Y1435653D01*
X2380021D01*
X2408093Y1407582D01*
Y1404252D01*
X2408879Y1400298D01*
X2409593Y1399229D01*
X2408728Y1398066D01*
X2402137Y1397585D01*
X2338234Y1461489D01*
X2335257Y1463478D01*
X2331745Y1464176D01*
X2329307D01*
Y1478717D01*
X2285811D01*
Y1431284D01*
X2329307D01*
Y1437928D01*
X2333927Y1439841D01*
X2388649Y1385119D01*
X2386735Y1380500D01*
X2254354D01*
X2253314Y1381195D01*
X2244535Y1382941D01*
X2199307D01*
Y1383717D01*
X2155811D01*
Y1365997D01*
X2154618Y1360000D01*
X2155811Y1354004D01*
Y1336284D01*
X2199307D01*
Y1337059D01*
X2231283D01*
Y1335811D01*
X2244003D01*
X2250000Y1334618D01*
X2400017D01*
X2401798Y1334264D01*
X2404014Y1332445D01*
Y1327480D01*
X2405111Y1321966D01*
X2408235Y1317290D01*
X2412910Y1314167D01*
X2418425Y1313070D01*
X2422087D01*
Y1331614D01*
X2432087D01*
Y1313070D01*
X2432909D01*
X2437756Y1312756D01*
D01*
X2441999Y1310929D01*
X2442148Y1310748D01*
Y1293425D01*
X2442934Y1289471D01*
X2445174Y1286119D01*
X2445399Y1285969D01*
Y1276216D01*
X2401412D01*
X2399063Y1278564D01*
X2393183Y1281000D01*
X2386817D01*
X2380937Y1278564D01*
X2376436Y1274063D01*
X2374000Y1268183D01*
Y1261817D01*
X2376436Y1255937D01*
X2380937Y1251436D01*
X2386817Y1249000D01*
X2393183D01*
X2399063Y1251436D01*
X2401412Y1253784D01*
X2445399D01*
Y1243716D01*
X2435693D01*
Y1196283D01*
X2479189D01*
Y1243716D01*
X2467830D01*
Y1277256D01*
X2472482Y1280066D01*
X2472830Y1280057D01*
X2477205Y1279187D01*
Y1302087D01*
X2487205D01*
Y1279187D01*
X2491853Y1280111D01*
X2495000Y1282214D01*
X2498147Y1280111D01*
X2502795Y1279187D01*
Y1302087D01*
X2512795D01*
Y1279187D01*
X2517444Y1280111D01*
X2520591Y1282214D01*
X2523737Y1280111D01*
X2528386Y1279187D01*
Y1302087D01*
X2533386D01*
Y1307087D01*
X2551930D01*
Y1307909D01*
X2552244Y1312756D01*
D01*
X2554071Y1316999D01*
X2554252Y1317148D01*
X2571575D01*
X2575529Y1317935D01*
X2578881Y1320174D01*
X2583662Y1320004D01*
X2611284Y1292383D01*
Y1265811D01*
X2658717D01*
Y1309307D01*
X2626082D01*
X2595844Y1339545D01*
X2592205Y1341976D01*
X2587913Y1342830D01*
X2587913Y1342830D01*
X2587744D01*
X2584934Y1347482D01*
X2584943Y1347830D01*
X2585813Y1352205D01*
X2562913D01*
Y1362205D01*
X2585813D01*
X2584889Y1366853D01*
X2582786Y1370000D01*
X2584889Y1373147D01*
X2585986Y1378661D01*
Y1382229D01*
X2586573Y1386945D01*
X2590721Y1387059D01*
X2683403D01*
X2811684Y1258778D01*
X2819126Y1253805D01*
X2827906Y1252059D01*
X2965793D01*
X2974572Y1253805D01*
X2982015Y1258778D01*
X3045296Y1322059D01*
X3138134D01*
Y1314000D01*
X3289805D01*
Y1270354D01*
X3212126D01*
Y1233780D01*
Y1197205D01*
X3289805D01*
Y810195D01*
X1010195D01*
Y2789805D01*
X3289805D01*
Y2449016D01*
D02*
G37*
%LPC*%
G36*
X2225204Y2734528D02*
X2225000D01*
Y2700000D01*
X2259528D01*
Y2700204D01*
X2256834Y2710257D01*
X2251630Y2719271D01*
X2244271Y2726630D01*
X2235257Y2731834D01*
X2225204Y2734528D01*
D02*
G37*
G36*
X2215000D02*
X2214796D01*
X2204743Y2731834D01*
X2195729Y2726630D01*
X2188370Y2719271D01*
X2183166Y2710257D01*
X2180472Y2700204D01*
Y2700000D01*
X2215000D01*
Y2734528D01*
D02*
G37*
G36*
X2124677Y2730528D02*
X2115323D01*
X2106287Y2728106D01*
X2098186Y2723429D01*
X2091571Y2716814D01*
X2086894Y2708713D01*
X2084472Y2699677D01*
Y2690323D01*
X2086894Y2681287D01*
X2091571Y2673186D01*
X2098186Y2666571D01*
X2106287Y2661894D01*
X2115323Y2659472D01*
X2124677D01*
X2133713Y2661894D01*
X2141814Y2666571D01*
X2148429Y2673186D01*
X2153106Y2681287D01*
X2155528Y2690323D01*
Y2699677D01*
X2153106Y2708713D01*
X2148429Y2716814D01*
X2141814Y2723429D01*
X2133713Y2728106D01*
X2124677Y2730528D01*
D02*
G37*
G36*
X2024677D02*
X2015323D01*
X2006287Y2728106D01*
X1998186Y2723429D01*
X1991571Y2716814D01*
X1986894Y2708713D01*
X1984473Y2699677D01*
Y2690323D01*
X1986894Y2681287D01*
X1991571Y2673186D01*
X1998186Y2666571D01*
X2006287Y2661894D01*
X2015323Y2659472D01*
X2024677D01*
X2033713Y2661894D01*
X2041814Y2666571D01*
X2048429Y2673186D01*
X2053106Y2681287D01*
X2055528Y2690323D01*
Y2699677D01*
X2053106Y2708713D01*
X2048429Y2716814D01*
X2041814Y2723429D01*
X2033713Y2728106D01*
X2024677Y2730528D01*
D02*
G37*
G36*
X1924677D02*
X1915323D01*
X1906287Y2728106D01*
X1898186Y2723429D01*
X1891571Y2716814D01*
X1886894Y2708713D01*
X1884473Y2699677D01*
Y2690323D01*
X1886894Y2681287D01*
X1891571Y2673186D01*
X1898186Y2666571D01*
X1906287Y2661894D01*
X1915323Y2659472D01*
X1924677D01*
X1933713Y2661894D01*
X1941814Y2666571D01*
X1948429Y2673186D01*
X1953106Y2681287D01*
X1955527Y2690323D01*
Y2699677D01*
X1953106Y2708713D01*
X1948429Y2716814D01*
X1941814Y2723429D01*
X1933713Y2728106D01*
X1924677Y2730528D01*
D02*
G37*
G36*
X1824677D02*
X1815323D01*
X1806287Y2728106D01*
X1798186Y2723429D01*
X1791571Y2716814D01*
X1786894Y2708713D01*
X1784473Y2699677D01*
Y2690323D01*
X1786894Y2681287D01*
X1791571Y2673186D01*
X1798186Y2666571D01*
X1806287Y2661894D01*
X1815323Y2659472D01*
X1824677D01*
X1833713Y2661894D01*
X1841814Y2666571D01*
X1848429Y2673186D01*
X1853106Y2681287D01*
X1855527Y2690323D01*
Y2699677D01*
X1853106Y2708713D01*
X1848429Y2716814D01*
X1841814Y2723429D01*
X1833713Y2728106D01*
X1824677Y2730528D01*
D02*
G37*
G36*
X2259528Y2690000D02*
X2225000D01*
Y2655472D01*
X2225204D01*
X2235257Y2658166D01*
X2244271Y2663370D01*
X2251630Y2670729D01*
X2256834Y2679743D01*
X2259528Y2689796D01*
Y2690000D01*
D02*
G37*
G36*
X2215000D02*
X2180472D01*
Y2689796D01*
X2183166Y2679743D01*
X2188370Y2670729D01*
X2195729Y2663370D01*
X2204743Y2658166D01*
X2214796Y2655472D01*
X2215000D01*
Y2690000D01*
D02*
G37*
G36*
X3206500Y2766000D02*
X3193500D01*
X3180749Y2763464D01*
X3168737Y2758488D01*
X3157927Y2751265D01*
X3148735Y2742073D01*
X3141512Y2731263D01*
X3136536Y2719251D01*
X3134000Y2706500D01*
Y2693500D01*
X3136536Y2680749D01*
X3141512Y2668737D01*
X3148735Y2657927D01*
X3157927Y2648735D01*
X3168737Y2641512D01*
X3180749Y2636536D01*
X3193500Y2634000D01*
X3206500D01*
X3219251Y2636536D01*
X3231263Y2641512D01*
X3242073Y2648735D01*
X3251265Y2657927D01*
X3258488Y2668737D01*
X3263464Y2680749D01*
X3266000Y2693500D01*
Y2706500D01*
X3263464Y2719251D01*
X3258488Y2731263D01*
X3251265Y2742073D01*
X3242073Y2751265D01*
X3231263Y2758488D01*
X3219251Y2763464D01*
X3206500Y2766000D01*
D02*
G37*
G36*
X1106500D02*
X1093500D01*
X1080748Y2763464D01*
X1068737Y2758488D01*
X1057928Y2751265D01*
X1048735Y2742073D01*
X1041512Y2731263D01*
X1036536Y2719251D01*
X1034000Y2706500D01*
Y2693500D01*
X1036536Y2680749D01*
X1041512Y2668737D01*
X1048735Y2657927D01*
X1057928Y2648735D01*
X1068737Y2641512D01*
X1080748Y2636536D01*
X1093500Y2634000D01*
X1106500D01*
X1119252Y2636536D01*
X1131263Y2641512D01*
X1142072Y2648735D01*
X1151265Y2657927D01*
X1158488Y2668737D01*
X1163464Y2680749D01*
X1166000Y2693500D01*
Y2706500D01*
X1163464Y2719251D01*
X1158488Y2731263D01*
X1151265Y2742073D01*
X1142072Y2751265D01*
X1131263Y2758488D01*
X1119252Y2763464D01*
X1106500Y2766000D01*
D02*
G37*
G36*
X1530630Y2455866D02*
X1486260D01*
Y2425276D01*
X1530630D01*
Y2455866D01*
D02*
G37*
G36*
X1476260D02*
X1431890D01*
Y2425276D01*
X1476260D01*
Y2455866D01*
D02*
G37*
G36*
X3200000Y2449016D02*
X3112323D01*
Y2417441D01*
X3200000D01*
Y2449016D01*
D02*
G37*
G36*
X1530630Y2415276D02*
X1486260D01*
Y2384685D01*
X1530630D01*
Y2415276D01*
D02*
G37*
G36*
X1476260D02*
X1431890D01*
Y2384685D01*
X1476260D01*
Y2415276D01*
D02*
G37*
G36*
X3200000Y2407441D02*
X3112323D01*
Y2375866D01*
X3200000D01*
Y2407441D01*
D02*
G37*
G36*
X2683347Y2372992D02*
X2657677D01*
Y2352047D01*
X2683347D01*
Y2372992D01*
D02*
G37*
G36*
X2767992D02*
X2742323D01*
Y2352047D01*
X2767992D01*
Y2372992D01*
D02*
G37*
G36*
X2647677D02*
X2622008D01*
Y2352047D01*
X2647677D01*
Y2372992D01*
D02*
G37*
G36*
X2732323D02*
X2706653D01*
Y2352047D01*
X2732323D01*
Y2372992D01*
D02*
G37*
G36*
X1967716Y2325748D02*
X1945000D01*
Y2305000D01*
X1967716D01*
Y2325748D01*
D02*
G37*
G36*
X1935000D02*
X1912284D01*
Y2305000D01*
X1935000D01*
Y2325748D01*
D02*
G37*
G36*
X1783183Y2351000D02*
X1776817D01*
X1770937Y2348564D01*
X1766436Y2344063D01*
X1764000Y2338183D01*
Y2331817D01*
X1766436Y2325937D01*
X1768784Y2323588D01*
Y2309621D01*
X1760748D01*
X1757639Y2309002D01*
X1755003Y2307241D01*
X1753242Y2304605D01*
X1752623Y2301496D01*
Y2289685D01*
X1753242Y2286576D01*
X1755003Y2283940D01*
X1757639Y2282179D01*
X1760748Y2281561D01*
X1803661D01*
X1806771Y2282179D01*
X1809406Y2283940D01*
X1811168Y2286576D01*
X1811786Y2289685D01*
Y2301496D01*
X1811168Y2304605D01*
X1809406Y2307241D01*
X1806771Y2309002D01*
X1803661Y2309621D01*
X1791216D01*
Y2323588D01*
X1793564Y2325937D01*
X1796000Y2331817D01*
Y2338183D01*
X1793564Y2344063D01*
X1789063Y2348564D01*
X1783183Y2351000D01*
D02*
G37*
G36*
X2326748Y2323716D02*
X2283252D01*
Y2322941D01*
X2240000D01*
X2231221Y2321195D01*
X2223778Y2316222D01*
X2218805Y2308779D01*
X2217755Y2303496D01*
X2204134D01*
Y2281905D01*
X2200134D01*
Y2270000D01*
X2266244D01*
Y2277059D01*
X2283252D01*
Y2276284D01*
X2326748D01*
Y2294003D01*
X2327941Y2300000D01*
X2326748Y2305997D01*
Y2323716D01*
D02*
G37*
G36*
X2381866D02*
X2338370D01*
Y2305996D01*
X2337177Y2300000D01*
X2338370Y2294004D01*
Y2276284D01*
X2381866D01*
Y2277059D01*
X2411283D01*
Y2275811D01*
X2458716D01*
Y2277059D01*
X2490693D01*
Y2276283D01*
X2534189D01*
Y2294003D01*
X2535382Y2300000D01*
X2534189Y2305996D01*
Y2323716D01*
X2490693D01*
Y2322941D01*
X2381866D01*
Y2323716D01*
D02*
G37*
G36*
X1684110Y2420370D02*
X1593370D01*
Y2329630D01*
X1684110D01*
Y2363785D01*
X1810354D01*
X1846580Y2327559D01*
Y2309621D01*
X1836339D01*
X1833229Y2309002D01*
X1830594Y2307241D01*
X1828832Y2304605D01*
X1828214Y2301496D01*
Y2289685D01*
X1828832Y2286576D01*
X1829429Y2285683D01*
X1827710Y2284534D01*
X1825064Y2280575D01*
X1824136Y2275905D01*
Y2275000D01*
X1857795D01*
X1891455D01*
Y2275905D01*
X1890526Y2280575D01*
X1887881Y2284534D01*
X1886162Y2285683D01*
X1886758Y2286576D01*
X1887377Y2289685D01*
Y2301496D01*
X1886758Y2304605D01*
X1884997Y2307241D01*
X1882361Y2309002D01*
X1879252Y2309621D01*
X1869011D01*
Y2332204D01*
X1869011Y2332205D01*
X1868157Y2336497D01*
X1865726Y2340135D01*
X1822931Y2382931D01*
X1819292Y2385362D01*
X1815000Y2386216D01*
X1814999Y2386215D01*
X1684110D01*
Y2420370D01*
D02*
G37*
G36*
X1967716Y2295000D02*
X1945000D01*
Y2274252D01*
X1967716D01*
Y2295000D01*
D02*
G37*
G36*
X1935000D02*
X1912284D01*
Y2274252D01*
X1935000D01*
Y2295000D01*
D02*
G37*
G36*
X2113183Y2306000D02*
X2106817D01*
X2100937Y2303564D01*
X2096436Y2299063D01*
X2094000Y2293183D01*
Y2286817D01*
X2096436Y2280937D01*
X2100937Y2276436D01*
X2106817Y2274000D01*
X2113183D01*
X2119063Y2276436D01*
X2123756Y2274057D01*
Y2270000D01*
X2189866D01*
Y2281905D01*
X2185866D01*
Y2303496D01*
X2127756D01*
Y2301511D01*
X2121117D01*
X2119063Y2303564D01*
X2113183Y2306000D01*
D02*
G37*
G36*
X1963716Y2266630D02*
X1916284D01*
Y2255625D01*
X1893543D01*
X1890765Y2260625D01*
X1891455Y2264095D01*
Y2265000D01*
X1857795D01*
X1824136D01*
Y2264095D01*
X1825064Y2259425D01*
X1827710Y2255466D01*
X1829429Y2254317D01*
X1828832Y2253424D01*
X1828214Y2250315D01*
Y2238504D01*
X1828832Y2235395D01*
X1830594Y2232759D01*
X1833229Y2230998D01*
X1836339Y2230379D01*
X1879252D01*
X1882361Y2230998D01*
X1884997Y2232759D01*
X1885288Y2233194D01*
X1916284D01*
Y2223134D01*
X1963716D01*
Y2228784D01*
X2005693D01*
Y2216283D01*
X2049189D01*
Y2263716D01*
X2005693D01*
Y2251215D01*
X1963716D01*
Y2266630D01*
D02*
G37*
G36*
X2462716Y2268189D02*
X2440000D01*
Y2247441D01*
X2462716D01*
Y2268189D01*
D02*
G37*
G36*
X2430000D02*
X2407283D01*
Y2247441D01*
X2430000D01*
Y2268189D01*
D02*
G37*
G36*
X2767992Y2247953D02*
X2729528D01*
Y2227008D01*
X2767992D01*
Y2247953D01*
D02*
G37*
G36*
X2647677D02*
X2622008D01*
Y2227008D01*
X2647677D01*
Y2247953D01*
D02*
G37*
G36*
X2104307Y2263716D02*
X2060811D01*
Y2216283D01*
X2104307D01*
Y2228784D01*
X2127756D01*
Y2226504D01*
X2185866D01*
Y2248095D01*
X2189866D01*
Y2260000D01*
X2123756D01*
Y2251215D01*
X2104307D01*
Y2263716D01*
D02*
G37*
G36*
X2462716Y2237441D02*
X2440000D01*
Y2216693D01*
X2462716D01*
Y2237441D01*
D02*
G37*
G36*
X2430000D02*
X2407283D01*
Y2216693D01*
X2430000D01*
Y2237441D01*
D02*
G37*
G36*
X3200000Y2226575D02*
X3112323D01*
Y2195000D01*
X3200000D01*
Y2226575D01*
D02*
G37*
G36*
X2143183Y2216000D02*
X2136817D01*
X2130937Y2213564D01*
X2126436Y2209063D01*
X2124000Y2203183D01*
Y2196817D01*
X2124573Y2195434D01*
X2109307Y2180168D01*
X2104307Y2182239D01*
Y2188717D01*
X2060811D01*
Y2141284D01*
X2104307D01*
Y2153785D01*
X2110000D01*
X2110000Y2153785D01*
X2114292Y2154638D01*
X2117931Y2157070D01*
X2146017Y2185156D01*
X2146017Y2185156D01*
X2146034Y2185181D01*
X2149063Y2186436D01*
X2153564Y2190937D01*
X2156000Y2196817D01*
Y2203183D01*
X2153564Y2209063D01*
X2149063Y2213564D01*
X2143183Y2216000D01*
D02*
G37*
G36*
X3200000Y2185000D02*
X3112323D01*
Y2153425D01*
X3200000D01*
Y2185000D01*
D02*
G37*
G36*
X1690866Y2137716D02*
X1670118D01*
Y2115000D01*
X1690866D01*
Y2137716D01*
D02*
G37*
G36*
X1660118D02*
X1639370D01*
Y2115000D01*
X1660118D01*
Y2137716D01*
D02*
G37*
G36*
X1255204Y2139528D02*
X1255000D01*
Y2105000D01*
X1289527D01*
Y2105204D01*
X1286834Y2115257D01*
X1281630Y2124271D01*
X1274271Y2131630D01*
X1265257Y2136834D01*
X1255204Y2139528D01*
D02*
G37*
G36*
X1245000D02*
X1244796D01*
X1234743Y2136834D01*
X1225729Y2131630D01*
X1218370Y2124271D01*
X1213166Y2115257D01*
X1210473Y2105204D01*
Y2105000D01*
X1245000D01*
Y2139528D01*
D02*
G37*
G36*
X1189527D02*
X1155000D01*
Y2105000D01*
X1189527D01*
Y2139528D01*
D02*
G37*
G36*
X1145000D02*
X1110473D01*
Y2105000D01*
X1145000D01*
Y2139528D01*
D02*
G37*
G36*
X2282716Y2124882D02*
X2260000D01*
Y2104134D01*
X2282716D01*
Y2124882D01*
D02*
G37*
G36*
X2250000D02*
X2227284D01*
Y2104134D01*
X2250000D01*
Y2124882D01*
D02*
G37*
G36*
X2377559Y2120472D02*
X2345000D01*
Y2093819D01*
X2377559D01*
Y2120472D01*
D02*
G37*
G36*
X2335000D02*
X2302441D01*
Y2093819D01*
X2335000D01*
Y2120472D01*
D02*
G37*
G36*
X1690866Y2105000D02*
X1670118D01*
Y2082284D01*
X1690866D01*
Y2105000D01*
D02*
G37*
G36*
X1660118D02*
X1639370D01*
Y2082284D01*
X1660118D01*
Y2105000D01*
D02*
G37*
G36*
X1289527Y2095000D02*
X1255000D01*
Y2060472D01*
X1255204D01*
X1265257Y2063166D01*
X1274271Y2068370D01*
X1281630Y2075729D01*
X1286834Y2084743D01*
X1289527Y2094796D01*
Y2095000D01*
D02*
G37*
G36*
X1245000D02*
X1210473D01*
Y2094796D01*
X1213166Y2084743D01*
X1218370Y2075729D01*
X1225729Y2068370D01*
X1234743Y2063166D01*
X1244796Y2060472D01*
X1245000D01*
Y2095000D01*
D02*
G37*
G36*
X1189527D02*
X1155000D01*
Y2060472D01*
X1189527D01*
Y2095000D01*
D02*
G37*
G36*
X1145000D02*
X1110473D01*
Y2060472D01*
X1145000D01*
Y2095000D01*
D02*
G37*
G36*
X1363183Y2261000D02*
X1356817D01*
X1350937Y2258564D01*
X1346436Y2254063D01*
X1344000Y2248183D01*
Y2241817D01*
X1346436Y2235937D01*
X1348784Y2233588D01*
Y2230001D01*
X1348784Y2230000D01*
X1349638Y2225708D01*
X1352069Y2222069D01*
X1402069Y2172070D01*
X1402070Y2172069D01*
X1405708Y2169638D01*
X1410000Y2168784D01*
X1415693D01*
Y2156283D01*
X1428784D01*
Y2129213D01*
X1428784Y2129213D01*
X1429638Y2124921D01*
X1432069Y2121282D01*
X1444753Y2108598D01*
Y2076398D01*
X1445669Y2071791D01*
X1448279Y2067885D01*
X1452184Y2065276D01*
X1456791Y2064359D01*
X1468406D01*
X1473012Y2065276D01*
X1476918Y2067885D01*
X1481901Y2066342D01*
X1482797Y2065001D01*
X1488025Y2061508D01*
X1494193Y2060281D01*
X1495000D01*
Y2094409D01*
Y2128538D01*
X1494193D01*
X1488025Y2127311D01*
X1482797Y2123818D01*
X1481901Y2122476D01*
X1476918Y2120934D01*
X1473012Y2123543D01*
X1468406Y2124460D01*
X1460614D01*
X1451216Y2133858D01*
Y2156283D01*
X1459189D01*
Y2203716D01*
X1415693D01*
Y2197239D01*
X1410693Y2195168D01*
X1371744Y2234117D01*
X1373564Y2235937D01*
X1376000Y2241817D01*
Y2248183D01*
X1373564Y2254063D01*
X1369063Y2258564D01*
X1363183Y2261000D01*
D02*
G37*
G36*
X1468406Y2025641D02*
X1456791D01*
X1452184Y2024724D01*
X1448279Y2022115D01*
X1445669Y2018209D01*
X1444753Y2013602D01*
Y1977579D01*
X1445669Y1972972D01*
X1448279Y1969066D01*
X1452184Y1966457D01*
X1456791Y1965540D01*
X1468406D01*
X1473012Y1966457D01*
X1476918Y1969066D01*
X1479527Y1972972D01*
X1480444Y1977579D01*
Y2013602D01*
X1479527Y2018209D01*
X1476918Y2022115D01*
X1473012Y2024724D01*
X1468406Y2025641D01*
D02*
G37*
G36*
X2674961Y1909685D02*
X2605000D01*
Y1885000D01*
X2674961D01*
Y1909685D01*
D02*
G37*
G36*
X2438740D02*
X2368780D01*
Y1885000D01*
X2438740D01*
Y1909685D01*
D02*
G37*
G36*
X1966299D02*
X1896339D01*
Y1885000D01*
X1966299D01*
Y1909685D01*
D02*
G37*
G36*
X1730079D02*
X1660118D01*
Y1885000D01*
X1730079D01*
Y1909685D01*
D02*
G37*
G36*
X1493858D02*
X1429803D01*
Y1885000D01*
X1493858D01*
Y1909685D01*
D02*
G37*
G36*
X2825315D02*
X2761260D01*
Y1885000D01*
X2825315D01*
Y1909685D01*
D02*
G37*
G36*
X1886339D02*
X1816378D01*
Y1885000D01*
X1886339D01*
Y1909685D01*
D02*
G37*
G36*
X1650118D02*
X1580158D01*
Y1885000D01*
X1650118D01*
Y1909685D01*
D02*
G37*
G36*
X2595000D02*
X2525039D01*
Y1885000D01*
X2595000D01*
Y1909685D01*
D02*
G37*
G36*
X2358780D02*
X2288819D01*
Y1885000D01*
X2358780D01*
Y1909685D01*
D02*
G37*
G36*
X2202520D02*
X2132559D01*
Y1885000D01*
X2202520D01*
Y1909685D01*
D02*
G37*
G36*
X2122559D02*
X2052599D01*
Y1885000D01*
X2122559D01*
Y1909685D01*
D02*
G37*
G36*
X2825315Y1875000D02*
X2761260D01*
Y1850315D01*
X2825315D01*
Y1875000D01*
D02*
G37*
G36*
X2674961D02*
X2605000D01*
Y1850315D01*
X2674961D01*
Y1875000D01*
D02*
G37*
G36*
X2595000D02*
X2525039D01*
Y1850315D01*
X2595000D01*
Y1875000D01*
D02*
G37*
G36*
X2438740D02*
X2368780D01*
Y1850315D01*
X2438740D01*
Y1875000D01*
D02*
G37*
G36*
X2358780D02*
X2288819D01*
Y1850315D01*
X2358780D01*
Y1875000D01*
D02*
G37*
G36*
X2202520Y1875000D02*
X2132559D01*
Y1850315D01*
X2202520D01*
Y1875000D01*
D02*
G37*
G36*
X2122559D02*
X2052599D01*
Y1850315D01*
X2122559D01*
Y1875000D01*
D02*
G37*
G36*
X1966299Y1875000D02*
X1896339D01*
Y1850315D01*
X1966299D01*
Y1875000D01*
D02*
G37*
G36*
X1886339D02*
X1816378D01*
Y1850315D01*
X1886339D01*
Y1875000D01*
D02*
G37*
G36*
X1730079D02*
X1660118D01*
Y1850315D01*
X1730079D01*
Y1875000D01*
D02*
G37*
G36*
X1650118D02*
X1580158D01*
Y1850315D01*
X1650118D01*
Y1875000D01*
D02*
G37*
G36*
X1493858D02*
X1429803D01*
Y1850315D01*
X1493858D01*
Y1875000D01*
D02*
G37*
G36*
X2901339Y1909685D02*
X2876654D01*
Y1844646D01*
X2901339D01*
Y1909685D01*
D02*
G37*
G36*
X1419803D02*
X1384528D01*
Y1844646D01*
X1409213D01*
Y1850315D01*
X1419803D01*
Y1880000D01*
Y1909685D01*
D02*
G37*
G36*
X2866654D02*
X2835315D01*
Y1880000D01*
Y1850315D01*
X2841969D01*
Y1844646D01*
X2866654D01*
Y1909685D01*
D02*
G37*
G36*
X1374528D02*
X1349843D01*
Y1844646D01*
X1374528D01*
Y1909685D01*
D02*
G37*
G36*
X2901339Y1834646D02*
X2876654D01*
Y1769606D01*
X2901339D01*
Y1834646D01*
D02*
G37*
G36*
X2866654D02*
X2841969D01*
Y1769606D01*
X2866654D01*
Y1834646D01*
D02*
G37*
G36*
X1409213D02*
X1384528D01*
Y1769606D01*
X1409213D01*
Y1834646D01*
D02*
G37*
G36*
X1374528D02*
X1349843D01*
Y1769606D01*
X1374528D01*
Y1834646D01*
D02*
G37*
G36*
X1618307Y1787716D02*
X1597559D01*
Y1765000D01*
X1618307D01*
Y1787716D01*
D02*
G37*
G36*
X1587559D02*
X1566811D01*
Y1765000D01*
X1587559D01*
Y1787716D01*
D02*
G37*
G36*
X1618307Y1755000D02*
X1597559D01*
Y1732283D01*
X1618307D01*
Y1755000D01*
D02*
G37*
G36*
X1587559D02*
X1566811D01*
Y1732283D01*
X1587559D01*
Y1755000D01*
D02*
G37*
G36*
X1543209Y2025641D02*
X1531594D01*
X1526988Y2024724D01*
X1523082Y2022115D01*
X1520473Y2018209D01*
X1519556Y2013602D01*
Y1982118D01*
X1518778Y1981599D01*
X1513805Y1974156D01*
X1512059Y1965377D01*
Y1778634D01*
X1513805Y1769855D01*
X1515693Y1767031D01*
Y1759459D01*
X1513210Y1755742D01*
X1511464Y1746963D01*
Y1699307D01*
X1511284D01*
Y1655811D01*
X1558717D01*
Y1699307D01*
X1557345D01*
Y1736283D01*
X1559189D01*
Y1783716D01*
X1557941D01*
Y1965377D01*
X1556195Y1974156D01*
X1554940Y1976034D01*
X1555247Y1977579D01*
Y2013602D01*
X1554331Y2018209D01*
X1551721Y2022115D01*
X1547816Y2024724D01*
X1543209Y2025641D01*
D02*
G37*
G36*
X1409213Y1683307D02*
X1384528D01*
Y1625158D01*
X1409213D01*
Y1683307D01*
D02*
G37*
G36*
X2901339D02*
X2876654D01*
Y1625158D01*
X2901339D01*
Y1683307D01*
D02*
G37*
G36*
X1374528D02*
X1349843D01*
Y1625158D01*
X1374528D01*
Y1683307D01*
D02*
G37*
G36*
X2866654D02*
X2841969D01*
Y1625158D01*
X2866654D01*
Y1683307D01*
D02*
G37*
G36*
X2901339Y1615158D02*
X2876654D01*
Y1557008D01*
X2901339D01*
Y1615158D01*
D02*
G37*
G36*
X2866654D02*
X2841969D01*
Y1557008D01*
X2866654D01*
Y1615158D01*
D02*
G37*
G36*
X1409213D02*
X1384528D01*
Y1557008D01*
X1409213D01*
Y1615158D01*
D02*
G37*
G36*
X1374528D02*
X1349843D01*
Y1557008D01*
X1374528D01*
Y1615158D01*
D02*
G37*
G36*
X1500630Y1577716D02*
X1479882D01*
Y1555000D01*
X1500630D01*
Y1577716D01*
D02*
G37*
G36*
X1469882D02*
X1449134D01*
Y1555000D01*
X1469882D01*
Y1577716D01*
D02*
G37*
G36*
X1558717Y1644189D02*
X1511284D01*
Y1600693D01*
X1512059D01*
Y1573716D01*
X1508252D01*
Y1555996D01*
X1507059Y1550000D01*
X1508252Y1544004D01*
Y1526284D01*
X1517059D01*
Y1517941D01*
X1502217D01*
X1500630Y1522284D01*
X1500630Y1522941D01*
Y1545000D01*
X1474882D01*
X1449134D01*
Y1522941D01*
X1449134Y1522284D01*
X1447547Y1517941D01*
X1285764D01*
X1285557Y1518713D01*
X1280879Y1526814D01*
X1274265Y1533429D01*
X1266163Y1538106D01*
X1257128Y1540527D01*
X1247773D01*
X1238737Y1538106D01*
X1235552Y1536267D01*
X1187978D01*
Y1540527D01*
X1116923D01*
Y1469473D01*
X1187978D01*
Y1473733D01*
X1235552D01*
X1238737Y1471894D01*
X1247773Y1469473D01*
X1257128D01*
X1266163Y1471894D01*
X1266450Y1472059D01*
X1345402D01*
X1349842Y1470708D01*
X1349843Y1467059D01*
Y1400748D01*
X1379528D01*
X1409213D01*
Y1467059D01*
X1409213Y1470708D01*
X1413653Y1472059D01*
X1517059D01*
Y1454307D01*
X1516283D01*
Y1410811D01*
X1534003D01*
X1540000Y1409618D01*
X1545996Y1410811D01*
X1563716D01*
Y1454307D01*
X1562941D01*
Y1527059D01*
X1656167D01*
X1662059Y1521167D01*
Y1496748D01*
X1661284D01*
Y1453252D01*
X1679004D01*
X1685000Y1452059D01*
X1690996Y1453252D01*
X1708716D01*
Y1496748D01*
X1707941D01*
Y1530669D01*
X1706195Y1539448D01*
X1701222Y1546891D01*
X1681891Y1566222D01*
X1674448Y1571195D01*
X1665669Y1572941D01*
X1557941D01*
Y1600693D01*
X1558717D01*
Y1644189D01*
D02*
G37*
G36*
X2460748Y1527716D02*
X2440000D01*
Y1505000D01*
X2460748D01*
Y1527716D01*
D02*
G37*
G36*
X2430000D02*
X2409252D01*
Y1505000D01*
X2430000D01*
Y1527716D01*
D02*
G37*
G36*
X2460748Y1495000D02*
X2440000D01*
Y1472284D01*
X2460748D01*
Y1495000D01*
D02*
G37*
G36*
X2430000D02*
X2409252D01*
Y1472284D01*
X2430000D01*
Y1495000D01*
D02*
G37*
G36*
X3202126Y1492795D02*
X3114449D01*
Y1461220D01*
X3202126D01*
Y1492795D01*
D02*
G37*
G36*
X2278189Y1482717D02*
X2257441D01*
Y1460000D01*
X2278189D01*
Y1482717D01*
D02*
G37*
G36*
X2247441D02*
X2226693D01*
Y1460000D01*
X2247441D01*
Y1482717D01*
D02*
G37*
G36*
X2538386Y1460813D02*
Y1442913D01*
X2551930D01*
Y1446575D01*
X2550834Y1452090D01*
X2547710Y1456765D01*
X2543034Y1459889D01*
X2538386Y1460813D01*
D02*
G37*
G36*
X2451614D02*
X2446966Y1459889D01*
X2442290Y1456765D01*
X2439166Y1452090D01*
X2438070Y1446575D01*
Y1442913D01*
X2451614D01*
Y1460813D01*
D02*
G37*
G36*
X2278189Y1450000D02*
X2257441D01*
Y1427284D01*
X2278189D01*
Y1450000D01*
D02*
G37*
G36*
X2247441D02*
X2226693D01*
Y1427284D01*
X2247441D01*
Y1450000D01*
D02*
G37*
G36*
X3202126Y1451220D02*
X3114449D01*
Y1419646D01*
X3202126D01*
Y1451220D01*
D02*
G37*
G36*
X2901339Y1470709D02*
X2876654D01*
Y1400748D01*
X2901339D01*
Y1470709D01*
D02*
G37*
G36*
X2866654D02*
X2841969D01*
Y1400748D01*
X2866654D01*
Y1470709D01*
D02*
G37*
G36*
X2144189Y1383717D02*
X2100693D01*
Y1382941D01*
X2057906D01*
X2055000Y1382363D01*
X2052094Y1382941D01*
X1991866D01*
Y1383716D01*
X1948370D01*
Y1365996D01*
X1947177Y1360000D01*
X1948370Y1354004D01*
Y1336284D01*
X1991866D01*
Y1337059D01*
X2031283D01*
Y1335811D01*
X2078716D01*
Y1337059D01*
X2100693D01*
Y1336284D01*
X2144189D01*
Y1354004D01*
X2145382Y1360000D01*
X2144189Y1365997D01*
Y1383717D01*
D02*
G37*
G36*
X1685000Y1442823D02*
X1684535D01*
X1678539Y1441630D01*
X1661284D01*
Y1421347D01*
X1660843Y1419130D01*
Y1389063D01*
X1653013Y1381234D01*
X1645898D01*
Y1373329D01*
X1642514Y1368265D01*
X1640768Y1359486D01*
X1641273Y1356945D01*
X1636665Y1354482D01*
X1630338Y1360809D01*
Y1381234D01*
X1594716D01*
Y1337738D01*
X1607267D01*
X1622144Y1322861D01*
X1620231Y1318242D01*
X1618524D01*
X1612527Y1319435D01*
X1610400D01*
X1604403Y1318242D01*
X1594716D01*
Y1316252D01*
X1562941D01*
Y1355693D01*
X1563716D01*
Y1399189D01*
X1545996D01*
X1540000Y1400382D01*
X1534003Y1399189D01*
X1516283D01*
Y1355693D01*
X1517059D01*
Y1314307D01*
X1516283D01*
Y1270811D01*
X1534003D01*
X1540000Y1269618D01*
X1543780Y1270370D01*
X1607216D01*
X1615996Y1272117D01*
X1619931Y1274746D01*
X1629086D01*
X1630338Y1274746D01*
Y1274746D01*
X1634087D01*
Y1274746D01*
X1651806D01*
X1657803Y1273553D01*
X1658268D01*
X1664264Y1274746D01*
X1677059D01*
Y1257941D01*
X1655000D01*
X1649004Y1256748D01*
X1631284D01*
Y1213252D01*
X1649004D01*
X1655000Y1212059D01*
X1745000D01*
X1750996Y1213252D01*
X1768716D01*
Y1256748D01*
X1750996D01*
X1745000Y1257941D01*
X1722941D01*
Y1279500D01*
X1745000D01*
X1750996Y1280693D01*
X1768716D01*
Y1324189D01*
X1750996D01*
X1745000Y1325382D01*
X1664391D01*
X1661622Y1329526D01*
X1658705Y1332443D01*
X1661168Y1337051D01*
X1663709Y1336545D01*
X1671875D01*
X1677783Y1335370D01*
X1741220D01*
X1745000Y1334618D01*
X1913024D01*
X1921395Y1336284D01*
X1936748D01*
Y1353539D01*
X1937941Y1359535D01*
Y1360000D01*
X1936748Y1365996D01*
Y1383716D01*
X1893252D01*
Y1380500D01*
X1748028D01*
X1744248Y1381252D01*
X1706724D01*
Y1398134D01*
X1708716D01*
Y1441630D01*
X1690996D01*
X1685000Y1442823D01*
D02*
G37*
G36*
X2901339Y1390748D02*
X2876654D01*
Y1320787D01*
X2901339D01*
Y1390748D01*
D02*
G37*
G36*
X2866654D02*
X2841969D01*
Y1320787D01*
X2866654D01*
Y1390748D01*
D02*
G37*
G36*
X1409213D02*
X1384528D01*
Y1320787D01*
X1409213D01*
Y1390748D01*
D02*
G37*
G36*
X1374528D02*
X1349843D01*
Y1320787D01*
X1374528D01*
Y1390748D01*
D02*
G37*
G36*
X2282716Y1328189D02*
X2260000D01*
Y1307441D01*
X2282716D01*
Y1328189D01*
D02*
G37*
G36*
X2082716D02*
X2060000D01*
Y1307441D01*
X2082716D01*
Y1328189D01*
D02*
G37*
G36*
X2250000D02*
X2227283D01*
Y1307441D01*
X2250000D01*
Y1328189D01*
D02*
G37*
G36*
X2050000D02*
X2027283D01*
Y1307441D01*
X2050000D01*
Y1328189D01*
D02*
G37*
G36*
X2551930Y1297087D02*
X2538386D01*
Y1279187D01*
X2543034Y1280111D01*
X2547710Y1283235D01*
X2550834Y1287910D01*
X2551930Y1293425D01*
Y1297087D01*
D02*
G37*
G36*
X2282716Y1297441D02*
X2260000D01*
Y1276693D01*
X2282716D01*
Y1297441D01*
D02*
G37*
G36*
X2250000D02*
X2227283D01*
Y1276693D01*
X2250000D01*
Y1297441D01*
D02*
G37*
G36*
X2082716D02*
X2060000D01*
Y1276693D01*
X2082716D01*
Y1297441D01*
D02*
G37*
G36*
X2050000D02*
X2027283D01*
Y1276693D01*
X2050000D01*
Y1297441D01*
D02*
G37*
G36*
X1567716Y1263189D02*
X1545000D01*
Y1242441D01*
X1567716D01*
Y1263189D01*
D02*
G37*
G36*
X1535000D02*
X1512283D01*
Y1242441D01*
X1535000D01*
Y1263189D01*
D02*
G37*
G36*
X3202126Y1270354D02*
X3114449D01*
Y1238780D01*
X3202126D01*
Y1270354D01*
D02*
G37*
G36*
X2662717Y1258189D02*
X2640000D01*
Y1237441D01*
X2662717D01*
Y1258189D01*
D02*
G37*
G36*
X2630000D02*
X2607284D01*
Y1237441D01*
X2630000D01*
Y1258189D01*
D02*
G37*
G36*
X1825000Y1325382D02*
X1819004Y1324189D01*
X1801283D01*
Y1280693D01*
X1802059D01*
Y1256866D01*
X1801284D01*
Y1213370D01*
X1819004D01*
X1825000Y1212177D01*
X1830996Y1213370D01*
X1848716D01*
Y1256866D01*
X1847941D01*
Y1280693D01*
X1848716D01*
Y1324189D01*
X1830996D01*
X1825000Y1325382D01*
D02*
G37*
G36*
X1567716Y1232441D02*
X1545000D01*
Y1211693D01*
X1567716D01*
Y1232441D01*
D02*
G37*
G36*
X1535000D02*
X1512283D01*
Y1211693D01*
X1535000D01*
Y1232441D01*
D02*
G37*
G36*
X2662717Y1227441D02*
X2640000D01*
Y1206693D01*
X2662717D01*
Y1227441D01*
D02*
G37*
G36*
X2630000D02*
X2607284D01*
Y1206693D01*
X2630000D01*
Y1227441D01*
D02*
G37*
G36*
X3202126Y1228780D02*
X3114449D01*
Y1197205D01*
X3202126D01*
Y1228780D01*
D02*
G37*
G36*
X2513183Y1271000D02*
X2506817D01*
X2500937Y1268564D01*
X2496436Y1264063D01*
X2494000Y1258183D01*
Y1251817D01*
X2495284Y1248716D01*
X2492123Y1243716D01*
X2490811D01*
Y1196283D01*
X2534307D01*
Y1243716D01*
X2527877D01*
X2524716Y1248716D01*
X2526000Y1251817D01*
Y1258183D01*
X2523564Y1264063D01*
X2519063Y1268564D01*
X2513183Y1271000D01*
D02*
G37*
G36*
X1852716Y1205748D02*
X1830000D01*
Y1185000D01*
X1852716D01*
Y1205748D01*
D02*
G37*
G36*
X1820000D02*
X1797284D01*
Y1185000D01*
X1820000D01*
Y1205748D01*
D02*
G37*
G36*
X1772716Y1205630D02*
X1750000D01*
Y1184882D01*
X1772716D01*
Y1205630D01*
D02*
G37*
G36*
X1740000D02*
X1717284D01*
Y1184882D01*
X1740000D01*
Y1205630D01*
D02*
G37*
G36*
X1409213Y1234488D02*
X1384528D01*
Y1164528D01*
X1409213D01*
Y1234488D01*
D02*
G37*
G36*
X2901339D02*
X2876654D01*
Y1164528D01*
X2901339D01*
Y1234488D01*
D02*
G37*
G36*
X2866654D02*
X2841969D01*
Y1164528D01*
X2866654D01*
Y1234488D01*
D02*
G37*
G36*
X1374528D02*
X1349843D01*
Y1164528D01*
X1374528D01*
Y1234488D01*
D02*
G37*
G36*
X1852716Y1175000D02*
X1830000D01*
Y1154252D01*
X1852716D01*
Y1175000D01*
D02*
G37*
G36*
X1820000D02*
X1797284D01*
Y1154252D01*
X1820000D01*
Y1175000D01*
D02*
G37*
G36*
X1772716Y1174882D02*
X1750000D01*
Y1154134D01*
X1772716D01*
Y1174882D01*
D02*
G37*
G36*
X1740000D02*
X1717284D01*
Y1154134D01*
X1740000D01*
Y1174882D01*
D02*
G37*
G36*
X1655000Y1202823D02*
X1649004Y1201630D01*
X1631284D01*
Y1158134D01*
X1632059D01*
Y1131866D01*
X1631284D01*
Y1088370D01*
X1649004D01*
X1655000Y1087177D01*
X1660996Y1088370D01*
X1678716D01*
Y1131866D01*
X1677941D01*
Y1158134D01*
X1678716D01*
Y1201630D01*
X1660996D01*
X1655000Y1202823D01*
D02*
G37*
G36*
X2901339Y1154528D02*
X2876654D01*
Y1084567D01*
X2901339D01*
Y1154528D01*
D02*
G37*
G36*
X2866654D02*
X2841969D01*
Y1084567D01*
X2866654D01*
Y1154528D01*
D02*
G37*
G36*
X1409213D02*
X1384528D01*
Y1084567D01*
X1409213D01*
Y1154528D01*
D02*
G37*
G36*
X1374528D02*
X1349843D01*
Y1084567D01*
X1374528D01*
Y1154528D01*
D02*
G37*
G36*
X1682716Y1080748D02*
X1660000D01*
Y1060000D01*
X1682716D01*
Y1080748D01*
D02*
G37*
G36*
X1650000D02*
X1627284D01*
Y1060000D01*
X1650000D01*
Y1080748D01*
D02*
G37*
G36*
X1682716Y1050000D02*
X1660000D01*
Y1029252D01*
X1682716D01*
Y1050000D01*
D02*
G37*
G36*
X1650000D02*
X1627284D01*
Y1029252D01*
X1650000D01*
Y1050000D01*
D02*
G37*
G36*
X1409213Y998268D02*
X1384528D01*
Y933228D01*
X1409213D01*
Y998268D01*
D02*
G37*
G36*
X2901339D02*
X2876654D01*
Y933228D01*
X2901339D01*
Y998268D01*
D02*
G37*
G36*
X1374528D02*
X1349843D01*
Y933228D01*
X1374528D01*
Y998268D01*
D02*
G37*
G36*
X2866654D02*
X2841969D01*
Y933228D01*
X2866654D01*
Y998268D01*
D02*
G37*
G36*
X2674961Y917559D02*
X2605000D01*
Y892874D01*
X2674961D01*
Y917559D01*
D02*
G37*
G36*
X2438740D02*
X2368780D01*
Y892874D01*
X2438740D01*
Y917559D01*
D02*
G37*
G36*
X1966299D02*
X1896339D01*
Y892874D01*
X1966299D01*
Y917559D01*
D02*
G37*
G36*
X1730079D02*
X1660118D01*
Y892874D01*
X1730079D01*
Y917559D01*
D02*
G37*
G36*
X1493858D02*
X1429803D01*
Y892874D01*
X1493858D01*
Y917559D01*
D02*
G37*
G36*
X2825315D02*
X2761260D01*
Y892874D01*
X2825315D01*
Y917559D01*
D02*
G37*
G36*
X1650118D02*
X1580158D01*
Y892874D01*
X1650118D01*
Y917559D01*
D02*
G37*
G36*
X2358780D02*
X2288819D01*
Y892874D01*
X2358780D01*
Y917559D01*
D02*
G37*
G36*
X2595000D02*
X2525039D01*
Y892874D01*
X2595000D01*
Y917559D01*
D02*
G37*
G36*
X1886339D02*
X1816378D01*
Y892874D01*
X1886339D01*
Y917559D01*
D02*
G37*
G36*
X2202520D02*
X2132559D01*
Y892874D01*
X2202520D01*
Y917559D01*
D02*
G37*
G36*
X2122559D02*
X2052599D01*
Y892874D01*
X2122559D01*
Y917559D01*
D02*
G37*
G36*
X2901339Y923228D02*
X2876654D01*
Y858189D01*
X2901339D01*
Y923228D01*
D02*
G37*
G36*
X2866654D02*
X2841969D01*
Y917559D01*
X2835315D01*
Y887874D01*
Y858189D01*
X2866654D01*
Y923228D01*
D02*
G37*
G36*
X2825315Y882874D02*
X2761260D01*
Y858189D01*
X2825315D01*
Y882874D01*
D02*
G37*
G36*
X2674961D02*
X2605000D01*
Y858189D01*
X2674961D01*
Y882874D01*
D02*
G37*
G36*
X2595000D02*
X2525039D01*
Y858189D01*
X2595000D01*
Y882874D01*
D02*
G37*
G36*
X2438740D02*
X2368780D01*
Y858189D01*
X2438740D01*
Y882874D01*
D02*
G37*
G36*
X2358780D02*
X2288819D01*
Y858189D01*
X2358780D01*
Y882874D01*
D02*
G37*
G36*
X2202520Y882874D02*
X2132559D01*
Y858189D01*
X2202520D01*
Y882874D01*
D02*
G37*
G36*
X2122559D02*
X2052599D01*
Y858189D01*
X2122559D01*
Y882874D01*
D02*
G37*
G36*
X1966299Y882874D02*
X1896339D01*
Y858189D01*
X1966299D01*
Y882874D01*
D02*
G37*
G36*
X1886339D02*
X1816378D01*
Y858189D01*
X1886339D01*
Y882874D01*
D02*
G37*
G36*
X1730079D02*
X1660118D01*
Y858189D01*
X1730079D01*
Y882874D01*
D02*
G37*
G36*
X1650118D02*
X1580158D01*
Y858189D01*
X1650118D01*
Y882874D01*
D02*
G37*
G36*
X1493858D02*
X1429803D01*
Y858189D01*
X1493858D01*
Y882874D01*
D02*
G37*
G36*
X1409213Y923228D02*
X1384528D01*
Y858189D01*
X1419803D01*
Y887874D01*
Y917559D01*
X1409213D01*
Y923228D01*
D02*
G37*
G36*
X1374528D02*
X1349843D01*
Y858189D01*
X1374528D01*
Y923228D01*
D02*
G37*
G36*
X3206500Y966000D02*
X3193500D01*
X3180749Y963464D01*
X3168737Y958488D01*
X3157927Y951265D01*
X3148735Y942072D01*
X3141512Y931263D01*
X3136536Y919251D01*
X3134000Y906500D01*
Y893500D01*
X3136536Y880749D01*
X3141512Y868737D01*
X3148735Y857928D01*
X3157927Y848735D01*
X3168737Y841512D01*
X3180749Y836536D01*
X3193500Y834000D01*
X3206500D01*
X3219251Y836536D01*
X3231263Y841512D01*
X3242073Y848735D01*
X3251265Y857928D01*
X3258488Y868737D01*
X3263464Y880749D01*
X3266000Y893500D01*
Y906500D01*
X3263464Y919251D01*
X3258488Y931263D01*
X3251265Y942072D01*
X3242073Y951265D01*
X3231263Y958488D01*
X3219251Y963464D01*
X3206500Y966000D01*
D02*
G37*
G36*
X1106500D02*
X1093500D01*
X1080748Y963464D01*
X1068737Y958488D01*
X1057928Y951265D01*
X1048735Y942072D01*
X1041512Y931263D01*
X1036536Y919251D01*
X1034000Y906500D01*
Y893500D01*
X1036536Y880749D01*
X1041512Y868737D01*
X1048735Y857928D01*
X1057928Y848735D01*
X1068737Y841512D01*
X1080748Y836536D01*
X1093500Y834000D01*
X1106500D01*
X1119252Y836536D01*
X1131263Y841512D01*
X1142072Y848735D01*
X1151265Y857928D01*
X1158488Y868737D01*
X1163464Y880749D01*
X1166000Y893500D01*
Y906500D01*
X1163464Y919251D01*
X1158488Y931263D01*
X1151265Y942072D01*
X1142072Y951265D01*
X1131263Y958488D01*
X1119252Y963464D01*
X1106500Y966000D01*
D02*
G37*
%LPD*%
D10*
X2830315Y887874D02*
D03*
Y1880000D02*
D03*
X1424803D02*
D03*
Y887874D02*
D03*
D11*
X2871654Y928228D02*
D03*
Y1839646D02*
D03*
X1379528D02*
D03*
Y928228D02*
D03*
D12*
X2871654Y1159528D02*
D03*
Y1395748D02*
D03*
X1379528D02*
D03*
Y1159528D02*
D03*
D13*
X2871654Y1620158D02*
D03*
X1379528D02*
D03*
D14*
X2600000Y1880000D02*
D03*
X2363780D02*
D03*
X2127559D02*
D03*
X1891339D02*
D03*
X1655118D02*
D03*
Y887874D02*
D03*
X1891339D02*
D03*
X2127559D02*
D03*
X2363780D02*
D03*
X2600000D02*
D03*
D15*
X2495000Y1370000D02*
D03*
D16*
X2456614Y1437913D02*
D03*
X2482205D02*
D03*
X2507795D02*
D03*
X2533386D02*
D03*
Y1302087D02*
D03*
X2507795D02*
D03*
X2482205D02*
D03*
X2456614D02*
D03*
D17*
X2562913Y1408386D02*
D03*
Y1382795D02*
D03*
Y1357205D02*
D03*
Y1331614D02*
D03*
X2427087D02*
D03*
Y1357205D02*
D03*
Y1382795D02*
D03*
Y1408386D02*
D03*
D18*
X3215000Y1345000D02*
D03*
X3212874Y2301220D02*
D03*
D19*
X3207126Y1233780D02*
D03*
Y1456220D02*
D03*
X3205000Y2190000D02*
D03*
Y2412441D02*
D03*
D20*
X1655000Y1235000D02*
D03*
Y1179882D02*
D03*
X1540000Y1292559D02*
D03*
Y1237441D02*
D03*
Y1432559D02*
D03*
Y1377441D02*
D03*
X1655000Y1110118D02*
D03*
Y1055000D02*
D03*
X1535000Y1622441D02*
D03*
Y1677559D02*
D03*
X1657803Y1296494D02*
D03*
X1685000Y1475000D02*
D03*
Y1419882D02*
D03*
X1745000Y1235000D02*
D03*
Y1179882D02*
D03*
X1745000Y1357559D02*
D03*
Y1302441D02*
D03*
X1825000Y1357559D02*
D03*
Y1302441D02*
D03*
X2255000Y1357559D02*
D03*
Y1302441D02*
D03*
X2635000Y1232441D02*
D03*
Y1287559D02*
D03*
X1825000Y1235118D02*
D03*
Y1180000D02*
D03*
X2055000Y1357559D02*
D03*
Y1302441D02*
D03*
X1940000Y2300000D02*
D03*
Y2244882D02*
D03*
X2255000Y2129882D02*
D03*
Y2185000D02*
D03*
X2435000Y2242441D02*
D03*
Y2297559D02*
D03*
D21*
X1530000Y1550000D02*
D03*
X1474882D02*
D03*
X1537441Y1760000D02*
D03*
X1592559D02*
D03*
X1915000Y1360000D02*
D03*
X1970118D02*
D03*
X2307559Y1455000D02*
D03*
X2252441D02*
D03*
X2512559Y1220000D02*
D03*
X2457441D02*
D03*
X2379882Y1500000D02*
D03*
X2435000D02*
D03*
X2177559Y1360000D02*
D03*
X2122441D02*
D03*
X2567559Y2300000D02*
D03*
X2512441D02*
D03*
X2027441Y2165000D02*
D03*
X2082559D02*
D03*
X2082559Y2240000D02*
D03*
X2027441D02*
D03*
X1492559Y2180000D02*
D03*
X1437441D02*
D03*
X2360118Y2300000D02*
D03*
X2305000D02*
D03*
X1665118Y2110000D02*
D03*
X1610000D02*
D03*
D22*
X1612527Y1359486D02*
D03*
X1663709D02*
D03*
X1612527Y1296494D02*
D03*
D23*
X2724528Y2252953D02*
D03*
D24*
X2737323Y2300000D02*
D03*
Y2347047D02*
D03*
X2652677D02*
D03*
Y2300000D02*
D03*
Y2252953D02*
D03*
D25*
X1857795Y2244409D02*
D03*
Y2270000D02*
D03*
Y2295591D02*
D03*
X1782205D02*
D03*
Y2244409D02*
D03*
D26*
X2156811Y2290591D02*
D03*
Y2265000D02*
D03*
Y2239409D02*
D03*
X2233189D02*
D03*
Y2265000D02*
D03*
Y2290591D02*
D03*
D27*
X2340000Y2184528D02*
D03*
Y2125472D02*
D03*
D28*
X1537402Y1995591D02*
D03*
X1462598D02*
D03*
Y2094409D02*
D03*
X1500000D02*
D03*
X1537402D02*
D03*
D29*
X1481260Y2329724D02*
D03*
Y2420276D02*
D03*
D30*
X1638740Y2375000D02*
D03*
D31*
X2245000Y1625000D02*
X2360000Y1510000D01*
X2245000Y1625000D02*
Y1925000D01*
X2115000Y2055000D02*
X2245000Y1925000D01*
X2080000Y2055000D02*
X2115000D01*
X1152450Y1505000D02*
X1252450D01*
X1780000Y2187205D02*
Y2225000D01*
X1975000Y2055000D02*
Y2125000D01*
X2007500Y2157500D01*
X1975000Y2055000D02*
X2080000D01*
X1830000D02*
X1975000D01*
X2320000Y2600000D02*
Y2695000D01*
X1385000Y2535000D02*
X2255000D01*
X2320000Y2600000D01*
X1250000Y2400000D02*
X1385000Y2535000D01*
X2265000Y2195000D02*
Y2223010D01*
X2255000Y2185000D02*
X2265000Y2195000D01*
X2210000Y2185000D02*
X2255000D01*
X1735000Y2150000D02*
X1830000Y2055000D01*
X1705000Y2180000D02*
X1735000Y2150000D01*
X1742795D02*
X1780000Y2187205D01*
X1735000Y2150000D02*
X1742795D01*
X2080000Y2055000D02*
X2210000Y2185000D01*
X2261737Y2184528D02*
X2340000D01*
X1555000Y2180000D02*
X1705000D01*
X1555000D02*
Y2255984D01*
Y2110000D02*
Y2180000D01*
X1495630Y2315354D02*
X1555000Y2255984D01*
X1481260Y2329724D02*
X1495039D01*
X1495630Y2329134D01*
Y2315354D02*
Y2329134D01*
X1555000Y2110000D02*
X1580000D01*
X1150000Y2400000D02*
X1250000D01*
X1322726Y2329724D02*
X1481260D01*
X1252450Y2400000D02*
X1322726Y2329724D01*
X1250000Y2400000D02*
X1252450D01*
D32*
X1535000Y1778634D02*
Y1965377D01*
X1252450Y1505000D02*
X1262450Y1495000D01*
X1535000D01*
X1665669Y1550000D02*
X1685000Y1530669D01*
Y1475000D02*
Y1530669D01*
X1530000Y1550000D02*
X1665669D01*
X2965793Y1275000D02*
X3035793Y1345000D01*
X3215000D01*
X2692906Y1410000D02*
X2827906Y1275000D01*
X2965793D01*
X1535000Y1555000D02*
Y1615000D01*
X1540000Y1432559D02*
Y1530000D01*
X1534404Y1695000D02*
Y1746963D01*
X1684535Y1419882D02*
X1685000D01*
X1540000Y1292559D02*
Y1377441D01*
Y1292559D02*
X1540752Y1293311D01*
X1607216D01*
X1657803Y1296494D02*
X1658268D01*
X1610400D02*
X1612527D01*
X1607216Y1293311D02*
X1610400Y1296494D01*
X1658268D02*
X1664215Y1302441D01*
X1655000Y1235000D02*
X1700000D01*
X1664215Y1302441D02*
X1700000D01*
Y1235000D02*
Y1302441D01*
X1745000D01*
X1700000Y1235000D02*
X1745000D01*
X1825000Y1302441D02*
X1825000Y1302441D01*
Y1235118D02*
Y1302441D01*
X1663709Y1359486D02*
X1676608D01*
X1663709D02*
X1683783Y1379561D01*
X1676608Y1359486D02*
X1677783Y1358311D01*
X1683783Y1379561D02*
Y1419130D01*
X1684535Y1419882D01*
X1677783Y1358311D02*
X1744248D01*
X1745000Y1357559D01*
X1825000D01*
X1913024D01*
X1915000Y1359535D01*
Y1360000D01*
X1655000Y1110118D02*
Y1179882D01*
X1970118Y1360000D02*
X2052094D01*
X2057906Y1360000D02*
X2122441D01*
X2401444Y1357559D02*
X2401798Y1357205D01*
X2250000Y1357559D02*
X2401444D01*
X2177559Y1360000D02*
X2244535D01*
X2586588Y1410000D02*
X2692906D01*
X2240000Y2300000D02*
X2305000D01*
X2435000Y2300000D02*
X2512441D01*
X2360118D02*
X2435000D01*
X2360118Y2300000D02*
X2360118Y2300000D01*
X2567559D02*
X2652677D01*
X2652677Y2300000D01*
X2737323D02*
X3210000D01*
D33*
X2587913Y1331614D02*
X2621220Y1298307D01*
X2533386Y1302087D02*
Y1331614D01*
X2562913D02*
X2587913D01*
X2516653Y1348347D02*
X2533386Y1331614D01*
X2635000Y1282559D02*
Y1285591D01*
X2622284Y1298307D02*
X2635000Y1285591D01*
X2621220Y1298307D02*
X2622284D01*
X2456614Y1225827D02*
Y1266457D01*
X2390000Y1265000D02*
X2455158D01*
X2456614Y1266457D01*
Y1302087D01*
X2427087Y1331614D02*
X2456614D01*
X2423150Y1408386D02*
X2427087D01*
X2456614D02*
Y1437913D01*
Y1302087D02*
Y1307087D01*
Y1225827D02*
X2457441Y1225000D01*
X2510000Y1222559D02*
Y1255000D01*
X2456614Y1331614D02*
X2495000Y1370000D01*
X2482205Y1302087D02*
Y1339488D01*
X2473346Y1348347D02*
X2473347D01*
X2482205Y1339488D01*
X2507795Y1302087D02*
Y1348347D01*
X2510000Y1222559D02*
X2512559Y1220000D01*
X2507795Y1357205D02*
X2562913D01*
X2456614Y1408386D02*
X2473346Y1391654D01*
X2495000Y1370000D02*
X2507795Y1357205D01*
X2495000Y1370000D02*
X2507795Y1382795D01*
X2473346Y1391654D02*
X2495000Y1370000D01*
X2516653Y1382795D02*
X2562913D01*
X2516653Y1391653D02*
X2533386Y1408386D01*
X2507795Y1382795D02*
Y1437913D01*
X2482205Y1391654D02*
Y1437913D01*
X2533386Y1408386D02*
Y1437913D01*
X2379882Y1451653D02*
X2423150Y1408386D01*
X2379882Y1451653D02*
Y1500000D01*
X1485000Y2175000D02*
X1495000Y2185000D01*
X1780000Y2297795D02*
X1782205Y2295591D01*
X1780000Y2297795D02*
Y2335000D01*
X1857795Y2295591D02*
Y2332205D01*
X1815000Y2375000D02*
X1857795Y2332205D01*
X1638740Y2375000D02*
X1815000D01*
X1939527Y2244409D02*
X1940000Y2244882D01*
X1857795Y2244409D02*
X1939527D01*
X2110000Y2290000D02*
X2110295Y2290295D01*
X2156516D01*
X2140661Y2290591D02*
X2156811D01*
X2110000Y2165000D02*
X2138087Y2193087D01*
Y2198087D01*
X2140000Y2200000D01*
X2082559Y2165000D02*
X2110000D01*
X2156516Y2290295D02*
X2156811Y2290591D01*
X1440000Y2129213D02*
Y2180000D01*
X1360000Y2230000D02*
Y2245000D01*
Y2230000D02*
X1410000Y2180000D01*
X1437441D01*
X1944882Y2240000D02*
X2027441D01*
X1940000Y2244882D02*
X1944882Y2240000D01*
X2077559D02*
X2156041D01*
X1495000Y2180000D02*
X1555000D01*
X1440000Y2129213D02*
X1462598Y2106614D01*
Y2094409D02*
Y2106614D01*
D34*
X1612527Y1355549D02*
Y1359486D01*
Y1355549D02*
X1650086Y1317990D01*
Y1302242D02*
Y1317990D01*
Y1302242D02*
X1655834Y1296494D01*
X1657803D01*
D35*
X2426823Y1383059D02*
X2427087Y1382795D01*
X2403686Y1383059D02*
X2426823D01*
X2331745Y1455000D02*
X2403686Y1383059D01*
X2297848Y1455000D02*
X2331745D01*
D36*
X1152450Y1505000D02*
D03*
X2320000Y2695000D02*
D03*
X1150000Y2100000D02*
D03*
Y2400000D02*
D03*
D37*
X1252450Y1505000D02*
D03*
X2220000Y2695000D02*
D03*
X2120000D02*
D03*
X2020000D02*
D03*
X1920000D02*
D03*
X1820000D02*
D03*
X1250000Y2100000D02*
D03*
Y2400000D02*
D03*
D38*
X1100000Y2700000D02*
D03*
Y900000D02*
D03*
X3200000D02*
D03*
Y2700000D02*
D03*
D39*
X2605000Y1935000D02*
D03*
X2360000D02*
D03*
X2125000Y1930000D02*
D03*
X1890000Y1935000D02*
D03*
X1640000Y1930000D02*
D03*
X1430000Y1940000D02*
D03*
X1325000Y1830000D02*
D03*
X1320000Y1620000D02*
D03*
X1325000Y1395000D02*
D03*
X1315000Y1160000D02*
D03*
Y945000D02*
D03*
X1440000Y835000D02*
D03*
X1645000Y830000D02*
D03*
X1890000D02*
D03*
X2130000D02*
D03*
X2365000Y835000D02*
D03*
X2600000D02*
D03*
X2830000Y830000D02*
D03*
X2945000Y875000D02*
D03*
Y935000D02*
D03*
X2930000Y1155000D02*
D03*
Y1400000D02*
D03*
X2940000Y1615000D02*
D03*
Y1840000D02*
D03*
X2840000Y1940000D02*
D03*
X2600000Y945000D02*
D03*
X2365000D02*
D03*
X2130000Y950000D02*
D03*
X1890000D02*
D03*
X1650000D02*
D03*
X1445000Y955000D02*
D03*
X1435000Y1165000D02*
D03*
X1440000Y1395000D02*
D03*
X1450000Y1625000D02*
D03*
X1455000Y1820000D02*
D03*
X1650000Y1825000D02*
D03*
X1890000Y1815000D02*
D03*
X2130000D02*
D03*
X2365000D02*
D03*
X2595000D02*
D03*
X2810000Y1620000D02*
D03*
Y1430000D02*
D03*
X2805000Y1155000D02*
D03*
Y945000D02*
D03*
Y1810000D02*
D03*
X2575000Y1230000D02*
D03*
X2695000D02*
D03*
X2635000Y1180000D02*
D03*
X1501892Y1369761D02*
D03*
X1502785Y1329771D02*
D03*
X1501892Y1289781D02*
D03*
X1603958Y1256096D02*
D03*
X1582502Y1383973D02*
D03*
X1580325Y1344033D02*
D03*
X1710458Y1197785D02*
D03*
X1783108Y1221569D02*
D03*
X1779641Y1261418D02*
D03*
X1632142Y1394074D02*
D03*
X1646568Y1416061D02*
D03*
X1788933Y1320344D02*
D03*
X1868933D02*
D03*
X1908933D02*
D03*
X1921668Y1398108D02*
D03*
X1881807Y1394774D02*
D03*
X1841807D02*
D03*
X1801807D02*
D03*
X1761807D02*
D03*
X1721975Y1398435D02*
D03*
X1722551Y1438431D02*
D03*
X2076288Y1397215D02*
D03*
X2036288Y1397215D02*
D03*
X1996288D02*
D03*
X1956298Y1398108D02*
D03*
X1942424Y1326212D02*
D03*
X1982190Y1321892D02*
D03*
X2022180Y1322785D02*
D03*
X2102133Y1322785D02*
D03*
X2125000Y1405000D02*
D03*
X2150981Y1325466D02*
D03*
X2190820Y1321892D02*
D03*
X2310742Y1320344D02*
D03*
X2350742D02*
D03*
X2390742D02*
D03*
X2357723Y1394774D02*
D03*
X2317723D02*
D03*
X2277723D02*
D03*
X2237798Y1397215D02*
D03*
X2160000Y1405000D02*
D03*
X2649407Y1447215D02*
D03*
X2609407D02*
D03*
X2569647Y1442840D02*
D03*
X2656363Y1372785D02*
D03*
X2693164Y1357111D02*
D03*
X2721448Y1328827D02*
D03*
X2749733Y1300543D02*
D03*
X2778017Y1272259D02*
D03*
X2806947Y1244635D02*
D03*
X2926356Y1237785D02*
D03*
X2966356Y1237897D02*
D03*
X3001115Y1257691D02*
D03*
X3029399Y1285975D02*
D03*
X3062930Y1307785D02*
D03*
X3102930D02*
D03*
X3142165Y1300000D02*
D03*
X3182163Y1299608D02*
D03*
X3222163D02*
D03*
X3262163D02*
D03*
X3258030Y1390392D02*
D03*
X3218030D02*
D03*
X3178030D02*
D03*
X3138049Y1389181D02*
D03*
X3098660Y1382215D02*
D03*
X3058660D02*
D03*
X3018898Y1377859D02*
D03*
X2989212Y1351049D02*
D03*
X2960928Y1322765D02*
D03*
X2922344Y1312215D02*
D03*
X2882344D02*
D03*
X2842356Y1313180D02*
D03*
X2814072Y1341464D02*
D03*
X2785787Y1369748D02*
D03*
X2757503Y1398033D02*
D03*
X2729219Y1426317D02*
D03*
X2694875Y1446823D02*
D03*
X3242734Y2346612D02*
D03*
X3202734D02*
D03*
X3162734D02*
D03*
X3123853Y2337215D02*
D03*
X3083853D02*
D03*
X3043853D02*
D03*
X3003853D02*
D03*
X2963853D02*
D03*
X2923853D02*
D03*
X2883853D02*
D03*
X2843853D02*
D03*
X2803853D02*
D03*
X2783992Y2262785D02*
D03*
X2823992D02*
D03*
X2863992D02*
D03*
X2903992D02*
D03*
X2943992D02*
D03*
X2983992D02*
D03*
X3023992D02*
D03*
X3063992D02*
D03*
X3103992D02*
D03*
X3143382Y2255829D02*
D03*
X3183382D02*
D03*
X3223382D02*
D03*
X3263382D02*
D03*
X1705000Y1060000D02*
D03*
X1530000Y1195000D02*
D03*
X1600000Y1235000D02*
D03*
X1605000Y1015000D02*
D03*
Y1060000D02*
D03*
X1655000Y1010000D02*
D03*
X1705000D02*
D03*
X1755000Y1080000D02*
D03*
X1820000D02*
D03*
X1735000Y1120000D02*
D03*
X1850000D02*
D03*
X1790000D02*
D03*
X1885000Y1180000D02*
D03*
X2055000Y1250000D02*
D03*
X2250000D02*
D03*
X2000000Y1295000D02*
D03*
X2120000D02*
D03*
X2185000D02*
D03*
X1660000Y1760000D02*
D03*
X2330000Y1230000D02*
D03*
X2379882Y1451653D02*
D03*
X2390000Y1265000D02*
D03*
X2516653Y1348347D02*
D03*
X2473346D02*
D03*
X2516653Y1391654D02*
D03*
X2473346D02*
D03*
X2510000Y1255000D02*
D03*
X2515000Y1475000D02*
D03*
X3205000Y1170000D02*
D03*
X3145000D02*
D03*
X3270000D02*
D03*
X3095000Y1190000D02*
D03*
X3090000Y1245000D02*
D03*
X2610000Y1360000D02*
D03*
X3090000Y1430000D02*
D03*
Y1470000D02*
D03*
X2590028Y1507956D02*
D03*
X3145000Y1520000D02*
D03*
X3205000D02*
D03*
X3265000D02*
D03*
X1780000Y2335000D02*
D03*
X1995000Y2295000D02*
D03*
X1945000Y2180000D02*
D03*
X1895000Y2345000D02*
D03*
X1560000Y2420000D02*
D03*
X1497729Y1990692D02*
D03*
X1597729Y1960692D02*
D03*
X1422729Y2045692D02*
D03*
X1477729Y2140692D02*
D03*
Y2045692D02*
D03*
X1522729D02*
D03*
X1805000Y2270000D02*
D03*
X1900000Y2145000D02*
D03*
X1950000Y2345000D02*
D03*
X1665000Y1960000D02*
D03*
X1635000Y2055000D02*
D03*
X3080000Y2420000D02*
D03*
Y2190000D02*
D03*
X3100000Y2120000D02*
D03*
X3155000D02*
D03*
X3205000D02*
D03*
X3255000D02*
D03*
X3155000Y2470000D02*
D03*
X3245000D02*
D03*
X3195000D02*
D03*
X3115000D02*
D03*
X2730000Y2410000D02*
D03*
X2650000D02*
D03*
X2645000Y2195000D02*
D03*
X2745000D02*
D03*
X2235000Y2035000D02*
D03*
X2300000D02*
D03*
X2355000Y2030000D02*
D03*
Y2070000D02*
D03*
X2295000D02*
D03*
X2235000D02*
D03*
X1680000Y2055000D02*
D03*
X2258149Y2337215D02*
D03*
X2218771Y2330185D02*
D03*
X2284692Y2262785D02*
D03*
X2324692Y2262676D02*
D03*
X2325000Y2345000D02*
D03*
X2564223Y2261892D02*
D03*
X2604213Y2262785D02*
D03*
X2693738Y2305897D02*
D03*
X2587798Y2337215D02*
D03*
X2366359Y2261892D02*
D03*
X2486303Y2262785D02*
D03*
X2526293Y2261892D02*
D03*
X2540115Y2333802D02*
D03*
X2500347Y2338108D02*
D03*
X2460357Y2337215D02*
D03*
X2420357D02*
D03*
X2380357D02*
D03*
X2110000Y2290000D02*
D03*
X2140000Y2200000D02*
D03*
X1360000Y2245000D02*
D03*
%TF.MD5,06a6226522610d1ade959e1c19adc5be*%
M02*
